<svg width="502" height="353" viewBox="0 0 502 353" fill="none" xmlns="http://www.w3.org/2000/svg">
<path d="M368.923 18.3151H476.123V93.7826C484.749 99.855 493.374 105.927 502 112V0.0980225H343.046C351.671 6.17039 360.297 12.2428 368.923 18.3151Z" fill="#FC62FF"/>
<path d="M180.589 353H226.409L200.532 334.782H154.635C163.295 340.849 171.938 346.933 180.589 353Z" fill="#FC62FF"/>
<path d="M26.5773 244.918V212.321L0.700195 194.104V226.755C9.32589 232.815 17.9516 238.869 26.5773 244.918Z" fill="#FC62FF"/>
<path d="M26.5773 294.76V253.437C17.9516 247.383 9.32589 241.335 0.700195 235.275V276.537L26.5773 294.76Z" fill="#FC62FF"/>
<path d="M109.306 353H168.444C159.784 346.933 151.141 340.849 142.49 334.782H83.4293L109.306 353Z" fill="#FC62FF"/>
<path d="M71.3102 334.783H26.5773V303.298L0.700195 285.081V353H97.1873L71.3102 334.783Z" fill="#FC62FF"/>
<path d="M9.3259 6.17053V346.928H493.374V6.17053H9.3259ZM484.749 340.855H17.9516V12.2429H484.749V340.855Z" fill="#FC62FF"/>
</svg>
