<svg width="284" height="20" viewBox="0 0 284 20" fill="none" xmlns="http://www.w3.org/2000/svg">
<path d="M1.57488 7.70964C2.54848 4.14905 5.7988 1.52781 9.66966 1.52781H273.915C277.786 1.52781 281.036 4.14905 282.01 7.70964H283.585C282.573 3.3017 278.627 0 273.915 0H9.66966C4.96001 0 1.01211 3.3017 0 7.70964H1.57488Z" fill="#FD8D26"/>
<path d="M281.918 12.4792C280.837 15.8708 277.664 18.3273 273.915 18.3273H9.66982C5.92093 18.3273 2.74763 15.8687 1.66705 12.4792H0.0878906C1.21769 16.7181 5.07999 19.8551 9.67196 19.8551H273.917C278.507 19.8551 282.37 16.7181 283.501 12.4792H281.918Z" fill="#FD8D26"/>
<path d="M155.414 16.8015H164.564L150.816 3.05554H141.668L155.414 16.8015Z" fill="#FD8D26"/>
<path d="M143.494 16.8015H153.268L139.522 3.05554H129.745L143.494 16.8015Z" fill="#FD8D26"/>
<path d="M130.159 16.8015H141.345L127.599 3.05554H116.413L130.159 16.8015Z" fill="#FD8D26"/>
<path d="M114.001 16.8015H128.012L114.264 3.05554H100.255L114.001 16.8015Z" fill="#FD8D26"/>
<path d="M95.1774 16.8015H111.855C107.271 12.2202 102.69 7.63681 98.1068 3.05554H81.4293L95.1774 16.8015Z" fill="#FD8D26"/>
<path d="M71.1755 16.8015H93.0291L79.2831 3.05554H57.4296C62.0108 7.63681 66.5921 12.2202 71.1755 16.8015Z" fill="#FD8D26"/>
<path d="M41.9975 16.8015H69.0293L55.2812 3.05554H28.2494L41.9975 16.8015Z" fill="#FD8D26"/>
<path d="M26.1031 3.05554H9.6696C5.88005 3.05554 2.79663 6.13897 2.79663 9.92852C2.79663 13.7181 5.88005 16.8015 9.6696 16.8015H39.849L26.1031 3.05554Z" fill="#FD8D26"/>
<path d="M166.71 16.8015H175.231L161.483 3.05554H152.964L166.71 16.8015Z" fill="#FD8D26"/>
<path d="M177.377 16.8015H185.123L171.375 3.05554H163.631L177.377 16.8015Z" fill="#FD8D26"/>
</svg>
