<svg width="1440" height="38" viewBox="0 0 1440 38" fill="none" xmlns="http://www.w3.org/2000/svg">
<path d="M9.76942 0.901855L-13 0.901855L2.77007 19.1689L-13 37.4359L9.76942 37.4359L25.5395 19.1689L9.76942 0.901855Z" fill="#35FFE7" fill-opacity="0.96"/>
<path d="M36.6455 0.901855L13.8761 0.901855L29.6462 19.1689L13.8761 37.4359L36.6455 37.4359L52.4158 19.1689L36.6455 0.901855Z" fill="#35FFE7" fill-opacity="0.96"/>
<path d="M63.5217 0.901855L40.7521 0.901855L56.5224 19.1689L40.7521 37.4359L63.5217 37.4359L79.2918 19.1689L63.5217 0.901855Z" fill="#35FFE7" fill-opacity="0.96"/>
<path d="M90.3978 0.901855L67.6284 0.901855L83.3984 19.1689L67.6284 37.4359L90.3978 37.4359L106.168 19.1689L90.3978 0.901855Z" fill="#35FFE7" fill-opacity="0.96"/>
<path d="M117.274 0.901855L94.5044 0.901855L110.274 19.1689L94.5044 37.4359L117.274 37.4359L133.044 19.1689L117.274 0.901855Z" fill="#35FFE7" fill-opacity="0.96"/>
<path d="M144.15 0.901855L121.38 0.901855L137.151 19.1689L121.38 37.4359L144.15 37.4359L159.92 19.1689L144.15 0.901855Z" fill="#35FFE7" fill-opacity="0.96"/>
<path d="M171.026 0.901855L148.257 0.901855L164.027 19.1689L148.257 37.4359L171.026 37.4359L186.796 19.1689L171.026 0.901855Z" fill="#35FFE7" fill-opacity="0.96"/>
<path d="M197.902 0.901855L175.133 0.901855L190.903 19.1689L175.133 37.4359L197.902 37.4359L213.672 19.1689L197.902 0.901855Z" fill="#35FFE7" fill-opacity="0.96"/>
<path d="M224.778 0.901855L202.009 0.901855L217.779 19.1689L202.009 37.4359L224.778 37.4359L240.548 19.1689L224.778 0.901855ZM223.019 35.3975H207.293L221.297 19.1689L207.293 2.94023L223.019 2.94023L237.024 19.1689L223.019 35.3975Z" fill="#35FFE7" fill-opacity="0.96"/>
<path d="M251.661 0.901855L228.891 0.901855L244.661 19.1689L228.891 37.4359L251.661 37.4359L267.431 19.1689L251.661 0.901855ZM249.895 35.3975H234.169L248.18 19.1689L234.169 2.94023L249.895 2.94023L263.9 19.1689L249.895 35.3975Z" fill="#35FFE7" fill-opacity="0.96"/>
<path d="M278.537 0.901855L255.767 0.901855L271.538 19.1689L255.767 37.4359L278.537 37.4359L294.307 19.1689L278.537 0.901855ZM276.778 35.3975H261.051L275.056 19.1689L261.051 2.94023L276.778 2.94023L290.783 19.1689L276.778 35.3975Z" fill="#35FFE7" fill-opacity="0.96"/>
<path d="M305.413 0.901855L282.643 0.901855L298.414 19.1689L282.643 37.4359L305.413 37.4359L321.183 19.1689L305.413 0.901855ZM303.654 35.3975H287.927L301.938 19.1689L287.927 2.94023L303.654 2.94023L317.659 19.1689L303.654 35.3975Z" fill="#35FFE7" fill-opacity="0.96"/>
<path d="M332.289 0.901855L309.52 0.901855L325.29 19.1689L309.52 37.4359L332.289 37.4359L348.059 19.1689L332.289 0.901855ZM330.53 35.3975H314.803L328.814 19.1689L314.803 2.94023L330.53 2.94023L344.535 19.1689L330.53 35.3975Z" fill="#35FFE7" fill-opacity="0.96"/>
<path d="M359.456 0.901855L336.687 0.901855L352.457 19.1689L336.687 37.4359L359.456 37.4359L375.227 19.1689L359.456 0.901855ZM357.697 35.3975H341.964L355.975 19.1689L341.964 2.94023L357.697 2.94023L371.702 19.1689L357.697 35.3975Z" fill="#35FFE7" fill-opacity="0.96"/>
<path d="M386.333 0.901855L363.563 0.901855L379.333 19.1689L363.563 37.4359L386.333 37.4359L402.103 19.1689L386.333 0.901855ZM384.573 35.3975H368.847L382.851 19.1689L368.847 2.94023L384.573 2.94023L398.578 19.1689L384.573 35.3975Z" fill="#35FFE7" fill-opacity="0.96"/>
<path d="M413.215 0.901855L390.445 0.901855L406.215 19.1689L390.445 37.4359L413.215 37.4359L428.985 19.1689L413.215 0.901855ZM411.449 35.3975H395.723L409.734 19.1689L395.723 2.94023L411.449 2.94023L425.454 19.1689L411.449 35.3975Z" fill="#35FFE7" fill-opacity="0.96"/>
<path d="M440.091 0.901855L417.321 0.901855L433.092 19.1689L417.321 37.4359L440.091 37.4359L455.861 19.1689L440.091 0.901855ZM438.332 35.3975H422.605L436.616 19.1689L422.605 2.94023L438.332 2.94023L452.337 19.1689L438.332 35.3975Z" fill="#35FFE7" fill-opacity="0.96"/>
<path d="M466.967 0.901855L444.198 0.901855L459.968 19.1689L444.198 37.4359L466.967 37.4359L482.737 19.1689L466.967 0.901855ZM465.208 35.3975H449.481L463.492 19.1689L449.481 2.94023L465.208 2.94023L479.213 19.1689L465.208 35.3975Z" fill="#35FFE7" fill-opacity="0.96"/>
<path d="M493.843 0.901855L471.074 0.901855L486.844 19.1689L471.074 37.4359L493.843 37.4359L509.613 19.1689L493.843 0.901855ZM492.084 35.3975H476.357L490.368 19.1689L476.357 2.94023L492.084 2.94023L506.089 19.1689L492.084 35.3975Z" fill="#35FFE7" fill-opacity="0.96"/>
<path d="M520.719 0.901855L497.95 0.901855L513.72 19.1689L497.95 37.4359L520.719 37.4359L536.489 19.1689L520.719 0.901855ZM518.96 35.3975H503.227L517.238 19.1689L503.227 2.94023L518.96 2.94023L532.965 19.1689L518.96 35.3975Z" fill="#35FFE7" fill-opacity="0.96"/>
<path d="M547.596 0.901855L524.826 0.901855L540.596 19.1689L524.826 37.4359L547.596 37.4359L563.366 19.1689L547.596 0.901855ZM545.836 35.3975H530.109L544.121 19.1689L530.109 2.94023L545.836 2.94023L559.841 19.1689L545.836 35.3975Z" fill="#35FFE7" fill-opacity="0.96"/>
<path d="M574.472 0.901855L551.702 0.901855L567.472 19.1689L551.702 37.4359L574.472 37.4359L590.242 19.1689L574.472 0.901855ZM572.712 35.3975H556.986L570.997 19.1689L556.986 2.94023L572.712 2.94023L586.717 19.1689L572.712 35.3975Z" fill="#35FFE7" fill-opacity="0.96"/>
<path d="M601.348 0.901855L578.578 0.901855L594.348 19.1689L578.578 37.4359L601.348 37.4359L617.118 19.1689L601.348 0.901855ZM599.589 35.3975H583.862L597.873 19.1689L583.862 2.94023L599.589 2.94023L613.593 19.1689L599.589 35.3975Z" fill="#35FFE7" fill-opacity="0.96"/>
<path d="M628.23 0.901855L605.461 0.901855L621.231 19.1689L605.461 37.4359L628.23 37.4359L644 19.1689L628.23 0.901855ZM626.465 35.3975H610.738L624.743 19.1689L610.738 2.94023L626.465 2.94023L640.469 19.1689L626.465 35.3975Z" fill="#35FFE7" fill-opacity="0.96"/>
<path d="M656.769 0.901855L634 0.901855L649.77 19.1689L634 37.4359L656.769 37.4359L672.54 19.1689L656.769 0.901855ZM655.01 35.3975H639.277L653.288 19.1689L639.277 2.94023L655.01 2.94023L669.015 19.1689L655.01 35.3975Z" fill="#35FFE7" fill-opacity="0.96"/>
<path d="M683.646 0.901855L660.876 0.901855L676.646 19.1689L660.876 37.4359L683.646 37.4359L699.416 19.1689L683.646 0.901855ZM681.887 35.3975H666.16L680.164 19.1689L666.16 2.94023L681.887 2.94023L695.891 19.1689L681.887 35.3975Z" fill="#35FFE7" fill-opacity="0.96"/>
<path d="M710.528 0.901855L687.758 0.901855L703.529 19.1689L687.758 37.4359L710.528 37.4359L726.298 19.1689L710.528 0.901855ZM708.763 35.3975H693.036L707.047 19.1689L693.036 2.94023L708.763 2.94023L722.767 19.1689L708.763 35.3975Z" fill="#35FFE7" fill-opacity="0.96"/>
<path d="M737.404 0.901855L714.635 0.901855L730.405 19.1689L714.635 37.4359L737.404 37.4359L753.174 19.1689L737.404 0.901855ZM735.645 35.3975H719.918L733.929 19.1689L719.918 2.94023L735.645 2.94023L749.65 19.1689L735.645 35.3975Z" fill="#35FFE7" fill-opacity="0.96"/>
<path d="M764.28 0.901855L741.511 0.901855L757.281 19.1689L741.511 37.4359L764.28 37.4359L780.05 19.1689L764.28 0.901855ZM762.521 35.3975H746.794L760.805 19.1689L746.794 2.94023L762.521 2.94023L776.526 19.1689L762.521 35.3975Z" fill="#35FFE7" fill-opacity="0.96"/>
<path d="M791.156 0.901855L768.387 0.901855L784.157 19.1689L768.387 37.4359L791.156 37.4359L806.926 19.1689L791.156 0.901855ZM789.397 35.3975H773.67L787.681 19.1689L773.67 2.94023L789.397 2.94023L803.402 19.1689L789.397 35.3975Z" fill="#35FFE7" fill-opacity="0.96"/>
<path d="M818.032 0.901855L795.263 0.901855L811.033 19.1689L795.263 37.4359L818.032 37.4359L833.802 19.1689L818.032 0.901855ZM816.273 35.3975H800.54L814.551 19.1689L800.54 2.94023L816.273 2.94023L830.278 19.1689L816.273 35.3975Z" fill="#35FFE7" fill-opacity="0.96"/>
<path d="M844.909 0.901855L822.139 0.901855L837.909 19.1689L822.139 37.4359L844.909 37.4359L860.679 19.1689L844.909 0.901855ZM843.149 35.3975H827.423L841.434 19.1689L827.423 2.94023L843.149 2.94023L857.154 19.1689L843.149 35.3975Z" fill="#35FFE7" fill-opacity="0.96"/>
<path d="M871.785 0.901855L849.015 0.901855L864.785 19.1689L849.015 37.4359L871.785 37.4359L887.555 19.1689L871.785 0.901855ZM870.026 35.3975H854.299L868.31 19.1689L854.299 2.94023L870.026 2.94023L884.03 19.1689L870.026 35.3975Z" fill="#35FFE7" fill-opacity="0.96"/>
<path d="M898.661 0.901855L875.891 0.901855L891.661 19.1689L875.891 37.4359L898.661 37.4359L914.431 19.1689L898.661 0.901855ZM896.902 35.3975H881.175L895.186 19.1689L881.175 2.94023L896.902 2.94023L910.906 19.1689L896.902 35.3975Z" fill="#35FFE7" fill-opacity="0.96"/>
<path d="M925.543 0.901855L902.774 0.901855L918.544 19.1689L902.774 37.4359L925.543 37.4359L941.313 19.1689L925.543 0.901855ZM923.778 35.3975H908.051L922.056 19.1689L908.051 2.94023L923.778 2.94023L937.782 19.1689L923.778 35.3975Z" fill="#35FFE7" fill-opacity="0.96"/>
<path d="M952.769 0.901855L930 0.901855L945.77 19.1689L930 37.4359L952.769 37.4359L968.54 19.1689L952.769 0.901855ZM951.01 35.3975H935.277L949.288 19.1689L935.277 2.94023L951.01 2.94023L965.015 19.1689L951.01 35.3975Z" fill="#35FFE7" fill-opacity="0.96"/>
<path d="M979.646 0.901855L956.876 0.901855L972.646 19.1689L956.876 37.4359L979.646 37.4359L995.416 19.1689L979.646 0.901855ZM977.887 35.3975H962.16L976.164 19.1689L962.16 2.94023L977.887 2.94023L991.891 19.1689L977.887 35.3975Z" fill="#35FFE7" fill-opacity="0.96"/>
<path d="M1006.53 0.901855L983.758 0.901855L999.529 19.1689L983.758 37.4359L1006.53 37.4359L1022.3 19.1689L1006.53 0.901855ZM1004.76 35.3975H989.036L1003.05 19.1689L989.036 2.94023L1004.76 2.94023L1018.77 19.1689L1004.76 35.3975Z" fill="#35FFE7" fill-opacity="0.96"/>
<path d="M1033.4 0.901855L1010.63 0.901855L1026.4 19.1689L1010.63 37.4359L1033.4 37.4359L1049.17 19.1689L1033.4 0.901855ZM1031.64 35.3975H1015.92L1029.93 19.1689L1015.92 2.94023L1031.64 2.94023L1045.65 19.1689L1031.64 35.3975Z" fill="#35FFE7" fill-opacity="0.96"/>
<path d="M1060.28 0.901855L1037.51 0.901855L1053.28 19.1689L1037.51 37.4359L1060.28 37.4359L1076.05 19.1689L1060.28 0.901855ZM1058.52 35.3975H1042.79L1056.81 19.1689L1042.79 2.94023L1058.52 2.94023L1072.53 19.1689L1058.52 35.3975Z" fill="#35FFE7" fill-opacity="0.96"/>
<path d="M1087.16 0.901855L1064.39 0.901855L1080.16 19.1689L1064.39 37.4359L1087.16 37.4359L1102.93 19.1689L1087.16 0.901855ZM1085.4 35.3975H1069.67L1083.68 19.1689L1069.67 2.94023L1085.4 2.94023L1099.4 19.1689L1085.4 35.3975Z" fill="#35FFE7" fill-opacity="0.96"/>
<path d="M1114.03 0.901855L1091.26 0.901855L1107.03 19.1689L1091.26 37.4359L1114.03 37.4359L1129.8 19.1689L1114.03 0.901855ZM1112.27 35.3975H1096.54L1110.55 19.1689L1096.54 2.94023L1112.27 2.94023L1126.28 19.1689L1112.27 35.3975Z" fill="#35FFE7" fill-opacity="0.96"/>
<path d="M1140.91 0.901855L1118.14 0.901855L1133.91 19.1689L1118.14 37.4359L1140.91 37.4359L1156.68 19.1689L1140.91 0.901855ZM1139.15 35.3975H1123.42L1137.43 19.1689L1123.42 2.94023L1139.15 2.94023L1153.15 19.1689L1139.15 35.3975Z" fill="#35FFE7" fill-opacity="0.96"/>
<path d="M1167.78 0.901855L1145.02 0.901855L1160.79 19.1689L1145.02 37.4359L1167.78 37.4359L1183.55 19.1689L1167.78 0.901855ZM1166.03 35.3975H1150.3L1164.31 19.1689L1150.3 2.94023L1166.03 2.94023L1180.03 19.1689L1166.03 35.3975Z" fill="#35FFE7" fill-opacity="0.96"/>
<path d="M1194.66 0.901855L1171.89 0.901855L1187.66 19.1689L1171.89 37.4359L1194.66 37.4359L1210.43 19.1689L1194.66 0.901855ZM1192.9 35.3975H1177.17L1191.19 19.1689L1177.17 2.94023L1192.9 2.94023L1206.91 19.1689L1192.9 35.3975Z" fill="#35FFE7" fill-opacity="0.96"/>
<path d="M1221.54 0.901855L1198.77 0.901855L1214.54 19.1689L1198.77 37.4359L1221.54 37.4359L1237.31 19.1689L1221.54 0.901855ZM1219.78 35.3975H1204.05L1218.06 19.1689L1204.05 2.94023L1219.78 2.94023L1233.78 19.1689L1219.78 35.3975Z" fill="#35FFE7" fill-opacity="0.96"/>
<path d="M1248.77 0.901855L1226 0.901855L1241.77 19.1689L1226 37.4359L1248.77 37.4359L1264.54 19.1689L1248.77 0.901855ZM1247.01 35.3975H1231.28L1245.29 19.1689L1231.28 2.94023L1247.01 2.94023L1261.02 19.1689L1247.01 35.3975Z" fill="#35FFE7" fill-opacity="0.96"/>
<path d="M1275.65 0.901855L1252.88 0.901855L1268.65 19.1689L1252.88 37.4359L1275.65 37.4359L1291.42 19.1689L1275.65 0.901855ZM1273.89 35.3975H1258.16L1272.16 19.1689L1258.16 2.94023L1273.89 2.94023L1287.89 19.1689L1273.89 35.3975Z" fill="#35FFE7" fill-opacity="0.96"/>
<path d="M1302.53 0.901855L1279.76 0.901855L1295.53 19.1689L1279.76 37.4359L1302.53 37.4359L1318.3 19.1689L1302.53 0.901855ZM1300.76 35.3975H1285.04L1299.05 19.1689L1285.04 2.94023L1300.76 2.94023L1314.77 19.1689L1300.76 35.3975Z" fill="#35FFE7" fill-opacity="0.96"/>
<path d="M1329.4 0.901855L1306.63 0.901855L1322.4 19.1689L1306.63 37.4359L1329.4 37.4359L1345.17 19.1689L1329.4 0.901855ZM1327.64 35.3975H1311.92L1325.93 19.1689L1311.92 2.94023L1327.64 2.94023L1341.65 19.1689L1327.64 35.3975Z" fill="#35FFE7" fill-opacity="0.96"/>
<path d="M1356.28 0.901855L1333.51 0.901855L1349.28 19.1689L1333.51 37.4359L1356.28 37.4359L1372.05 19.1689L1356.28 0.901855ZM1354.52 35.3975H1338.79L1352.81 19.1689L1338.79 2.94023L1354.52 2.94023L1368.53 19.1689L1354.52 35.3975Z" fill="#35FFE7" fill-opacity="0.96"/>
<path d="M1383.16 0.901855L1360.39 0.901855L1376.16 19.1689L1360.39 37.4359L1383.16 37.4359L1398.93 19.1689L1383.16 0.901855ZM1381.4 35.3975H1365.67L1379.68 19.1689L1365.67 2.94023L1381.4 2.94023L1395.4 19.1689L1381.4 35.3975Z" fill="#35FFE7" fill-opacity="0.96"/>
<path d="M1410.03 0.901855L1387.26 0.901855L1403.03 19.1689L1387.26 37.4359L1410.03 37.4359L1425.8 19.1689L1410.03 0.901855ZM1408.27 35.3975H1392.54L1406.55 19.1689L1392.54 2.94023L1408.27 2.94023L1422.28 19.1689L1408.27 35.3975Z" fill="#35FFE7" fill-opacity="0.96"/>
<path d="M1436.91 0.901855L1414.14 0.901855L1429.91 19.1689L1414.14 37.4359L1436.91 37.4359L1452.68 19.1689L1436.91 0.901855ZM1435.15 35.3975H1419.42L1433.43 19.1689L1419.42 2.94023L1435.15 2.94023L1449.15 19.1689L1435.15 35.3975Z" fill="#35FFE7" fill-opacity="0.96"/>
</svg>

