<svg width="285" height="20" viewBox="0 0 285 20" fill="none" xmlns="http://www.w3.org/2000/svg">
<path d="M274.174 0H9.92857C4.45502 0 0 4.45288 0 9.92857C0 15.4021 4.45502 19.8571 9.92857 19.8571H274.174C279.648 19.8571 284.103 15.4043 284.103 9.92857C284.103 4.45288 279.648 0 274.174 0ZM274.174 18.3293H9.92857C5.28953 18.3293 1.5278 14.5676 1.5278 9.92857C1.5278 5.28953 5.28953 1.52781 9.92857 1.52781H274.174C278.813 1.52781 282.575 5.28953 282.575 9.92857C282.575 14.5676 278.813 18.3293 274.174 18.3293Z" fill="#35FFE7" fill-opacity="0.96"/>
<path d="M9.97993 16.9106C13.8242 16.9106 16.9406 13.7942 16.9406 9.94994C16.9406 6.10565 13.8242 2.98926 9.97993 2.98926C6.13564 2.98926 3.01923 6.10565 3.01923 9.94994C3.01923 13.7942 6.13564 16.9106 9.97993 16.9106Z" fill="#35FFE7" fill-opacity="0.96"/>
<path d="M25.1958 16.9106C29.0401 16.9106 32.1565 13.7942 32.1565 9.94994C32.1565 6.10565 29.0401 2.98926 25.1958 2.98926C21.3515 2.98926 18.2351 6.10565 18.2351 9.94994C18.2351 13.7942 21.3515 16.9106 25.1958 16.9106Z" fill="#35FFE7" fill-opacity="0.96"/>
<path d="M40.4096 16.9129C44.2551 16.9129 47.3724 13.7955 47.3724 9.95002C47.3724 6.10455 44.2551 2.98718 40.4096 2.98718C36.5641 2.98718 33.4468 6.10455 33.4468 9.95002C33.4468 13.7955 36.5641 16.9129 40.4096 16.9129Z" fill="#35FFE7" fill-opacity="0.96"/>
<path d="M55.6254 16.9129C59.4709 16.9129 62.5883 13.7955 62.5883 9.95002C62.5883 6.10455 59.4709 2.98718 55.6254 2.98718C51.78 2.98718 48.6626 6.10455 48.6626 9.95002C48.6626 13.7955 51.78 16.9129 55.6254 16.9129Z" fill="#35FFE7" fill-opacity="0.96"/>
<path d="M70.8395 16.9129C74.685 16.9129 77.8024 13.7955 77.8024 9.95002C77.8024 6.10455 74.685 2.98718 70.8395 2.98718C66.9941 2.98718 63.8767 6.10455 63.8767 9.95002C63.8767 13.7955 66.9941 16.9129 70.8395 16.9129Z" fill="#35FFE7" fill-opacity="0.96"/>
<path d="M86.0553 16.9106C89.8996 16.9106 93.016 13.7942 93.016 9.94994C93.016 6.10565 89.8996 2.98926 86.0553 2.98926C82.211 2.98926 79.0946 6.10565 79.0946 9.94994C79.0946 13.7942 82.211 16.9106 86.0553 16.9106Z" fill="#35FFE7" fill-opacity="0.96"/>
<path d="M101.269 16.9106C105.113 16.9106 108.23 13.7942 108.23 9.94994C108.23 6.10565 105.113 2.98926 101.269 2.98926C97.4249 2.98926 94.3085 6.10565 94.3085 9.94994C94.3085 13.7942 97.4249 16.9106 101.269 16.9106Z" fill="#35FFE7" fill-opacity="0.96"/>
<path d="M109.522 9.94993C109.522 6.10475 112.64 2.98926 116.485 2.98926C120.33 2.98926 123.448 6.10689 123.448 9.94993C123.448 13.7951 120.33 16.9106 116.485 16.9106C112.64 16.9128 109.522 13.7951 109.522 9.94993Z" fill="#35FFE7" fill-opacity="0.96"/>
</svg>
