<svg width="80" height="80" viewBox="0 0 80 80" fill="none" xmlns="http://www.w3.org/2000/svg">
<circle cx="39" cy="38" r="32" fill="#02232E"/>
<path d="M76.9534 36.4518C78.8309 33.3757 79.2004 29.4135 77.5797 25.8124C76.1223 22.5738 73.371 20.3476 70.2461 19.4525C67.8384 15.5638 64.72 12.1549 61.0701 9.40895C61.5589 8.11401 61.3229 6.69525 60.3388 5.82594C59.1148 4.7451 57.1829 4.90761 55.8253 6.1213C52.2143 4.25627 48.2571 2.96907 44.073 2.38738C43.2846 0.995709 41.284 0 38.9099 0C36.5242 0 34.5079 1.00474 33.7261 2.40544C29.2917 3.03872 25.1115 4.46135 21.3345 6.52758C21.3383 6.5005 21.35 6.47084 21.3513 6.44504C18.338 5.23007 13.8777 6.63721 10.4664 10.1467C7.667 13.0255 6.31982 16.5569 6.65304 19.3648C4.40344 19.5286 2.2096 20.8558 0.959681 23.0884C-0.86334 26.3464 -0.00759511 30.3034 2.83585 32.1568C2.46632 34.2308 2.26277 36.3602 2.26277 38.5374C2.26277 44.0499 3.50489 49.2774 5.713 53.9683C4.36324 56.6653 4.73021 60.0651 6.92536 62.5028C8.72504 64.5007 11.304 65.3468 13.7416 65.0218C17.6703 68.7273 22.4158 71.579 27.6839 73.2764C28.257 77.0528 33.0635 80 38.9086 80C44.7264 80 49.5031 77.0761 50.1099 73.3254C55.3625 71.6564 60.1002 68.8408 64.0328 65.1765C65.3385 66.0691 66.9994 66.1142 68.1015 65.1559C69.3761 64.0467 69.4189 62.0204 68.261 60.5101C70.7674 57.2108 72.7265 53.4795 73.9985 49.4464C76.7771 49.1046 79.207 46.8926 79.8423 43.7945C80.4595 40.8048 79.2173 37.908 76.9534 36.4518ZM78.7467 43.5714C78.2215 46.129 76.2598 48.0444 73.8636 48.3397L73.1479 48.4274L72.9327 49.1123C71.7152 52.9726 69.8442 56.5827 67.3703 59.8381L66.8581 60.5127L67.3729 61.1859C68.1781 62.2384 68.1755 63.6146 67.3664 64.3188C66.9593 64.6722 66.486 64.7483 66.1606 64.7483C65.6601 64.747 65.131 64.5755 64.6707 64.2608L63.9278 63.7539L63.2704 64.3666C59.4208 67.9521 54.753 70.6839 49.7715 72.2677L49.1154 72.4754L49.0065 73.1513C48.4853 76.368 44.0509 78.8895 38.9112 78.8895C33.73 78.8895 29.2865 76.3525 28.7951 73.1139L28.6914 72.4316L28.0314 72.2187C23.0317 70.6078 18.3575 67.8412 14.5144 64.2169L14.1254 63.8493L13.5937 63.9203C13.3046 63.9577 13.0142 63.9783 12.7224 63.9783C10.8385 63.9783 9.02973 63.1709 7.76165 61.7625C5.92955 59.7259 5.51854 56.8626 6.7179 54.4675L6.95903 53.9864L6.72957 53.4989C4.50979 48.7847 3.38562 43.7507 3.38562 38.54C3.38562 36.5047 3.57232 34.4243 3.94185 32.3542L4.07021 31.6306L3.45174 31.2282C1.08415 29.6843 0.421577 26.3489 1.94119 23.6327C2.96551 21.8025 4.75742 20.6236 6.73733 20.4792L7.90556 20.394L7.76814 19.2371C7.45955 16.6498 8.80283 13.4653 11.2729 10.9245C13.5808 8.55125 16.467 7.12733 18.9967 7.13378C20.2129 7.13636 21.4836 7.66904 21.4836 7.66904C25.2217 5.62345 29.6534 4.11698 33.8868 3.51207L34.4366 3.4321L34.7063 2.94844C35.3092 1.87018 37.0376 1.11695 38.9099 1.11695C40.7679 1.11695 42.4898 1.86631 43.0966 2.93683L43.3689 3.41662L43.9186 3.49273C47.9018 4.04734 51.7346 5.2636 55.3093 7.11186L55.9978 7.46655L56.5748 6.95192C57.0947 6.4876 57.7495 6.2219 58.3719 6.2219C58.7025 6.2219 59.1835 6.29801 59.5945 6.66172C60.1936 7.19053 60.3608 8.11659 60.0198 9.01944L59.7255 9.79847L60.392 10.3015C63.9563 12.9842 66.9502 16.2603 69.2892 20.0406L69.5174 20.4069L69.9336 20.5269C72.8782 21.3704 75.2912 23.465 76.5554 26.2716C77.9635 29.4006 77.7534 32.9913 75.994 35.8766L75.4286 36.8013L76.3428 37.3908C78.2851 38.6354 79.251 41.1221 78.7467 43.5714Z" fill="#35FFE7" fill-opacity="0.96"/>
<path d="M39.2416 5.09325C20.8558 5.09325 5.89819 19.9722 5.89819 38.2613C5.89819 56.5504 20.8558 71.4293 39.2416 71.4293C57.6274 71.4293 72.585 56.5504 72.585 38.2613C72.585 19.9722 57.6274 5.09325 39.2416 5.09325ZM39.2416 69.198C22.0927 69.198 8.14002 55.3199 8.14002 38.26C8.14002 21.2 22.0914 7.32199 39.2416 7.32199C56.3917 7.32199 70.3431 21.2 70.3431 38.26C70.3431 55.3199 56.3904 69.198 39.2416 69.198Z" fill="#35FFE7" fill-opacity="0.96"/>
<path d="M34.2238 32.08L32.3438 30.12L37.9838 24H42.6638V52H39.5438V27.28C39.5438 26.7467 39.5838 26.4 39.6638 26.24L39.5438 26.12L34.2238 32.08Z" fill="#35FFE7" fill-opacity="0.96"/>
</svg>
