<svg width="80" height="80" viewBox="0 0 80 80" fill="none" xmlns="http://www.w3.org/2000/svg">
<path d="M39.6628 3.95001C19.5732 3.95001 3.22998 20.12 3.22998 39.9965C3.22998 59.8731 19.5732 76.0431 39.6628 76.0431C59.7524 76.0431 76.0957 59.8731 76.0957 39.9965C76.0957 20.12 59.7524 3.95001 39.6628 3.95001ZM39.6628 73.8415C20.801 73.8415 5.45516 58.6584 5.45516 39.9965C5.45516 21.3347 20.801 6.15159 39.6628 6.15159C58.5246 6.15159 73.8705 21.3347 73.8705 39.9965C73.8705 58.6584 58.5246 73.8415 39.6628 73.8415Z" fill="#35FFE7" fill-opacity="0.96"/>
<path d="M41 1.30643C41 0.584456 40.4092 0 39.6795 0C38.9498 0 38.3591 0.584456 38.3591 1.30643C38.3591 2.02841 38.9511 2.61286 39.6795 2.61286C40.4079 2.61286 41 2.02841 41 1.30643Z" fill="#35FFE7" fill-opacity="0.96"/>
<path d="M36.8933 1.38272C36.8173 0.664564 36.1674 0.145047 35.4415 0.220173C34.7157 0.295299 34.1893 0.938327 34.2666 1.65648C34.3425 2.37464 34.9924 2.89415 35.7183 2.81903C36.4428 2.74263 36.9692 2.0996 36.8933 1.38272Z" fill="#35FFE7" fill-opacity="0.96"/>
<path d="M32.8172 1.88192C32.6654 1.1765 31.964 0.725743 31.251 0.875995C30.538 1.02625 30.0824 1.72021 30.2343 2.42563C30.3861 3.13105 31.0876 3.58181 31.8005 3.43156C32.5135 3.28258 32.9691 2.58862 32.8172 1.88192Z" fill="#35FFE7" fill-opacity="0.96"/>
<path d="M28.8161 2.80135C28.5909 2.11503 27.8457 1.7394 27.152 1.96223C26.4584 2.18506 26.0787 2.92232 26.3039 3.60864C26.5291 4.29496 27.2743 4.67059 27.968 4.44776C28.6629 4.22493 29.0426 3.48767 28.8161 2.80135Z" fill="#35FFE7" fill-opacity="0.96"/>
<path d="M17.6968 7.94805C17.2682 7.36487 16.442 7.23499 15.8526 7.65901C15.2632 8.08303 15.1319 8.9005 15.5604 9.48368C15.989 10.0669 16.8152 10.1967 17.4047 9.77273C17.9954 9.34871 18.1254 8.53251 17.6968 7.94805Z" fill="#35FFE7" fill-opacity="0.96"/>
<path d="M11.4202 13.1725C10.8783 12.6899 10.0431 12.7332 9.55532 13.2693C9.06756 13.8054 9.11131 14.6317 9.65312 15.1143C10.1949 15.5969 11.0302 15.5536 11.5179 15.0176C12.0057 14.4815 11.962 13.6551 11.4202 13.1725Z" fill="#35FFE7" fill-opacity="0.96"/>
<path d="M8.72912 16.2424C8.13969 15.8184 7.31344 15.947 6.88488 16.5314C6.45632 17.1159 6.58761 17.9321 7.17705 18.3561C7.76648 18.7801 8.59269 18.6515 9.02125 18.0671C9.44981 17.4826 9.31984 16.6664 8.72912 16.2424Z" fill="#35FFE7" fill-opacity="0.96"/>
<path d="M6.37769 19.5749C5.74579 19.2145 4.93885 19.4285 4.57335 20.0537C4.20914 20.6789 4.42536 21.4772 5.05726 21.8389C5.68916 22.1992 6.49606 21.9853 6.86156 21.3601C7.22578 20.7349 7.00959 19.9352 6.37769 19.5749Z" fill="#35FFE7" fill-opacity="0.96"/>
<path d="M4.39086 23.1313C3.72421 22.8384 2.94429 23.1338 2.647 23.7934C2.351 24.453 2.6496 25.2246 3.31625 25.5188C3.9829 25.8129 4.76278 25.5162 5.06007 24.8566C5.35736 24.197 5.05751 23.4241 4.39086 23.1313Z" fill="#35FFE7" fill-opacity="0.96"/>
<path d="M2.79097 26.8737C2.0973 26.6508 1.35214 27.0265 1.12692 27.7128C0.901702 28.3991 1.28135 29.1364 1.97503 29.3592C2.66871 29.582 3.41386 29.2064 3.63908 28.5201C3.8643 27.8338 3.48465 27.0965 2.79097 26.8737Z" fill="#35FFE7" fill-opacity="0.96"/>
<path d="M1.59545 30.761C0.882472 30.6108 0.18106 31.0615 0.0291973 31.7669C-0.122665 32.4723 0.332933 33.1663 1.04591 33.3166C1.7589 33.4668 2.46031 33.0161 2.61217 32.3106C2.76403 31.6052 2.30843 30.9113 1.59545 30.761Z" fill="#35FFE7" fill-opacity="0.96"/>
<path d="M1.04591 46.8954C0.332933 47.0457 -0.122665 47.7396 0.0291973 48.445C0.18106 49.1505 0.882472 49.6012 1.59545 49.451C2.30843 49.3007 2.76403 48.6068 2.61217 47.9013C2.46031 47.1959 1.7589 46.7452 1.04591 46.8954Z" fill="#35FFE7" fill-opacity="0.96"/>
<path d="M1.97503 50.8527C1.28135 51.0756 0.901702 51.8128 1.12692 52.4991C1.35214 53.1855 2.0973 53.5611 2.79097 53.3383C3.48465 53.1154 3.8643 52.3782 3.63908 51.6919C3.41386 51.0055 2.66871 50.6299 1.97503 50.8527Z" fill="#35FFE7" fill-opacity="0.96"/>
<path d="M3.31625 54.6932C2.6496 54.986 2.351 55.7589 2.647 56.4185C2.94429 57.0781 3.72421 57.3748 4.39086 57.0806C5.05751 56.7878 5.35736 56.0149 5.06007 55.3553C4.76278 54.6957 3.9829 54.4003 3.31625 54.6932Z" fill="#35FFE7" fill-opacity="0.96"/>
<path d="M5.05726 58.3744C4.42536 58.7347 4.20914 59.5344 4.57335 60.1596C4.93756 60.7848 5.74579 60.9987 6.37769 60.6371C7.00959 60.2767 7.22578 59.4771 6.86156 58.8519C6.49606 58.2279 5.68916 58.014 5.05726 58.3744Z" fill="#35FFE7" fill-opacity="0.96"/>
<path d="M12.4574 68.0654C11.9697 68.6015 12.0134 69.4279 12.5552 69.9105C13.097 70.3931 13.9323 70.3498 14.42 69.8137C14.9078 69.2776 14.8641 68.4512 14.3223 67.9687C13.7804 67.4861 12.9452 67.5294 12.4574 68.0654Z" fill="#35FFE7" fill-opacity="0.96"/>
<path d="M15.5604 70.7281C15.1319 71.3113 15.2632 72.1288 15.8526 72.5528C16.442 72.9768 17.2682 72.847 17.6968 72.2638C18.1254 71.6806 17.9954 70.8631 17.4047 70.4391C16.8152 70.0151 15.989 70.1437 15.5604 70.7281Z" fill="#35FFE7" fill-opacity="0.96"/>
<path d="M18.9271 73.0545C18.5629 73.6797 18.7791 74.4781 19.411 74.8397C20.0429 75.2001 20.8499 74.9862 21.2154 74.361C21.5796 73.7357 21.3634 72.9374 20.7315 72.5757C20.0995 72.2154 19.2926 72.4293 18.9271 73.0545Z" fill="#35FFE7" fill-opacity="0.96"/>
<path d="M22.5227 75.0192C22.2267 75.6788 22.5253 76.4504 23.192 76.7446C23.8586 77.0387 24.6385 76.742 24.9358 76.0824C25.2318 75.4228 24.9332 74.6512 24.2666 74.3571C23.5999 74.0629 22.8187 74.3609 22.5227 75.0192Z" fill="#35FFE7" fill-opacity="0.96"/>
<path d="M34.2663 78.5567C34.1904 79.2748 34.7167 79.9179 35.4413 79.993C36.1672 80.0681 36.8171 79.5473 36.893 78.8304C36.969 78.1123 36.4426 77.4705 35.718 77.3941C34.9922 77.319 34.3422 77.8385 34.2663 78.5567Z" fill="#35FFE7" fill-opacity="0.96"/>
<path d="M42.4646 78.8291C42.5405 79.5473 43.1904 80.0681 43.9163 79.9917C44.6421 79.9166 45.1672 79.2735 45.0913 78.5554C45.0154 77.8372 44.3654 77.3177 43.6396 77.3928C42.915 77.4692 42.3886 78.1123 42.4646 78.8291Z" fill="#35FFE7" fill-opacity="0.96"/>
<path d="M46.5404 78.3301C46.6923 79.0355 47.3937 79.4862 48.1066 79.336C48.8196 79.1857 49.2752 78.4918 49.1234 77.7863C48.9715 77.0809 48.2701 76.6302 47.5571 76.7804C46.8441 76.9294 46.3886 77.6234 46.5404 78.3301Z" fill="#35FFE7" fill-opacity="0.96"/>
<path d="M54.4229 76.0826C54.719 76.7422 55.5001 77.0376 56.1668 76.7448C56.8334 76.4519 57.1333 75.679 56.836 75.0194C56.54 74.3598 55.7588 74.0631 55.0922 74.3573C54.4255 74.6514 54.1257 75.423 54.4229 76.0826Z" fill="#35FFE7" fill-opacity="0.96"/>
<path d="M61.6608 72.2637C62.0893 72.8482 62.9155 72.9768 63.505 72.5528C64.0944 72.1287 64.2257 71.3113 63.7971 70.7281C63.3686 70.1449 62.5423 70.015 61.9529 70.439C61.3635 70.8631 61.2322 71.6793 61.6608 72.2637Z" fill="#35FFE7" fill-opacity="0.96"/>
<path d="M64.9376 69.8137C65.4254 70.3498 66.2606 70.3931 66.8025 69.9105C67.3443 69.4279 67.388 68.6015 66.9003 68.0654C66.4125 67.5294 65.5773 67.4861 65.0355 67.9687C64.4937 68.4512 64.4499 69.2776 64.9376 69.8137Z" fill="#35FFE7" fill-opacity="0.96"/>
<path d="M67.9387 67.0394C68.4806 67.522 69.3158 67.4787 69.8036 66.9426C70.2913 66.4065 70.2476 65.5802 69.7058 65.0976C69.164 64.615 68.3287 64.6583 67.841 65.1943C67.3519 65.7304 67.3956 66.5568 67.9387 67.0394Z" fill="#35FFE7" fill-opacity="0.96"/>
<path d="M70.6284 63.9691C71.2179 64.3932 72.0441 64.2633 72.4727 63.6801C72.9012 63.0969 72.77 62.2794 72.1806 61.8554C71.5911 61.4314 70.7649 61.56 70.3363 62.1445C69.9077 62.7289 70.039 63.5451 70.6284 63.9691Z" fill="#35FFE7" fill-opacity="0.96"/>
<path d="M74.9669 57.0806C75.6336 57.3747 76.4135 57.078 76.7108 56.4184C77.0081 55.7589 76.7082 54.9872 76.0416 54.6931C75.3749 54.399 74.595 54.6956 74.2977 55.3552C74.0004 56.0148 74.3003 56.7877 74.9669 57.0806Z" fill="#35FFE7" fill-opacity="0.96"/>
<path d="M77.7634 49.451C78.4764 49.6012 79.1778 49.1505 79.3296 48.445C79.4815 47.7396 79.0259 47.0457 78.3129 46.8954C77.6 46.7452 76.8985 47.1959 76.7467 47.9013C76.5935 48.6068 77.0491 49.3007 77.7634 49.451Z" fill="#35FFE7" fill-opacity="0.96"/>
<path d="M78.8176 37.3494C79.5435 37.2742 80.0698 36.6312 79.9926 35.9131C79.9167 35.1949 79.2668 34.6754 78.5409 34.7505C77.8151 34.8256 77.29 35.4687 77.3659 36.1868C77.4432 36.905 78.0918 37.4258 78.8176 37.3494Z" fill="#35FFE7" fill-opacity="0.96"/>
<path d="M78.3117 33.3166C79.0247 33.1663 79.4803 32.4723 79.3284 31.7669C79.1766 31.0615 78.4752 30.6108 77.7622 30.761C77.0492 30.9113 76.5936 31.6052 76.7455 32.3106C76.8974 33.0161 77.5987 33.4668 78.3117 33.3166Z" fill="#35FFE7" fill-opacity="0.96"/>
<path d="M74.3015 21.8376C74.9334 21.4772 75.1496 20.6776 74.7854 20.0524C74.4212 19.4272 73.613 19.2133 72.9811 19.5736C72.3492 19.934 72.133 20.7336 72.4972 21.3588C72.8614 21.984 73.6696 22.1979 74.3015 21.8376Z" fill="#35FFE7" fill-opacity="0.96"/>
<path d="M72.1817 18.3573C72.7712 17.9333 72.9025 17.1158 72.4739 16.5326C72.0453 15.9495 71.2191 15.8196 70.6297 16.2436C70.0402 16.6676 69.909 17.4851 70.3375 18.0683C70.7661 18.6515 71.591 18.7813 72.1817 18.3573Z" fill="#35FFE7" fill-opacity="0.96"/>
<path d="M69.7058 15.1143C70.2476 14.6317 70.2914 13.8054 69.8036 13.2693C69.3158 12.7332 68.4806 12.6899 67.9388 13.1725C67.397 13.6551 67.3532 14.4815 67.841 15.0176C68.3287 15.5549 69.164 15.5982 69.7058 15.1143Z" fill="#35FFE7" fill-opacity="0.96"/>
<path d="M66.9003 12.1465C67.388 11.6104 67.3443 10.784 66.8025 10.3014C66.2606 9.81883 65.4254 9.86212 64.9376 10.3982C64.4499 10.9343 64.4937 11.7607 65.0355 12.2432C65.5773 12.7258 66.4125 12.6825 66.9003 12.1465Z" fill="#35FFE7" fill-opacity="0.96"/>
<path d="M56.836 5.19268C57.132 4.53309 56.8334 3.76146 56.1668 3.46732C55.5001 3.17318 54.7202 3.46987 54.4229 4.12945C54.1257 4.78903 54.4255 5.56067 55.0922 5.8548C55.7588 6.14767 56.5387 5.85098 56.836 5.19268Z" fill="#35FFE7" fill-opacity="0.96"/>
<path d="M53.0537 3.60864C53.2789 2.92232 52.8992 2.18506 52.2055 1.96223C51.5118 1.7394 50.7667 2.11503 50.5415 2.80135C50.3162 3.48767 50.6959 4.22493 51.3896 4.44776C52.0833 4.67059 52.8284 4.29496 53.0537 3.60864Z" fill="#35FFE7" fill-opacity="0.96"/>
<path d="M45.0913 1.65519C45.1672 0.937032 44.6409 0.294003 43.9163 0.218877C43.1904 0.143751 42.5405 0.66454 42.4646 1.38142C42.3886 2.09958 42.915 2.74261 43.6396 2.81773C44.3654 2.89286 45.0154 2.37334 45.0913 1.65519Z" fill="#35FFE7" fill-opacity="0.96"/>
<path d="M40.6884 8.6892C40.6884 8.10729 40.2109 7.63489 39.6227 7.63489C39.0346 7.63489 38.5571 8.10729 38.5571 8.6892C38.5571 9.27111 39.0346 9.74351 39.6227 9.74351C40.2122 9.74224 40.6884 9.27111 40.6884 8.6892Z" fill="#35FFE7" fill-opacity="0.96"/>
<path d="M37.3759 8.75032C37.3141 8.17095 36.7903 7.75076 36.2047 7.81188C35.6191 7.87299 35.1944 8.39124 35.2562 8.9706C35.318 9.54996 35.8418 9.97016 36.4274 9.90904C37.0129 9.84792 37.4376 9.32841 37.3759 8.75032Z" fill="#35FFE7" fill-opacity="0.96"/>
<path d="M34.0861 9.15406C33.9639 8.58488 33.3976 8.22071 32.8223 8.34168C32.247 8.46264 31.879 9.02291 32.0012 9.59208C32.1235 10.1613 32.6897 10.5254 33.265 10.4045C33.8416 10.2835 34.2084 9.72323 34.0861 9.15406Z" fill="#35FFE7" fill-opacity="0.96"/>
<path d="M30.8585 9.89531C30.6771 9.34141 30.0761 9.03836 29.5162 9.2179C28.9564 9.39743 28.6501 9.99208 28.8315 10.546C29.013 11.0999 29.614 11.4029 30.1739 11.2234C30.7337 11.0438 31.04 10.4492 30.8585 9.89531Z" fill="#35FFE7" fill-opacity="0.96"/>
<path d="M27.7261 10.9661C27.4867 10.4339 26.8574 10.1945 26.3194 10.4313C25.7815 10.6682 25.5395 11.2908 25.7789 11.8231C26.0183 12.3553 26.6476 12.5947 27.1856 12.3579C27.7235 12.1223 27.9654 11.4984 27.7261 10.9661Z" fill="#35FFE7" fill-opacity="0.96"/>
<path d="M16.8216 18.2635C16.3841 17.8739 15.711 17.9082 15.3172 18.3412C14.9234 18.7741 14.9581 19.44 15.3957 19.8297C15.8333 20.2193 16.5063 20.1849 16.9002 19.752C17.294 19.3203 17.2592 18.6531 16.8216 18.2635Z" fill="#35FFE7" fill-opacity="0.96"/>
<path d="M14.6506 20.7413C14.1744 20.3988 13.5078 20.5032 13.1616 20.9743C12.8154 21.4455 12.9209 22.105 13.3971 22.4476C13.8732 22.7901 14.5399 22.6857 14.8848 22.2146C15.2323 21.7421 15.1268 21.0838 14.6506 20.7413Z" fill="#35FFE7" fill-opacity="0.96"/>
<path d="M12.7523 23.4292C12.2427 23.1376 11.5914 23.3108 11.2967 23.8151C11.002 24.3193 11.177 24.9636 11.6867 25.2552C12.1963 25.5468 12.8475 25.3736 13.1422 24.8694C13.4369 24.3651 13.2619 23.7208 12.7523 23.4292Z" fill="#35FFE7" fill-opacity="0.96"/>
<path d="M11.1499 26.2992C10.6119 26.0624 9.98261 26.3018 9.74324 26.834C9.50386 27.3663 9.74583 27.9889 10.2838 28.2257C10.8217 28.4626 11.451 28.2232 11.6904 27.6909C11.9285 27.1587 11.6865 26.536 11.1499 26.2992Z" fill="#35FFE7" fill-opacity="0.96"/>
<path d="M8.26574 35.6747C7.68017 35.6136 7.15637 36.0338 7.09459 36.6132C7.03282 37.1925 7.45756 37.7108 8.04313 37.7719C8.6287 37.833 9.15246 37.4128 9.21424 36.8335C9.27472 36.2541 8.85002 35.7358 8.26574 35.6747Z" fill="#35FFE7" fill-opacity="0.96"/>
<path d="M7.98017 38.9422C7.39202 38.9422 6.91455 39.4146 6.91455 39.9965C6.91455 40.5784 7.39202 41.0508 7.98017 41.0508C8.56831 41.0508 9.04578 40.5784 9.04578 39.9965C9.04578 39.4133 8.5696 38.9422 7.98017 38.9422Z" fill="#35FFE7" fill-opacity="0.96"/>
<path d="M8.44976 45.4744C7.87448 45.5954 7.50641 46.1557 7.62867 46.7248C7.75093 47.294 8.31719 47.6582 8.89247 47.5372C9.46774 47.4162 9.83582 46.856 9.71355 46.2868C9.59258 45.7164 9.02632 45.3535 8.44976 45.4744Z" fill="#35FFE7" fill-opacity="0.96"/>
<path d="M11.6867 54.7366C11.177 55.0282 11.002 55.6725 11.2967 56.1767C11.5914 56.681 12.2427 56.8541 12.7523 56.5626C13.2619 56.271 13.4369 55.6267 13.1422 55.1224C12.8488 54.6182 12.1963 54.445 11.6867 54.7366Z" fill="#35FFE7" fill-opacity="0.96"/>
<path d="M17.658 62.5561C17.2642 62.9891 17.2989 63.655 17.7365 64.0446C18.1741 64.4343 18.8472 64.3999 19.241 63.967C19.6348 63.534 19.6 62.8681 19.1625 62.4785C18.7262 62.0888 18.0518 62.1232 17.658 62.5561Z" fill="#35FFE7" fill-opacity="0.96"/>
<path d="M28.8315 69.4448C28.6501 69.9987 28.9564 70.5933 29.5162 70.7729C30.0761 70.9524 30.6771 70.6494 30.8585 70.0955C31.04 69.5416 30.7337 68.9469 30.1739 68.7674C29.6153 68.5879 29.013 68.8909 28.8315 69.4448Z" fill="#35FFE7" fill-opacity="0.96"/>
<path d="M32.0025 70.3997C31.8802 70.9688 32.247 71.5291 32.8236 71.6501C33.3989 71.771 33.9652 71.4081 34.0874 70.8377C34.2097 70.2685 33.8416 69.7082 33.2663 69.5873C32.6898 69.4663 32.1248 69.8305 32.0025 70.3997Z" fill="#35FFE7" fill-opacity="0.96"/>
<path d="M38.5571 71.3039C38.5571 71.8858 39.0346 72.3582 39.6227 72.3582C40.2109 72.3582 40.6884 71.8858 40.6884 71.3039C40.6884 70.722 40.2109 70.2496 39.6227 70.2496C39.0346 70.2496 38.5571 70.7207 38.5571 71.3039Z" fill="#35FFE7" fill-opacity="0.96"/>
<path d="M45.1594 70.8377C45.2817 71.4069 45.848 71.771 46.4232 71.6501C46.9985 71.5291 47.3666 70.9688 47.2443 70.3997C47.1221 69.8305 46.5558 69.4663 45.9805 69.5873C45.4052 69.7095 45.0372 70.2685 45.1594 70.8377Z" fill="#35FFE7" fill-opacity="0.96"/>
<path d="M51.5196 69.026C51.759 69.5583 52.3883 69.7977 52.9263 69.5608C53.4642 69.324 53.7062 68.7013 53.4668 68.1691C53.2274 67.6368 52.5981 67.3975 52.0602 67.6343C51.5222 67.8711 51.2802 68.4938 51.5196 69.026Z" fill="#35FFE7" fill-opacity="0.96"/>
<path d="M54.5221 67.6368C54.8168 68.1411 55.468 68.3142 55.9776 68.0227C56.4872 67.7311 56.6623 67.0868 56.3676 66.5825C56.0729 66.0783 55.4217 65.9051 54.912 66.1967C54.4024 66.487 54.2273 67.1326 54.5221 67.6368Z" fill="#35FFE7" fill-opacity="0.96"/>
<path d="M57.3599 65.9444C57.706 66.4155 58.3727 66.52 58.8489 66.1774C59.3251 65.8349 59.4306 65.1753 59.0844 64.7055C58.7382 64.2343 58.0716 64.1299 57.5954 64.4725C57.1205 64.8137 57.0149 65.4733 57.3599 65.9444Z" fill="#35FFE7" fill-opacity="0.96"/>
<path d="M64.5966 59.2504C65.0727 59.593 65.7394 59.4885 66.0843 59.0174C66.4305 58.5463 66.3249 57.8867 65.8488 57.5455C65.3726 57.2029 64.7059 57.3073 64.361 57.7785C64.0148 58.2496 64.1204 58.9092 64.5966 59.2504Z" fill="#35FFE7" fill-opacity="0.96"/>
<path d="M66.4935 56.5626C67.0031 56.8541 67.6543 56.681 67.949 56.1767C68.2437 55.6725 68.0687 55.0282 67.5591 54.7366C67.0495 54.445 66.3982 54.6182 66.1035 55.1224C65.8101 55.6267 65.9838 56.271 66.4935 56.5626Z" fill="#35FFE7" fill-opacity="0.96"/>
<path d="M68.097 53.6923C68.635 53.9291 69.2643 53.6898 69.5037 53.1575C69.743 52.6253 69.5011 52.0026 68.9632 51.7658C68.4252 51.5289 67.7958 51.7683 67.5565 52.3006C67.3171 52.8328 67.5591 53.4555 68.097 53.6923Z" fill="#35FFE7" fill-opacity="0.96"/>
<path d="M69.3878 50.6733C69.9476 50.8529 70.5487 50.5498 70.7301 49.9959C70.9116 49.442 70.6053 48.8474 70.0454 48.6678C69.4856 48.4883 68.8846 48.7914 68.7031 49.3453C68.5217 49.8979 68.828 50.4925 69.3878 50.6733Z" fill="#35FFE7" fill-opacity="0.96"/>
<path d="M70.3531 47.5359C70.9284 47.6569 71.4946 47.294 71.6169 46.7235C71.7391 46.1531 71.3723 45.5941 70.7958 45.4731C70.2205 45.3522 69.6543 45.7151 69.532 46.2855C69.4097 46.856 69.7778 47.415 70.3531 47.5359Z" fill="#35FFE7" fill-opacity="0.96"/>
<path d="M70.9811 44.3168C71.5667 44.3779 72.0905 43.9577 72.1523 43.3783C72.214 42.799 71.7893 42.2807 71.2038 42.2196C70.6182 42.1585 70.0944 42.5787 70.0326 43.158C69.9721 43.7374 70.3955 44.2556 70.9811 44.3168Z" fill="#35FFE7" fill-opacity="0.96"/>
<path d="M71.2668 41.0508C71.8553 41.0508 72.3324 40.5788 72.3324 39.9965C72.3324 39.4142 71.8553 38.9422 71.2668 38.9422C70.6783 38.9422 70.2012 39.4142 70.2012 39.9965C70.2012 40.5788 70.6783 41.0508 71.2668 41.0508Z" fill="#35FFE7" fill-opacity="0.96"/>
<path d="M71.204 37.7719C71.7895 37.7108 72.2142 37.1925 72.1525 36.6132C72.0907 36.0338 71.5669 35.6136 70.9813 35.6747C70.3957 35.7358 69.9711 36.2541 70.0328 36.8335C70.0946 37.4128 70.6197 37.833 71.204 37.7719Z" fill="#35FFE7" fill-opacity="0.96"/>
<path d="M68.9643 28.2257C69.5023 27.9889 69.7443 27.3663 69.5049 26.834C69.2655 26.3018 68.6362 26.0624 68.0982 26.2992C67.5603 26.536 67.3183 27.16 67.5577 27.6909C67.7958 28.2232 68.4264 28.4626 68.9643 28.2257Z" fill="#35FFE7" fill-opacity="0.96"/>
<path d="M67.5592 25.2552C68.0688 24.9636 68.2438 24.3193 67.9491 23.8151C67.6544 23.3108 67.0032 23.1376 66.4936 23.4292C65.9839 23.7208 65.8089 24.3651 66.1036 24.8694C66.3983 25.3736 67.0495 25.5468 67.5592 25.2552Z" fill="#35FFE7" fill-opacity="0.96"/>
<path d="M63.8512 19.8307C64.2888 19.441 64.3235 18.7751 63.9297 18.3421C63.5359 17.9092 62.8628 17.8748 62.4252 18.2645C61.9877 18.6541 61.9529 19.3213 62.3467 19.753C62.7405 20.1846 63.4136 20.2203 63.8512 19.8307Z" fill="#35FFE7" fill-opacity="0.96"/>
<path d="M56.3676 13.4108C56.6623 12.9066 56.4872 12.2623 55.9776 11.9707C55.468 11.6791 54.8168 11.8523 54.5221 12.3565C54.2273 12.8607 54.4024 13.505 54.912 13.7966C55.4217 14.0869 56.0729 13.9151 56.3676 13.4108Z" fill="#35FFE7" fill-opacity="0.96"/>
<path d="M53.4668 11.8244C53.7062 11.2921 53.4642 10.6695 52.9263 10.4326C52.3883 10.1958 51.759 10.4352 51.5196 10.9674C51.2802 11.4997 51.5222 12.1223 52.0602 12.3592C52.5981 12.596 53.2274 12.3566 53.4668 11.8244Z" fill="#35FFE7" fill-opacity="0.96"/>
<path d="M50.4154 10.5473C50.5969 9.99336 50.2906 9.39872 49.7307 9.21918C49.1709 9.03964 48.5699 9.34269 48.3884 9.89659C48.207 10.4505 48.5132 11.0451 49.0731 11.2247C49.6316 11.4042 50.2326 11.1012 50.4154 10.5473Z" fill="#35FFE7" fill-opacity="0.96"/>
<path d="M46.7195 40.84L48.2795 42.12C48.6795 42.44 48.9062 42.68 48.9595 42.84C49.0395 43 49.0795 43.4 49.0795 44.04V51.4C49.0795 51.9333 49.0262 52.3067 48.9195 52.52C48.8395 52.7333 48.6395 53.0133 48.3195 53.36L47.5995 54.08C46.9862 54.6933 46.3595 55 45.7195 55H34.3595C33.7195 55 33.0795 54.7333 32.4395 54.2L31.4795 53.4C30.8395 52.8667 30.5195 52.2 30.5195 51.4V49.8H33.8795V50.56C33.8795 50.96 33.8929 51.2267 33.9195 51.36C33.9729 51.4667 34.1195 51.6133 34.3595 51.8C34.5995 51.9867 34.7862 52.1067 34.9195 52.16C35.0529 52.1867 35.3595 52.2 35.8395 52.2H43.7595C44.2395 52.2 44.5462 52.1867 44.6795 52.16C44.8129 52.1067 44.9995 51.9867 45.2395 51.8C45.4795 51.6133 45.6129 51.4667 45.6395 51.36C45.6929 51.2267 45.7195 50.96 45.7195 50.56V44.52C45.7195 43.9333 45.4795 43.4267 44.9995 43L44.3995 42.48C43.9995 42.1333 43.7195 41.9333 43.5595 41.88C43.3995 41.8267 43.0662 41.8 42.5595 41.8H36.1595V39.24H41.9995C42.5062 39.24 42.8395 39.2133 42.9995 39.16C43.1595 39.1067 43.4395 38.9067 43.8395 38.56L44.4395 38.08C44.8395 37.76 45.0662 37.5333 45.1195 37.4C45.1995 37.24 45.2395 36.9067 45.2395 36.4V31.44C45.2395 31.04 45.2129 30.7867 45.1595 30.68C45.1329 30.5467 44.9995 30.3867 44.7595 30.2C44.5195 30.0133 44.3329 29.9067 44.1995 29.88C44.0662 29.8267 43.7595 29.8 43.2795 29.8H36.6795C36.1729 29.8 35.8529 29.8267 35.7195 29.88C35.5862 29.9067 35.3995 30.0133 35.1595 30.2C34.9195 30.3867 34.7729 30.5467 34.7195 30.68C34.6929 30.7867 34.6795 31.04 34.6795 31.44V32.2H31.3195V30.6C31.3195 29.8 31.6395 29.1333 32.2795 28.6L33.2395 27.8C33.8795 27.2667 34.5195 27 35.1595 27H44.7595C45.3995 27 46.0395 27.2667 46.6795 27.8L47.6395 28.6C48.2795 29.1333 48.5995 29.8 48.5995 30.6V37.16C48.5995 37.6133 48.5595 37.9067 48.4795 38.04C48.4262 38.1733 48.2262 38.3733 47.8795 38.64L46.7195 39.6C46.2929 39.9467 45.9195 40.12 45.5995 40.12V40.32C45.9195 40.32 46.2929 40.4933 46.7195 40.84Z" fill="#35FFE7" fill-opacity="0.96"/>
</svg>
