<svg width="80" height="80" viewBox="0 0 80 80" fill="none" xmlns="http://www.w3.org/2000/svg">
<path d="M40 10.322C23.6362 10.322 10.323 23.6351 10.323 39.9989C10.323 56.3628 23.6362 69.6759 40 69.6759C56.3638 69.6759 69.677 56.3628 69.677 39.9989C69.677 23.6351 56.3638 10.322 40 10.322ZM40 68.645C24.2055 68.645 11.3552 55.7947 11.3552 40.0002C11.3552 24.2056 24.2055 11.3553 40 11.3553C55.7945 11.3553 68.6448 24.2044 68.6448 40.0002C68.6448 55.7959 55.7945 68.645 40 68.645Z" fill="#35FFE7" fill-opacity="0.96"/>
<path d="M40 0C17.9435 0 0 17.9435 0 40C0 62.0565 17.9435 80 40 80C62.0565 80 80 62.0565 80 40C80 17.9435 62.0553 0 40 0ZM40 78.9666C18.5128 78.9666 1.03218 61.486 1.03218 39.9988C1.03218 18.5116 18.5128 1.03097 40 1.03097C61.4872 1.03097 78.9678 18.5116 78.9678 39.9988C78.9678 61.486 61.4872 78.9666 40 78.9666Z" fill="#35FFE7" fill-opacity="0.96"/>
<path d="M28.9809 4.82864C23.1045 6.67182 17.8469 9.92065 13.6396 14.2186C14.9389 15.3475 16.2129 16.5065 17.459 17.6995C21.0051 14.1219 25.4046 11.4085 30.3117 9.83121C29.8584 8.16449 29.4124 6.49899 28.9809 4.82864Z" fill="#35FFE7" fill-opacity="0.96"/>
<path d="M13.9211 58.0658C10.3556 52.9339 8.25736 46.7093 8.25736 40.0002C8.25736 36.0975 8.97892 32.3676 10.2794 28.9169C8.7662 28.0818 7.23484 27.2804 5.68778 26.5105C4.02952 30.6912 3.09644 35.2345 3.09644 40.0002C3.09644 47.9966 5.66121 55.4007 9.99902 61.4499C11.3092 60.3247 12.6169 59.197 13.9211 58.0658Z" fill="#35FFE7" fill-opacity="0.96"/>
<path d="M74.7338 27.6443C70.8516 16.7689 62.0249 8.22743 50.9465 4.77917C50.3785 6.39996 49.8056 8.01954 49.2327 9.63791C58.8643 12.5713 66.5078 19.9911 69.8533 29.4343C71.4414 28.7562 73.0792 28.1761 74.7338 27.6443Z" fill="#35FFE7" fill-opacity="0.96"/>
<path d="M71.5528 43.2693C71.1684 46.9847 70.1556 50.5163 68.5989 53.7422C70.013 54.7538 71.4187 55.7824 72.8473 56.7734C74.9406 52.6955 76.281 48.1764 76.7234 43.401C74.9999 43.3853 73.2775 43.3358 71.5528 43.2693Z" fill="#35FFE7" fill-opacity="0.96"/>
<path d="M61.2997 63.4803C55.6638 68.6014 48.1981 71.7414 39.9999 71.7414C38.5338 71.7414 37.1015 71.6133 35.6898 71.4163C35.2402 73.0975 34.7737 74.7727 34.2842 76.4418C36.1467 76.7391 38.0539 76.9023 39.9999 76.9023C49.5844 76.9023 58.3156 73.2184 64.8822 67.2042C63.6892 65.9617 62.4927 64.7216 61.2997 63.4803Z" fill="#35FFE7" fill-opacity="0.96"/>
<path d="M30.9297 55V50.76C30.9297 50.28 30.9564 49.9733 31.0097 49.84C31.0897 49.68 31.3164 49.44 31.6897 49.12L44.9697 37C45.3164 36.7067 45.5297 36.44 45.6097 36.2C45.6897 35.9333 45.7297 35.5333 45.7297 35V31.44C45.7297 31.04 45.703 30.7867 45.6497 30.68C45.623 30.5467 45.4897 30.3867 45.2497 30.2C45.0097 30.0133 44.823 29.9067 44.6897 29.88C44.5564 29.8267 44.2497 29.8 43.7697 29.8H36.6497C36.1697 29.8 35.863 29.8267 35.7297 29.88C35.5964 29.9067 35.4097 30.0133 35.1697 30.2C34.9297 30.3867 34.783 30.5467 34.7297 30.68C34.703 30.7867 34.6897 31.04 34.6897 31.44V32.2H31.3297V30.6C31.3297 29.8 31.6497 29.1333 32.2897 28.6L33.2497 27.8C33.8897 27.2667 34.5297 27 35.1697 27H45.2497C45.8897 27 46.5297 27.2667 47.1697 27.8L48.1297 28.6C48.7697 29.1333 49.0897 29.8 49.0897 30.6V36.24C49.0897 36.7733 49.0497 37.1733 48.9697 37.44C48.8897 37.68 48.6764 37.9467 48.3297 38.24L35.0897 50.2C34.7164 50.5467 34.4897 50.8133 34.4097 51C34.3297 51.1867 34.2897 51.5333 34.2897 52.04V52.2H49.0897V55H30.9297Z" fill="#35FFE7" fill-opacity="0.96"/>
</svg>
