<svg width="80" height="80" viewBox="0 0 80 80" fill="none" xmlns="http://www.w3.org/2000/svg">
<path d="M79.6892 46.9571L80 45.1577L71.9213 43.7036C71.9649 43.3512 72.0096 42.9988 72.0417 42.6441L74.7266 42.8841C74.7645 42.2753 74.8069 41.6677 74.8539 41.0601L72.1599 40.8201C72.1736 40.4654 72.184 40.1106 72.1862 39.7536H76.861C76.8518 39.1448 76.8495 38.5348 76.8403 37.926H72.1541C72.1381 37.569 72.1094 37.2154 72.0819 36.8607L74.4043 36.6534C74.2931 36.0517 74.183 35.4499 74.0763 34.8482L71.8926 35.0437C71.8456 34.6901 71.7952 34.3377 71.7378 33.9888L76.0237 33.2173C75.8953 32.6214 75.7772 32.0243 75.6671 31.4261L71.3915 32.1953C71.3146 31.8476 71.2401 31.4987 71.1529 31.1557L77.283 29.4792C77.1179 28.8938 76.9527 28.3084 76.7853 27.7231L70.6517 29.4007C70.5451 29.0612 70.4327 28.724 70.3157 28.3892L77.9872 25.5396L77.3748 23.8222L69.6723 26.6834C69.5369 26.3545 69.3901 26.0325 69.2445 25.7094L72.1748 24.315C71.8777 23.7847 71.5795 23.2544 71.2882 22.7205L68.4543 24.0692C68.2914 23.7543 68.1228 23.444 67.9496 23.1349L73.0866 20.1074C72.793 19.5771 72.4925 19.0502 72.192 18.5246L67.0207 21.5732C66.8314 21.2746 66.6411 20.9773 66.4426 20.6858L73.1428 15.8963L72.1163 14.3989L65.3818 19.2118C65.1684 18.9308 64.9563 18.6487 64.7349 18.3759L66.8395 16.573C66.4656 16.0965 66.0837 15.6293 65.6937 15.1692L63.5513 17.0038C63.3151 16.7427 63.0754 16.4852 62.8311 16.2323L65.3359 13.6754C64.9024 13.2563 64.4688 12.8371 64.041 12.4133L61.5431 14.9632C61.2851 14.7244 61.019 14.4961 60.7541 14.2654L62.3758 12.2927C61.8723 11.9544 61.3642 11.6231 60.8481 11.3082L59.3617 13.1158C59.0853 12.9004 58.8032 12.6931 58.5199 12.4871L61.6853 7.87321C61.1738 7.55477 60.6509 7.25506 60.1221 6.96589L57.0347 11.4674C56.7411 11.2777 56.4452 11.0916 56.1447 10.9113L59.4214 5.11846C58.9317 4.77075 58.4293 4.43358 57.9155 4.12451L54.5769 10.0285C54.2684 9.8658 53.9588 9.70307 53.6445 9.54971L54.9784 6.63106C54.4691 6.30793 53.9542 5.99183 53.4346 5.68627L52.0056 8.81331C51.6845 8.67868 51.3611 8.54638 51.0353 8.42228L53.0149 2.87182C52.4472 2.68216 51.8772 2.5007 51.306 2.3204L49.3425 7.82872C49.0111 7.72335 48.6739 7.63087 48.3379 7.53721L49.9641 1.34049C49.3792 1.21757 48.7943 1.08762 48.2094 0.964688L46.5992 7.09935C46.2597 7.02442 45.9179 6.95886 45.575 6.89447L46.1163 3.76041C45.5303 3.64333 44.9465 3.51924 44.3628 3.38577L43.8042 6.61701C43.4602 6.57252 43.1161 6.5292 42.7686 6.49642L43.3019 0.275123C42.7055 0.22244 42.1091 0.194343 41.5116 0.194343L40.9817 6.37935C40.6354 6.3653 40.289 6.35476 39.9392 6.35242V3.05211C39.3428 3.02987 38.7465 3.02753 38.1489 3.03572V6.38754C37.8003 6.4051 37.4551 6.43554 37.1098 6.46364L36.5559 0C35.9664 0.11122 35.3758 0.221269 34.7874 0.336001L35.3287 6.65915C34.9835 6.70715 34.6406 6.75984 34.2988 6.81955L33.4088 1.66947C32.8147 1.73972 32.2218 1.81698 31.6311 1.90128L32.5418 7.17545C32.2023 7.25389 31.8628 7.33116 31.5279 7.42013L29.6436 0.241172C29.0644 0.392197 28.491 0.558442 27.9175 0.727028L29.8099 7.93409C29.4784 8.04296 29.1504 8.15653 28.8236 8.27594L27.2925 3.98168C26.7397 4.21348 26.188 4.44529 25.6306 4.66539L27.1526 8.93507C26.8326 9.07322 26.5183 9.22307 26.2029 9.37058L23.775 4.05543C23.244 4.33173 22.7038 4.59163 22.1567 4.83749L24.5962 10.1784C24.2888 10.3446 23.9871 10.5167 23.6855 10.6923L19.5682 3.41153L18.0176 4.32587L22.1556 11.6418C21.8643 11.8338 21.5752 12.0282 21.2908 12.2295L19.6622 9.8541C19.1748 10.2053 18.6748 10.5401 18.1816 10.882L19.8492 13.3125C19.5762 13.529 19.301 13.7445 19.0349 13.9704L15.7984 10.032C15.3511 10.436 14.9095 10.8469 14.4691 11.259L17.6907 15.1786C17.4373 15.4186 17.1861 15.6621 16.9395 15.9103L15.2903 14.2268C14.8705 14.66 14.4554 15.0978 14.039 15.5345L15.6963 17.2262C15.4635 17.4873 15.241 17.7577 15.0162 18.027L10.4103 14.0828C10.0846 14.5944 9.73936 15.0943 9.37695 15.5837L13.8899 19.4495C13.6801 19.7304 13.4782 20.0173 13.2775 20.3041L12.1765 19.5174C11.8439 20.0243 11.5056 20.5254 11.1603 21.0218L12.2786 21.8214C12.0939 22.1199 11.9127 22.4208 11.7372 22.7252L8.82184 21.0065C8.51907 21.5322 8.23235 22.0661 7.93531 22.5952L10.8725 24.3256C10.7131 24.6393 10.5548 24.9519 10.4057 25.2715L5.51194 22.9418C5.28256 23.5037 5.03711 24.0587 4.77562 24.6077L9.68316 26.9433C9.55242 27.27 9.42283 27.5978 9.30126 27.9291L3.15853 25.6473C2.98076 26.228 2.78464 26.804 2.57934 27.3777L8.71749 29.6583C8.61542 29.9943 8.52481 30.3373 8.43306 30.678L0.463333 28.4981L0 30.2636L8.00298 32.4528C7.92958 32.797 7.8642 33.1447 7.80227 33.4925L2.53461 32.5442C2.52085 33.16 2.49676 33.7746 2.47039 34.3881L7.52817 35.2989C7.48458 35.649 7.44214 35.9978 7.40888 36.3514L5.30436 36.1629C5.24701 36.7693 5.18392 37.3758 5.11282 37.9811L7.2919 38.1754C7.27813 38.5278 7.26782 38.8802 7.26552 39.2349H2.53118C2.5243 39.8449 2.5243 40.4537 2.52086 41.0624H7.29764C7.31369 41.4172 7.34237 41.7684 7.36989 42.1196L1.34186 42.6582C1.43934 43.2611 1.53568 43.864 1.63316 44.4669L7.55912 43.9378C7.605 44.289 7.65546 44.6379 7.71281 44.9856L5.98101 45.297C6.10488 45.8929 6.22988 46.4888 6.3503 47.0859L8.05917 46.778C8.13487 47.1233 8.20826 47.4687 8.29542 47.8094L5.29403 48.6301C5.47409 49.2119 5.66217 49.7915 5.85599 50.3686L8.79776 49.5643C8.90328 49.9015 9.01567 50.2352 9.13151 50.5677L4.48318 52.2945C4.67586 52.8717 4.86051 53.4512 5.05662 54.026L9.77492 52.2734C9.9091 52.6001 10.0536 52.9197 10.1981 53.2405L3.68265 56.3417C3.91891 56.9025 4.14715 57.4668 4.36276 58.0346L10.9872 54.8807C11.1489 55.1932 11.3152 55.5023 11.4861 55.809L4.33065 60.026L5.22636 61.6089L12.4139 57.3732C12.6008 57.6705 12.7901 57.9655 12.9862 58.2559L9.3368 60.8643C9.66022 61.3771 9.98366 61.8899 10.3071 62.4026L14.0448 59.731C14.2558 60.0097 14.4657 60.2906 14.6859 60.5634L10.072 64.5158C10.4504 64.9888 10.8404 65.4489 11.2452 65.8961L15.8672 61.9367C16.1011 62.1966 16.3409 62.4506 16.5828 62.7024L10.7406 68.6661L12.0068 69.9586L17.8696 63.9738C18.1254 64.2114 18.3892 64.4397 18.6518 64.6692L14.8224 69.3276C15.2972 69.6987 15.7731 70.0663 16.2502 70.4351L20.043 65.8212C20.3183 66.0354 20.5969 66.2427 20.8791 66.4487L19.0934 69.0513C19.6187 69.3486 20.1428 69.6448 20.6681 69.9434L22.3643 67.4708C22.6568 67.6604 22.9504 67.8466 23.2486 68.0269L21.3333 71.4126C21.8344 71.744 22.3333 72.0811 22.8403 72.4043L24.8152 68.9108C25.1226 69.0735 25.4288 69.2374 25.7419 69.3908L23.6144 74.0468C24.1466 74.3243 24.673 74.6123 25.1994 74.9014L27.3785 70.1318C27.6985 70.2665 28.0208 70.3976 28.3453 70.5217L26.0183 77.0486C26.5826 77.2499 27.1457 77.4537 27.7042 77.6656L30.0381 71.1199C30.3684 71.2253 30.7033 71.3178 31.0382 71.4126L28.9084 79.527L30.6379 80L32.7757 71.8552C33.1141 71.9313 33.4536 71.9992 33.7953 72.0636L33.4077 74.309C33.9972 74.4015 34.5855 74.5046 35.1716 74.6216L35.565 72.3457C35.9079 72.3902 36.252 72.4359 36.5983 72.4698L36.2359 76.6997C36.8277 76.791 37.4206 76.8648 38.0136 76.9256L38.3852 72.5927C38.7304 72.6068 39.0779 72.6161 39.4254 72.6197V78.7625C40.0241 78.7871 40.6216 78.8258 41.2157 78.8726V72.5881C41.5644 72.5717 41.9096 72.5436 42.2548 72.5166L42.5266 75.694C43.1195 75.6168 43.7113 75.5325 44.3031 75.4458L44.0359 72.327C44.3811 72.2802 44.7252 72.2298 45.0658 72.1713L45.9202 77.1176C46.5028 76.9935 47.0912 76.8858 47.6819 76.791L46.8228 71.8212C47.1623 71.7439 47.5029 71.669 47.8378 71.5812L49.6052 78.313C50.1637 78.0882 50.7245 77.8716 51.2911 77.6749L49.557 71.0708C49.8885 70.9631 50.2176 70.8472 50.5445 70.7289L51.5205 73.4673C52.0446 73.1629 52.5768 72.8725 53.1181 72.6033L52.2155 70.0733C52.5366 69.9363 52.852 69.7888 53.1686 69.6413L55.2502 74.199C55.7903 73.9414 56.3363 73.6932 56.8856 73.4556L54.7765 68.837C55.085 68.6719 55.3889 68.501 55.6906 68.3266L58.9661 74.1182C59.4799 73.808 59.9948 73.5001 60.5086 73.191L57.2217 67.3806C57.5141 67.1886 57.8054 66.9954 58.091 66.7941L62.7955 73.6511L64.2624 72.6021L59.5372 65.7123C59.8125 65.4957 60.0889 65.2803 60.3561 65.0544L63.2119 68.5279C63.65 68.1065 64.0686 67.6674 64.4654 67.2097L61.7037 63.8497C61.9595 63.6097 62.2106 63.3638 62.4584 63.1156L66.5447 67.287C66.992 66.8819 67.4588 66.4967 67.9141 66.0998L63.7039 61.8021C63.9378 61.5398 64.1626 61.2694 64.3897 60.9989L66.8429 63.1004C67.2432 62.6473 67.6492 62.2001 68.0563 61.7541L65.5182 59.58C65.7293 59.2978 65.9346 59.011 66.1364 58.7218L72.848 63.5184L73.8745 62.021L67.1388 57.2057C67.3257 56.906 67.5092 56.604 67.6859 56.2984L73.1577 59.5226C73.5143 59.0297 73.8699 58.5357 74.2243 58.0416L68.5518 54.6992C68.7123 54.3843 68.874 54.0693 69.0243 53.7486L72.1427 55.233C72.4684 54.7179 72.7769 54.1911 73.0911 53.6678L69.7503 52.0767C69.8833 51.7478 70.0117 51.4176 70.1345 51.084L77.8094 53.9359L78.4219 52.2184L70.7194 49.3571C70.8226 49.0188 70.9144 48.6746 71.0072 48.3304L77.0479 49.9823C77.2245 49.4016 77.3736 48.8116 77.5101 48.2168L71.4396 46.5567C71.5142 46.2102 71.5807 45.8601 71.6438 45.5101L79.6892 46.9571ZM70.2113 39.4831C70.2113 56.6414 56.5358 70.6013 39.727 70.6013C22.9182 70.6013 9.24276 56.6414 9.24276 39.4831C9.24276 22.3248 22.9182 8.36492 39.727 8.36492C56.5358 8.36492 70.2113 22.3248 70.2113 39.4831Z" fill="#35FFE7" fill-opacity="0.96"/>
<path d="M43.2741 37.8H46.6341V45.8H50.4741V48.6H46.6341V55H43.2741V48.6H29.1141V45.32L42.7941 27H46.5541L33.2341 44.88C32.9674 45.28 32.7407 45.5333 32.5541 45.64V45.8H43.2741V37.8Z" fill="#35FFE7" fill-opacity="0.96"/>
</svg>
