<svg width="303" height="69" viewBox="0 0 303 69" fill="none" xmlns="http://www.w3.org/2000/svg">
<path d="M227.659 3.6551L232.328 5.02684C233.788 5.45188 235.709 5.68759 237.761 5.68759L285.916 5.68759L291.309 7.27185L291.309 43.2964L279.655 46.7161L279.655 64.2937L276.208 65.3447L26.7916 65.3447L23.3323 64.2937L23.3059 47.6396C23.2928 47.0368 22.5036 46.4688 21.0567 46.0476L11.6914 43.2964L11.6914 7.27185L17.0843 5.68759L63.411 5.68759C65.4761 5.68759 67.3965 5.45188 68.8434 5.02297L73.526 3.6551L227.659 3.6551ZM63.411 5.44415L16.7423 5.44415L10.8627 7.17139L10.8627 43.3969L20.4648 46.2176C21.7538 46.5963 22.4641 47.1025 22.4773 47.6396L22.5167 64.3903L26.4496 65.5881L276.55 65.5881L280.483 64.3903L280.483 46.8166L292.137 43.3969L292.137 7.17139L286.258 5.44415L237.761 5.44415C235.932 5.44415 234.209 5.2355 232.92 4.85295L228.001 3.41166L73.184 3.41166L68.2646 4.85295C66.9624 5.2355 65.2525 5.44415 63.411 5.44415Z" fill="#0ADFDB"/>
<path d="M228.876 2.42989C229.27 2.42989 229.638 2.4761 229.914 2.55695L235.487 4.18942C236.078 4.36268 236.867 4.45509 237.695 4.45509L287.084 4.45509C287.478 4.45509 287.846 4.50129 288.122 4.58214L295.324 6.69204C295.6 6.77289 295.745 6.8807 295.745 6.99235L295.745 43.6383C295.745 43.75 295.587 43.8616 295.324 43.9425L284.114 47.2267L284.114 64.5525C284.114 64.6641 283.969 64.7681 283.706 64.8489L278.462 66.4352C278.2 66.5199 277.805 66.5661 277.411 66.5661L25.602 66.5661C25.1946 66.5661 24.8135 66.5199 24.5375 66.4352L19.3068 64.8489C19.044 64.7681 18.8994 64.6641 18.8994 64.5525L18.86 47.5924C18.86 47.346 18.5314 47.1189 17.9532 46.9456L7.68891 43.9425C7.41292 43.8616 7.26835 43.75 7.26835 43.6383L7.26835 7.0424L7.80719 6.65739L14.891 4.58214C15.167 4.50129 15.5349 4.45509 15.9292 4.45509L63.4917 4.45509C64.3328 4.45509 65.1213 4.36268 65.6996 4.18942L71.2851 2.55695C71.5611 2.4761 71.916 2.42989 72.3103 2.42989L228.876 2.42989ZM89.3691 0.450904L81.7728 1.94477L72.3103 1.94477C71.4823 1.94477 70.6937 2.04103 70.1023 2.21428L64.5299 3.84676C64.2539 3.92761 63.886 3.96996 63.4917 3.96996L15.9292 3.96996C15.0881 3.96996 14.3127 4.06622 13.7213 4.23948L6.51924 6.34552L5.61241 6.94615L5.61241 8.21286L0.5 9.70672L0.5 39.3261L5.61241 40.82L5.61241 43.6383C5.61241 43.8809 5.94097 44.1157 6.51923 44.2851L11.9339 45.8676L11.9339 59.7744L17.2303 61.3299L17.2435 64.5525C17.2435 64.7912 17.5457 65.0145 18.1109 65.1877L23.3547 66.774C23.933 66.9511 24.7478 67.0512 25.602 67.0512L57.9324 67.0512L63.0317 68.549L107.887 68.549L112.986 67.0512L184.126 67.0512L189.225 68.549L234.08 68.549L239.18 67.0512L277.411 67.0512C278.252 67.0512 279.08 66.9511 279.658 66.774L284.889 65.1877C285.454 65.0145 285.77 64.7912 285.77 64.5525L285.77 61.2452L290.882 59.4471L290.961 45.9061L296.494 44.2851C297.072 44.1157 297.401 43.8809 297.401 43.6383L297.401 40.6814L302.5 39.1875L302.5 9.56812L297.401 8.07425L297.401 6.99235C297.401 6.74979 297.072 6.51878 296.494 6.34937L289.292 4.23948C288.714 4.07007 287.912 3.96997 287.084 3.96997L237.695 3.96996C237.3 3.96996 236.932 3.92761 236.656 3.84676L231.084 2.21429C230.493 2.04103 229.717 1.94477 228.876 1.94477L216.772 1.94477L209.307 0.450905L89.3691 0.450904Z" fill="#0ADFDB"/>
<path d="M291.397 7.05696L291.397 43.3658L279.736 46.8125L279.736 64.5288L276.287 65.5881L26.7127 65.5881L23.2512 64.5288L23.2249 47.7433C23.2117 47.1358 22.422 46.5633 20.9742 46.1388L11.603 43.3658L11.603 7.05696L16.9993 5.46019L63.3553 5.46019C65.4217 5.46019 67.3433 5.22263 68.7911 4.79033L73.4767 3.41166L227.707 3.41166L232.379 4.79423C233.84 5.22263 235.762 5.4602 237.815 5.4602L286.001 5.4602L291.397 7.05696Z" fill="#023340" fill-opacity="0.8"/>
<path d="M291.397 7.11634L291.397 43.3795L279.739 46.8165L279.752 64.4632L276.055 65.5881L26.2053 65.5881L22.5078 64.4593L22.4683 47.6932C22.4683 47.1191 21.7183 46.5837 20.3498 46.1803L10.8627 43.3795L10.8627 7.11634L16.4945 5.45602L63.009 5.45602C64.9564 5.45602 66.7854 5.23103 68.1538 4.82371L72.9566 3.41166L227.487 3.41166L232.277 4.82759C233.659 5.23103 235.488 5.45602 237.422 5.45602L285.765 5.45602L291.397 7.11634ZM279.331 46.7661L290.989 43.3329L290.989 7.16677L285.594 5.57628L237.422 5.57628C235.369 5.57628 233.448 5.33965 231.987 4.91293L227.316 3.5358L73.1277 3.5358L68.4433 4.90905C66.9959 5.33965 65.0748 5.57628 63.009 5.57628L16.6655 5.57628L11.2706 7.16677L11.2706 43.3329L20.6393 46.095C22.0867 46.5178 22.8762 47.088 22.8894 47.6932L22.9157 64.4127L26.3763 65.4679L275.883 65.4679L279.331 64.4127L279.331 46.7661Z" fill="#0ADFDB"/>
<path d="M111.441 39.7955V41.4755H100.689V24.6755H111.441V26.3555H102.705V32.1155H110.097V33.7955H102.705V39.7955H111.441ZM124.426 24.6755H126.586L122.098 32.7635L127.186 41.4755H124.978L120.922 34.2755C120.762 34.0195 120.682 33.7955 120.682 33.6035H120.586C120.586 33.7955 120.506 34.0195 120.346 34.2755L116.29 41.4755H114.082L119.17 32.7635L114.682 24.6755H116.842L120.298 31.1555C120.49 31.5395 120.586 31.7875 120.586 31.8995H120.682C120.682 31.8355 120.698 31.7635 120.73 31.6835C120.762 31.5875 120.802 31.4915 120.85 31.3955C120.914 31.2835 120.954 31.2035 120.97 31.1555L124.426 24.6755ZM132.447 34.7555V41.4755H130.431V24.6755H139.311C139.695 24.6755 140.079 24.8355 140.463 25.1555L141.039 25.6355C141.423 25.9555 141.615 26.3555 141.615 26.8355V32.5955C141.615 33.0755 141.423 33.4755 141.039 33.7955L140.463 34.2755C140.079 34.5955 139.695 34.7555 139.311 34.7555H132.447ZM132.447 26.3555V33.0755H138.423C138.711 33.0755 138.895 33.0675 138.975 33.0515C139.055 33.0195 139.167 32.9475 139.311 32.8355C139.455 32.7235 139.535 32.6355 139.551 32.5715C139.583 32.4915 139.599 32.3315 139.599 32.0915V27.3395C139.599 27.0995 139.583 26.9475 139.551 26.8835C139.535 26.8035 139.455 26.7075 139.311 26.5955C139.167 26.4835 139.055 26.4195 138.975 26.4035C138.895 26.3715 138.711 26.3555 138.423 26.3555H132.447ZM156.174 39.7955V41.4755H145.806V24.6755H147.822V39.7955H156.174ZM160.743 24.6755H169.527C169.911 24.6755 170.295 24.8355 170.679 25.1555L171.255 25.6355C171.639 25.9555 171.831 26.3555 171.831 26.8355V39.3155C171.831 39.7955 171.639 40.1955 171.255 40.5155L170.679 40.9955C170.295 41.3155 169.911 41.4755 169.527 41.4755H160.743C160.359 41.4755 159.975 41.3155 159.591 40.9955L159.015 40.5155C158.631 40.1955 158.439 39.7955 158.439 39.3155V26.8355C158.439 26.3555 158.631 25.9555 159.015 25.6355L159.591 25.1555C159.975 24.8355 160.359 24.6755 160.743 24.6755ZM169.815 38.8115V27.3395C169.815 27.0995 169.799 26.9475 169.767 26.8835C169.751 26.8035 169.671 26.7075 169.527 26.5955C169.383 26.4835 169.271 26.4195 169.191 26.4035C169.111 26.3715 168.927 26.3555 168.639 26.3555H161.631C161.343 26.3555 161.159 26.3715 161.079 26.4035C160.999 26.4195 160.887 26.4835 160.743 26.5955C160.599 26.7075 160.511 26.8035 160.479 26.8835C160.463 26.9475 160.455 27.0995 160.455 27.3395V38.8115C160.455 39.0515 160.463 39.2115 160.479 39.2915C160.511 39.3555 160.599 39.4435 160.743 39.5555C160.887 39.6675 160.999 39.7395 161.079 39.7715C161.159 39.7875 161.343 39.7955 161.631 39.7955H168.639C168.927 39.7955 169.111 39.7875 169.191 39.7715C169.271 39.7395 169.383 39.6675 169.527 39.5555C169.671 39.4435 169.751 39.3555 169.767 39.2915C169.799 39.2115 169.815 39.0515 169.815 38.8115ZM176.627 24.6755H185.507C185.891 24.6755 186.275 24.8355 186.659 25.1555L187.235 25.6355C187.619 25.9555 187.811 26.3555 187.811 26.8355V32.4515C187.811 32.9475 187.611 33.3635 187.211 33.6995L186.611 34.2035C186.259 34.4915 185.891 34.6355 185.507 34.6355H184.163L186.635 38.4755C186.811 38.7475 186.931 38.9235 186.995 39.0035C187.075 39.0675 187.243 39.1715 187.499 39.3155L187.763 39.4595C188.051 39.6195 188.219 39.7475 188.267 39.8435C188.315 39.9395 188.339 40.1715 188.339 40.5395V41.4755H187.739C187.451 41.4755 187.251 41.4595 187.139 41.4275C187.043 41.3955 186.867 41.2915 186.611 41.1155L186.155 40.8035C185.803 40.5635 185.515 40.2515 185.291 39.8675L182.099 34.7555H178.643V41.4755H176.627V24.6755ZM178.643 26.3555V33.0755H184.619C184.907 33.0755 185.091 33.0675 185.171 33.0515C185.251 33.0195 185.363 32.9475 185.507 32.8355C185.651 32.7235 185.731 32.6355 185.747 32.5715C185.779 32.4915 185.795 32.3315 185.795 32.0915V27.3395C185.795 27.0995 185.779 26.9475 185.747 26.8835C185.731 26.8035 185.651 26.7075 185.507 26.5955C185.363 26.4835 185.251 26.4195 185.171 26.4035C185.091 26.3715 184.907 26.3555 184.619 26.3555H178.643ZM203.527 39.7955V41.4755H192.775V24.6755H203.527V26.3555H194.791V32.1155H202.183V33.7955H194.791V39.7955H203.527Z" fill="white"/>
</svg>


