<svg width="303" height="69" viewBox="0 0 303 69" fill="none" xmlns="http://www.w3.org/2000/svg">
<path d="M227.659 3.70417L232.328 5.07591C233.788 5.50095 235.709 5.73666 237.761 5.73666L285.916 5.73666L291.309 7.32092L291.309 43.3455L279.655 46.7652L279.655 64.3427L276.208 65.3938L26.7916 65.3938L23.3323 64.3427L23.3059 47.6887C23.2928 47.0859 22.5036 46.5179 21.0567 46.0967L11.6914 43.3455L11.6914 7.32092L17.0843 5.73666L63.411 5.73666C65.4761 5.73666 67.3965 5.50096 68.8434 5.07205L73.526 3.70417L227.659 3.70417ZM63.411 5.49323L16.7423 5.49323L10.8627 7.22046L10.8627 43.446L20.4648 46.2667C21.7538 46.6454 22.4641 47.1516 22.4773 47.6887L22.5167 64.4394L26.4496 65.6372L276.55 65.6372L280.483 64.4394L280.483 46.8656L292.137 43.446L292.137 7.22046L286.258 5.49323L237.761 5.49323C235.932 5.49323 234.209 5.28457 232.92 4.90203L228.001 3.46074L73.184 3.46074L68.2646 4.90203C66.9624 5.28457 65.2525 5.49323 63.411 5.49323Z" fill="#FC62FF"/>
<path d="M228.876 2.47897C229.27 2.47897 229.638 2.52517 229.914 2.60602L235.487 4.2385C236.078 4.41176 236.867 4.50416 237.695 4.50416L287.084 4.50416C287.478 4.50416 287.846 4.55036 288.122 4.63122L295.324 6.74111C295.6 6.82196 295.745 6.92977 295.745 7.04142L295.745 43.6874C295.745 43.799 295.587 43.9107 295.324 43.9916L284.114 47.2758L284.114 64.6015C284.114 64.7132 283.969 64.8172 283.706 64.898L278.462 66.4843C278.2 66.569 277.805 66.6152 277.411 66.6152L25.602 66.6152C25.1946 66.6152 24.8135 66.569 24.5375 66.4843L19.3068 64.898C19.044 64.8172 18.8994 64.7132 18.8994 64.6015L18.86 47.6415C18.86 47.3951 18.5314 47.1679 17.9532 46.9947L7.68891 43.9916C7.41292 43.9107 7.26835 43.799 7.26835 43.6874L7.26835 7.09148L7.80719 6.70646L14.891 4.63121C15.167 4.55036 15.5349 4.50416 15.9292 4.50416L63.4917 4.50416C64.3328 4.50416 65.1213 4.41175 65.6996 4.2385L71.2851 2.60602C71.5611 2.52517 71.916 2.47897 72.3103 2.47897L228.876 2.47897ZM89.3691 0.499976L81.7728 1.99384L72.3103 1.99384C71.4823 1.99384 70.6937 2.0901 70.1023 2.26336L64.5299 3.89583C64.2539 3.97668 63.886 4.01904 63.4917 4.01904L15.9292 4.01904C15.0881 4.01904 14.3127 4.11529 13.7213 4.28855L6.51924 6.39459L5.61241 6.99522L5.61241 8.26193L0.5 9.7558L0.5 39.3752L5.61241 40.8691L5.61241 43.6874C5.61241 43.93 5.94097 44.1648 6.51923 44.3342L11.9339 45.9166L11.9339 59.8235L17.2303 61.3789L17.2435 64.6015C17.2435 64.8403 17.5457 65.0636 18.1109 65.2368L23.3547 66.8231C23.933 67.0002 24.7478 67.1003 25.602 67.1003L57.9324 67.1003L63.0317 68.598L107.887 68.598L112.986 67.1003L184.126 67.1003L189.225 68.598L234.08 68.598L239.18 67.1003L277.411 67.1003C278.252 67.1003 279.08 67.0002 279.658 66.8231L284.889 65.2368C285.454 65.0636 285.77 64.8403 285.77 64.6015L285.77 61.2942L290.882 59.4962L290.961 45.9551L296.494 44.3342C297.072 44.1648 297.401 43.93 297.401 43.6874L297.401 40.7305L302.5 39.2366L302.5 9.61719L297.401 8.12332L297.401 7.04142C297.401 6.79886 297.072 6.56785 296.494 6.39845L289.292 4.28855C288.714 4.11914 287.912 4.01904 287.084 4.01904L237.695 4.01904C237.3 4.01904 236.932 3.97668 236.656 3.89583L231.084 2.26336C230.493 2.0901 229.717 1.99385 228.876 1.99385L216.772 1.99384L209.307 0.499977L89.3691 0.499976Z" fill="#FC62FF"/>
<path d="M291.397 7.10603L291.397 43.4149L279.736 46.8616L279.736 64.5779L276.287 65.6372L26.7127 65.6372L23.2512 64.5779L23.2249 47.7924C23.2117 47.1848 22.422 46.6123 20.9742 46.1878L11.603 43.4149L11.603 7.10603L16.9993 5.50927L63.3553 5.50927C65.4217 5.50927 67.3433 5.2717 68.7911 4.8394L73.4767 3.46073L227.707 3.46073L232.379 4.8433C233.84 5.2717 235.762 5.50927 237.815 5.50927L286.001 5.50927L291.397 7.10603Z" fill="#0C001F" fill-opacity="0.51"/>
<path d="M291.397 7.16541L291.397 43.4286L279.739 46.8656L279.752 64.5122L276.055 65.6372L26.2053 65.6372L22.5078 64.5083L22.4683 47.7423C22.4683 47.1681 21.7183 46.6328 20.3498 46.2294L10.8627 43.4286L10.8627 7.16541L16.4945 5.5051L63.009 5.5051C64.9564 5.5051 66.7854 5.2801 68.1538 4.87278L72.9566 3.46074L227.487 3.46074L232.277 4.87666C233.659 5.2801 235.488 5.5051 237.422 5.5051L285.765 5.5051L291.397 7.16541ZM279.331 46.8151L290.989 43.382L290.989 7.21584L285.594 5.62535L237.422 5.62535C235.369 5.62535 233.448 5.38872 231.987 4.962L227.316 3.58487L73.1277 3.58487L68.4433 4.95812C66.9959 5.38872 65.0748 5.62535 63.009 5.62535L16.6655 5.62535L11.2706 7.21584L11.2706 43.382L20.6393 46.144C22.0867 46.5669 22.8762 47.1371 22.8894 47.7423L22.9157 64.4618L26.3763 65.517L275.883 65.517L279.331 64.4618L279.331 46.8151Z" fill="#FC62FF"/>
<path d="M111.441 39.8445V41.5245H100.689V24.7245H111.441V26.4045H102.705V32.1645H110.097V33.8445H102.705V39.8445H111.441ZM124.426 24.7245H126.586L122.098 32.8125L127.186 41.5245H124.978L120.922 34.3245C120.762 34.0685 120.682 33.8445 120.682 33.6525H120.586C120.586 33.8445 120.506 34.0685 120.346 34.3245L116.29 41.5245H114.082L119.17 32.8125L114.682 24.7245H116.842L120.298 31.2045C120.49 31.5885 120.586 31.8365 120.586 31.9485H120.682C120.682 31.8845 120.698 31.8125 120.73 31.7325C120.762 31.6365 120.802 31.5405 120.85 31.4445C120.914 31.3325 120.954 31.2525 120.97 31.2045L124.426 24.7245ZM132.447 34.8045V41.5245H130.431V24.7245H139.311C139.695 24.7245 140.079 24.8845 140.463 25.2045L141.039 25.6845C141.423 26.0045 141.615 26.4045 141.615 26.8845V32.6445C141.615 33.1245 141.423 33.5245 141.039 33.8445L140.463 34.3245C140.079 34.6445 139.695 34.8045 139.311 34.8045H132.447ZM132.447 26.4045V33.1245H138.423C138.711 33.1245 138.895 33.1165 138.975 33.1005C139.055 33.0685 139.167 32.9965 139.311 32.8845C139.455 32.7725 139.535 32.6845 139.551 32.6205C139.583 32.5405 139.599 32.3805 139.599 32.1405V27.3885C139.599 27.1485 139.583 26.9965 139.551 26.9325C139.535 26.8525 139.455 26.7565 139.311 26.6445C139.167 26.5325 139.055 26.4685 138.975 26.4525C138.895 26.4205 138.711 26.4045 138.423 26.4045H132.447ZM156.174 39.8445V41.5245H145.806V24.7245H147.822V39.8445H156.174ZM160.743 24.7245H169.527C169.911 24.7245 170.295 24.8845 170.679 25.2045L171.255 25.6845C171.639 26.0045 171.831 26.4045 171.831 26.8845V39.3645C171.831 39.8445 171.639 40.2445 171.255 40.5645L170.679 41.0445C170.295 41.3645 169.911 41.5245 169.527 41.5245H160.743C160.359 41.5245 159.975 41.3645 159.591 41.0445L159.015 40.5645C158.631 40.2445 158.439 39.8445 158.439 39.3645V26.8845C158.439 26.4045 158.631 26.0045 159.015 25.6845L159.591 25.2045C159.975 24.8845 160.359 24.7245 160.743 24.7245ZM169.815 38.8605V27.3885C169.815 27.1485 169.799 26.9965 169.767 26.9325C169.751 26.8525 169.671 26.7565 169.527 26.6445C169.383 26.5325 169.271 26.4685 169.191 26.4525C169.111 26.4205 168.927 26.4045 168.639 26.4045H161.631C161.343 26.4045 161.159 26.4205 161.079 26.4525C160.999 26.4685 160.887 26.5325 160.743 26.6445C160.599 26.7565 160.511 26.8525 160.479 26.9325C160.463 26.9965 160.455 27.1485 160.455 27.3885V38.8605C160.455 39.1005 160.463 39.2605 160.479 39.3405C160.511 39.4045 160.599 39.4925 160.743 39.6045C160.887 39.7165 160.999 39.7885 161.079 39.8205C161.159 39.8365 161.343 39.8445 161.631 39.8445H168.639C168.927 39.8445 169.111 39.8365 169.191 39.8205C169.271 39.7885 169.383 39.7165 169.527 39.6045C169.671 39.4925 169.751 39.4045 169.767 39.3405C169.799 39.2605 169.815 39.1005 169.815 38.8605ZM176.627 24.7245H185.507C185.891 24.7245 186.275 24.8845 186.659 25.2045L187.235 25.6845C187.619 26.0045 187.811 26.4045 187.811 26.8845V32.5005C187.811 32.9965 187.611 33.4125 187.211 33.7485L186.611 34.2525C186.259 34.5405 185.891 34.6845 185.507 34.6845H184.163L186.635 38.5245C186.811 38.7965 186.931 38.9725 186.995 39.0525C187.075 39.1165 187.243 39.2205 187.499 39.3645L187.763 39.5085C188.051 39.6685 188.219 39.7965 188.267 39.8925C188.315 39.9885 188.339 40.2205 188.339 40.5885V41.5245H187.739C187.451 41.5245 187.251 41.5085 187.139 41.4765C187.043 41.4445 186.867 41.3405 186.611 41.1645L186.155 40.8525C185.803 40.6125 185.515 40.3005 185.291 39.9165L182.099 34.8045H178.643V41.5245H176.627V24.7245ZM178.643 26.4045V33.1245H184.619C184.907 33.1245 185.091 33.1165 185.171 33.1005C185.251 33.0685 185.363 32.9965 185.507 32.8845C185.651 32.7725 185.731 32.6845 185.747 32.6205C185.779 32.5405 185.795 32.3805 185.795 32.1405V27.3885C185.795 27.1485 185.779 26.9965 185.747 26.9325C185.731 26.8525 185.651 26.7565 185.507 26.6445C185.363 26.5325 185.251 26.4685 185.171 26.4525C185.091 26.4205 184.907 26.4045 184.619 26.4045H178.643ZM203.527 39.8445V41.5245H192.775V24.7245H203.527V26.4045H194.791V32.1645H202.183V33.8445H194.791V39.8445H203.527Z" fill="white"/>
</svg>
