<svg width="1039" height="501" viewBox="0 0 1039 501" fill="none" xmlns="http://www.w3.org/2000/svg">
<path d="M66.9288 0.0159617H75.7466H101.21H106.231H132.169H412.721H438.185H443.205H469.143H474.51H499.973H504.994H530.932H971.684H1038.98V67.3264V368.714L1039 368.698V394.64L1038.98 394.656V399.677L1039 399.661V425.129C1038.99 425.137 1038.99 425.137 1038.98 425.145V431.646L1039 431.631V501.371H1038.98V501.5H240.887H233.63C231.972 499.842 230.323 498.193 228.666 496.535C152.283 420.14 75.8995 343.737 -0.491821 267.342L-0.499756 267.334V132.681V106.739V101.718V76.25V67.4308V0H66.9288V0.0159617ZM4.47229 71.3013C8.02026 67.7528 11.5764 64.1961 15.1245 60.6475V86.1153L4.47229 96.7691V101.79L15.1245 91.1363V117.079L4.47229 127.733V265.057C81.6278 342.224 158.775 419.383 235.931 496.551H512.403L523.184 485.768H549.123L538.342 496.551H543.362L554.143 485.768H579.607L568.826 496.551H574.192L584.973 485.768H610.912L600.131 496.551H605.151L615.932 485.768H641.396L630.615 496.551H911.174L921.955 485.768H947.894L937.113 496.551H942.133L952.914 485.768H978.378L967.597 496.551H974.098L1034.02 436.619V430.118C1030.48 433.666 1026.93 437.207 1023.38 440.755V415.288L1034.02 404.65V399.629L1023.38 410.267V384.324L1034.02 373.687V62.3775L976.64 4.98889H525.976L515.324 15.6427H489.385L500.038 4.98889H495.017L484.365 15.6427H458.901L469.554 4.98889H464.187L453.535 15.6427H427.597L438.249 4.98889H433.229L422.576 15.6427H397.113L407.765 4.98889H127.213L116.561 15.6427H90.6226L101.275 4.98889H96.2544L85.6022 15.6427H60.1384L70.7906 4.98889H61.9729L4.47229 62.4984V71.3013Z" fill="url(#paint0_linear_626_8224)" fill-opacity="0.96"/>
<defs>
<linearGradient id="paint0_linear_626_8224" x1="519.25" y1="0" x2="519.25" y2="501.5" gradientUnits="userSpaceOnUse">
<stop stop-color="#FC62FF"/>
<stop offset="1" stop-color="#35FFE7"/>
</linearGradient>
</defs>
</svg>
