<svg width="1039" height="501" viewBox="0 0 1039 501" fill="none" xmlns="http://www.w3.org/2000/svg">
<path d="M971.571 0.0159617H962.753H937.29H932.269H906.331H625.779H600.315H595.295H569.357H563.99H538.527H533.506H507.568H66.816H-0.483903V67.3264V368.714L-0.5 368.698V394.64L-0.483903 394.656V399.677L-0.5 399.661V425.129C-0.491955 425.137 -0.491948 425.137 -0.483903 425.145V431.646L-0.5 431.631V501.371H-0.483903V501.5H797.613H804.87C806.528 499.842 808.177 498.193 809.834 496.535C886.217 420.14 962.601 343.737 1038.99 267.342L1039 267.334V132.681V106.739V101.718V76.25V67.4308V0H971.571V0.0159617ZM1034.03 71.3013C1030.48 67.7528 1026.92 64.1961 1023.38 60.6475V86.1153L1034.03 96.7691V101.79L1023.38 91.1363V117.079L1034.03 127.733V265.057C956.872 342.224 879.725 419.383 802.569 496.551H526.097L515.316 485.768H489.377L500.158 496.551H495.138L484.357 485.768H458.893L469.674 496.551H464.308L453.527 485.768H427.588L438.369 496.551H433.349L422.568 485.768H397.104L407.885 496.551H127.326L116.545 485.768H90.6063L101.387 496.551H96.3668L85.5859 485.768H60.1222L70.9031 496.551H64.4024L4.48011 436.619V430.118C8.02009 433.666 11.5681 437.207 15.1161 440.755V415.288L4.48011 404.65V399.629L15.1161 410.267V384.324L4.48011 373.687V62.3775L61.86 4.98889H512.524L523.176 15.6427H549.115L538.462 4.98889H543.483L554.135 15.6427H579.599L568.946 4.98889H574.313L584.965 15.6427H610.903L600.251 4.98889H605.271L615.924 15.6427H641.387L630.735 4.98889H911.287L921.939 15.6427H947.877L937.225 4.98889H942.246L952.898 15.6427H978.362L967.709 4.98889H976.527L1034.03 62.4984V71.3013Z" fill="#35FFE7" fill-opacity="0.96"/>
<path d="M971.571 0.0159617H962.753H937.29H932.269H906.331H625.779H600.315H595.295H569.357H563.99H538.527H533.506H507.568H66.816H-0.483903V67.3264V368.714L-0.5 368.698V394.64L-0.483903 394.656V399.677L-0.5 399.661V425.129C-0.491955 425.137 -0.491948 425.137 -0.483903 425.145V431.646L-0.5 431.631V501.371H-0.483903V501.5H797.613H804.87C806.528 499.842 808.177 498.193 809.834 496.535C886.217 420.14 962.601 343.737 1038.99 267.342L1039 267.334V132.681V106.739V101.718V76.25V67.4308V0H971.571V0.0159617ZM1034.03 71.3013C1030.48 67.7528 1026.92 64.1961 1023.38 60.6475V86.1153L1034.03 96.7691V101.79L1023.38 91.1363V117.079L1034.03 127.733V265.057C956.872 342.224 879.725 419.383 802.569 496.551H526.097L515.316 485.768H489.377L500.158 496.551H495.138L484.357 485.768H458.893L469.674 496.551H464.308L453.527 485.768H427.588L438.369 496.551H433.349L422.568 485.768H397.104L407.885 496.551H127.326L116.545 485.768H90.6063L101.387 496.551H96.3668L85.5859 485.768H60.1222L70.9031 496.551H64.4024L4.48011 436.619V430.118C8.02009 433.666 11.5681 437.207 15.1161 440.755V415.288L4.48011 404.65V399.629L15.1161 410.267V384.324L4.48011 373.687V62.3775L61.86 4.98889H512.524L523.176 15.6427H549.115L538.462 4.98889H543.483L554.135 15.6427H579.599L568.946 4.98889H574.313L584.965 15.6427H610.903L600.251 4.98889H605.271L615.924 15.6427H641.387L630.735 4.98889H911.287L921.939 15.6427H947.877L937.225 4.98889H942.246L952.898 15.6427H978.362L967.709 4.98889H976.527L1034.03 62.4984V71.3013Z" fill="url(#paint0_linear_626_8102)" fill-opacity="0.96"/>
<defs>
<linearGradient id="paint0_linear_626_8102" x1="519.25" y1="0" x2="519.25" y2="501.5" gradientUnits="userSpaceOnUse">
<stop stop-color="#35FFE7"/>
<stop offset="1" stop-color="#FD8D26"/>
</linearGradient>
</defs>
</svg>
