<svg width="130" height="131" viewBox="0 0 130 131" fill="none" xmlns="http://www.w3.org/2000/svg">
<path d="M125.048 59.3322C128.099 54.3335 128.699 47.8949 126.065 42.0432C123.697 36.7804 119.226 33.1629 114.148 31.7083C110.235 25.3892 105.168 19.8497 99.2368 15.3876C100.031 13.2833 99.6476 10.9778 98.0484 9.56518C96.0594 7.80882 92.9199 8.07289 90.7139 10.0451C84.8458 7.01447 78.4131 4.92277 71.6158 3.97752C70.3348 1.71605 67.0836 0.0980225 63.2257 0.0980225C59.3488 0.0980225 56.0724 1.73072 54.8018 4.00686C47.5958 5.03595 40.8028 7.34772 34.665 10.7053C34.6713 10.6613 34.6903 10.6131 34.6945 10.5712C29.7978 8.59688 22.5496 10.8835 17.0061 16.5864C12.457 21.2645 10.2678 27.003 10.8114 31.5658C7.15575 31.832 3.59067 33.9887 1.5595 37.6166C-1.40297 42.9109 -0.0123192 49.3411 4.60838 52.3529C4.00788 55.7231 3.67707 59.1834 3.67707 62.7213C3.67707 71.6791 5.69559 80.1738 9.28384 87.7966C7.09044 92.1791 7.68673 97.7038 11.2539 101.665C14.1785 104.912 18.3693 106.287 22.3305 105.758C28.7148 111.78 36.4265 116.414 44.9873 119.172C45.9186 125.309 53.7293 130.098 63.2278 130.098C72.6841 130.098 80.4443 125.347 81.4303 119.252C89.9659 116.54 97.6649 111.964 104.056 106.01C106.177 107.46 108.876 107.534 110.667 105.976C112.739 104.174 112.808 100.881 110.927 98.4269C114.999 93.0656 118.183 87.0022 120.25 80.4484C124.765 79.8929 128.714 76.2985 129.746 71.2642C130.743 66.4059 128.725 61.6985 125.048 59.3322ZM63.3226 118.432C32.4421 118.432 7.318 93.4408 7.318 62.7234C7.318 32.0059 32.4421 7.01447 63.3226 7.01447C94.2031 7.01447 119.327 32.0059 119.327 62.7234C119.327 93.4408 94.2031 118.432 63.3226 118.432Z" fill="#35FFE7" fill-opacity="0.96"/>
<g clip-path="url(#clip0_622_5394)">
<path d="M83.5 79.3333H38.1667C37.4307 79.3333 36.8333 78.736 36.8333 78V59.3333C36.8333 58.5973 37.4307 58 38.1667 58H83.5C84.236 58 84.8333 58.5973 84.8333 59.3333V78C84.8333 78.736 84.236 79.3333 83.5 79.3333ZM39.5 76.6667H82.1667V60.6667H39.5V76.6667Z" fill="#35FFE7" fill-opacity="0.96"/>
<path d="M83.5 74C82.764 74 82.1667 73.4027 82.1667 72.6667V59.3333C82.1667 58.5973 82.764 58 83.5 58H96.8333C97.5693 58 98.1667 58.5973 98.1667 59.3333C98.1667 67.42 91.5867 74 83.5 74ZM84.8333 60.6667V71.26C90.3867 70.644 94.8093 66.22 95.4267 60.6667H84.8333Z" fill="#35FFE7" fill-opacity="0.96"/>
<path d="M66.1667 54H52.8333C52.0973 54 51.5 53.4027 51.5 52.6667V35.332C51.5 34.912 51.6973 34.5173 52.0333 34.2653L57.3667 30.2667C57.5973 30.0933 57.8787 30 58.1667 30H66.1667C66.9027 30 67.5 30.5973 67.5 31.3333V52.6667C67.5 53.4027 66.9027 54 66.1667 54ZM54.1667 51.3333H64.8333V32.6667H58.6107L54.1667 35.9987V51.3333Z" fill="#35FFE7" fill-opacity="0.96"/>
<path d="M90.1667 46H66.1667C65.4307 46 64.8333 45.4027 64.8333 44.6667V39.3333C64.8333 38.5973 65.4307 38 66.1667 38H90.1667C90.9027 38 91.5 38.5973 91.5 39.3333V44.6667C91.5 45.4027 90.9027 46 90.1667 46ZM67.5 43.3333H88.8333V40.6667H67.5V43.3333Z" fill="#35FFE7" fill-opacity="0.96"/>
<path d="M52.8333 46H47.5C46.764 46 46.1667 45.4027 46.1667 44.6667V39.3333C46.1667 38.5973 46.764 38 47.5 38H52.8333C53.5693 38 54.1667 38.5973 54.1667 39.3333V44.6667C54.1667 45.4027 53.5693 46 52.8333 46ZM48.8333 43.3333H51.5V40.6667H48.8333V43.3333Z" fill="#35FFE7" fill-opacity="0.96"/>
<path d="M47.5 55.3333C47.1587 55.3333 46.8173 55.2026 46.5573 54.9426L43.8907 52.276C43.3693 51.7546 43.3693 50.912 43.8907 50.3906C44.412 49.8693 45.2547 49.8693 45.776 50.3906L48.4427 53.0573C48.964 53.5786 48.964 54.4213 48.4427 54.9426C48.1827 55.2026 47.8413 55.3333 47.5 55.3333Z" fill="#35FFE7" fill-opacity="0.96"/>
<path d="M40.8333 55.3333C40.492 55.3333 40.1507 55.2026 39.8907 54.9426L37.224 52.276C36.7027 51.7546 36.7027 50.912 37.224 50.3906C37.7453 49.8693 38.588 49.8693 39.1093 50.3906L41.776 53.0573C42.2973 53.5786 42.2973 54.4213 41.776 54.9426C41.516 55.2026 41.1747 55.3333 40.8333 55.3333Z" fill="#35FFE7" fill-opacity="0.96"/>
<path d="M71.5 55.3333C71.1587 55.3333 70.8173 55.2026 70.5573 54.9426C70.036 54.4213 70.036 53.5786 70.5573 53.0573L73.224 50.3906C73.7453 49.8693 74.588 49.8693 75.1093 50.3906C75.6307 50.912 75.6307 51.7546 75.1093 52.276L72.4427 54.9426C72.1827 55.2026 71.8413 55.3333 71.5 55.3333Z" fill="#35FFE7" fill-opacity="0.96"/>
<path d="M78.1667 55.3333C77.8253 55.3333 77.484 55.2026 77.224 54.9426C76.7027 54.4213 76.7027 53.5786 77.224 53.0573L79.8907 50.3906C80.412 49.8693 81.2547 49.8693 81.776 50.3906C82.2973 50.912 82.2973 51.7546 81.776 52.276L79.1093 54.9426C78.8493 55.2026 78.508 55.3333 78.1667 55.3333Z" fill="#35FFE7" fill-opacity="0.96"/>
<path d="M76.8333 94H44.8333C44.0973 94 43.5 93.4027 43.5 92.6667V87.3333C43.5 86.5973 44.0973 86 44.8333 86H76.8333C77.5693 86 78.1667 86.5973 78.1667 87.3333V92.6667C78.1667 93.4027 77.5693 94 76.8333 94ZM46.1667 91.3333H75.5V88.6667H46.1667V91.3333Z" fill="#35FFE7" fill-opacity="0.96"/>
<path d="M71.5 88.6666H50.1667C49.564 88.6666 49.036 88.2626 48.88 87.6813C48.7227 87.1 48.9747 86.4853 49.4947 86.1813C49.6467 86.0893 53.4053 83.764 53.4027 78C53.4027 77.6453 53.5427 77.3066 53.7933 77.056C54.044 76.8053 54.3827 76.6666 54.736 76.6666H66.9307C67.284 76.6666 67.624 76.8066 67.8733 77.0573C68.1227 77.308 68.264 77.6466 68.264 78.0013C68.2627 83.7653 72.02 86.0906 72.18 86.1866C72.6933 86.4946 72.9413 87.1106 72.7813 87.688C72.6213 88.2653 72.0987 88.6666 71.5 88.6666ZM53.4987 86H68.1693C67.036 84.524 65.9147 82.3426 65.6547 79.3333H56.0147C55.752 82.3426 54.6307 84.524 53.4987 86Z" fill="#35FFE7" fill-opacity="0.96"/>
<path d="M79.5 94H42.1667C41.4307 94 40.8333 93.4027 40.8333 92.6667C40.8333 91.9307 41.4307 91.3334 42.1667 91.3334H79.5C80.236 91.3334 80.8333 91.9307 80.8333 92.6667C80.8333 93.4027 80.236 94 79.5 94Z" fill="#35FFE7" fill-opacity="0.96"/>
</g>
<defs>
<clipPath id="clip0_622_5394">
<rect width="64" height="64" fill="white" transform="translate(35.5 30)"/>
</clipPath>
</defs>
</svg>

