<svg width="65" height="64" viewBox="0 0 65 64" fill="none" xmlns="http://www.w3.org/2000/svg">
<path d="M34.819 32.4C35.8098 31.8813 36.5981 31.0454 37.0579 30.026C37.5177 29.0065 37.6224 27.8623 37.3553 26.7763C37.0883 25.6903 36.4648 24.7252 35.5846 24.0352C34.7044 23.3453 33.6184 22.9703 32.5 22.9703C31.3816 22.9703 30.2956 23.3453 29.4154 24.0352C28.5352 24.7252 27.9117 25.6903 27.6447 26.7763C27.3776 27.8623 27.4823 29.0065 27.9421 30.026C28.4019 31.0454 29.1902 31.8813 30.181 32.4C28.8141 32.8811 27.6299 33.7741 26.7916 34.9561C25.9532 36.1381 25.502 37.5509 25.5 39C25.5 39.2653 25.6054 39.5196 25.7929 39.7071C25.9804 39.8947 26.2348 40 26.5 40H38.5C38.7652 40 39.0196 39.8947 39.2071 39.7071C39.3946 39.5196 39.5 39.2653 39.5 39C39.498 37.5509 39.0468 36.1381 38.2084 34.9561C37.3701 33.7741 36.1859 32.8811 34.819 32.4ZM32.5 25C33.0933 25 33.6734 25.176 34.1667 25.5056C34.6601 25.8353 35.0446 26.3038 35.2716 26.852C35.4987 27.4002 35.5581 28.0034 35.4424 28.5853C35.3266 29.1673 35.0409 29.7018 34.6213 30.1214C34.2018 30.5409 33.6672 30.8266 33.0853 30.9424C32.5033 31.0581 31.9001 30.9987 31.3519 30.7717C30.8038 30.5446 30.3352 30.1601 30.0056 29.6667C29.6759 29.1734 29.5 28.5934 29.5 28C29.5 27.2044 29.8161 26.4413 30.3787 25.8787C30.9413 25.3161 31.7044 25 32.5 25ZM27.6 38C27.8295 36.8697 28.4427 35.8536 29.3357 35.1237C30.2288 34.3938 31.3466 33.995 32.5 33.995C33.6534 33.995 34.7712 34.3938 35.6643 35.1237C36.5573 35.8536 37.1705 36.8697 37.4 38H27.6Z" fill="#35FFE7" fill-opacity="0.96"/>
<path d="M53.5 42.9999C51.1937 42.9982 48.9584 43.7974 47.176 45.2609L42.362 40.4469C44.2645 38.2317 45.3613 35.4378 45.474 32.5199L55.686 32.1419C55.9708 33.0651 56.5822 33.8528 57.4059 34.3576C58.2295 34.8624 59.2089 35.0498 60.1607 34.8846C61.1126 34.7194 61.9715 34.2129 62.5769 33.4601C63.1823 32.7072 63.4925 31.7596 63.4496 30.7945C63.4066 29.8294 63.0134 28.913 62.3436 28.2169C61.6737 27.5208 60.7732 27.0927 59.8104 27.0127C58.8477 26.9327 57.8888 27.2063 57.1133 27.7823C56.3377 28.3583 55.7987 29.1972 55.597 30.1419L45.409 30.5189C45.1908 28.6253 44.5588 26.8029 43.5579 25.1807C42.557 23.5585 41.2116 22.1763 39.617 21.1319L41.528 17.6579C42.9504 18.1544 44.5075 18.0984 45.8905 17.5009C47.2735 16.9035 48.3816 15.8082 48.9952 14.4322C49.6087 13.0562 49.6829 11.4999 49.203 10.0718C48.7231 8.64372 47.7242 7.44804 46.4042 6.72176C45.0842 5.99548 43.5396 5.79162 42.0764 6.15059C40.6132 6.50955 39.3383 7.40514 38.5043 8.65984C37.6704 9.91455 37.3382 11.4368 37.5738 12.9248C37.8093 14.4129 38.5953 15.7581 39.776 16.6939L37.864 20.1699C35.6155 19.1403 33.1185 18.7782 30.6701 19.1267C28.2217 19.4752 25.9249 20.5197 24.053 22.1359L19.239 17.3219C20.8656 15.3325 21.6654 12.794 21.4728 10.2315C21.2803 7.66898 20.1102 5.27848 18.2046 3.55447C16.299 1.83046 13.8036 0.904843 11.2346 0.969075C8.66569 1.03331 6.21971 2.08247 4.40262 3.89956C2.58553 5.71665 1.53636 8.16264 1.47213 10.7316C1.40789 13.3005 2.33351 15.7959 4.05752 17.7015C5.78153 19.6072 8.17203 20.7773 10.7346 20.9698C13.2971 21.1623 15.8356 20.3626 17.825 18.7359L22.639 23.5499C21.3651 25.0207 20.4416 26.7613 19.938 28.6407C19.4345 30.5201 19.364 32.4893 19.732 34.3999L10.949 36.7639C10.3923 35.6836 9.45832 34.8452 8.32438 34.4079C7.19044 33.9705 5.93541 33.9646 4.79742 34.3913C3.65943 34.818 2.71766 35.6476 2.1508 36.7227C1.58394 37.7977 1.43144 39.0435 1.72223 40.2235C2.01302 41.4036 2.72688 42.4358 3.72834 43.1244C4.7298 43.813 5.94919 44.11 7.15514 43.9591C8.36109 43.8082 9.46969 43.2199 10.2706 42.3057C11.0715 41.3916 11.509 40.2153 11.5 38.9999C11.5 38.8999 11.476 38.7999 11.469 38.6999L20.258 36.3339C21.2698 39.1747 23.2341 41.5775 25.817 43.1339L23.7 47.3599C22.0182 46.7967 20.1854 46.8914 18.5706 47.6251C16.9558 48.3587 15.6788 49.6768 14.9968 51.314C14.3147 52.9513 14.2781 54.7861 14.8943 56.4492C15.5106 58.1124 16.734 59.4803 18.3182 60.2778C19.9025 61.0752 21.73 61.243 23.433 60.7472C25.1359 60.2515 26.5879 59.1291 27.4966 57.6059C28.4053 56.0827 28.7033 54.2719 28.3307 52.5378C27.958 50.8038 26.9423 49.2753 25.488 48.2599L27.6 44.0339C29.8085 44.9394 32.2245 45.2156 34.5803 44.832C36.9362 44.4485 39.1398 43.4201 40.947 41.8609L45.761 46.6749C44.3261 48.433 43.5321 50.6271 43.5097 52.8963C43.4873 55.1655 44.2378 57.3748 45.6378 59.1609C47.0377 60.9469 49.0038 62.2034 51.2127 62.7237C53.4216 63.244 55.7417 62.9971 57.7917 62.0237C59.8416 61.0502 61.4993 59.4081 62.4921 57.3675C63.4848 55.3268 63.7536 53.0091 63.2542 50.7954C62.7548 48.5817 61.5169 46.6038 59.7442 45.1871C57.9714 43.7703 55.7693 42.999 53.5 42.9999ZM59.5 28.9999C59.8956 28.9999 60.2822 29.1172 60.6111 29.337C60.94 29.5568 61.1964 29.8691 61.3478 30.2346C61.4991 30.6 61.5387 31.0022 61.4616 31.3901C61.3844 31.7781 61.1939 32.1345 60.9142 32.4142C60.6345 32.6939 60.2781 32.8843 59.8902 32.9615C59.5022 33.0387 59.1001 32.9991 58.7346 32.8477C58.3692 32.6963 58.0568 32.44 57.8371 32.1111C57.6173 31.7822 57.5 31.3955 57.5 30.9999C57.5 30.4695 57.7107 29.9608 58.0858 29.5857C58.4609 29.2107 58.9696 28.9999 59.5 28.9999ZM43.5 7.99995C44.2911 7.99995 45.0645 8.23455 45.7223 8.67407C46.3801 9.1136 46.8928 9.73831 47.1955 10.4692C47.4983 11.2001 47.5775 12.0044 47.4231 12.7803C47.2688 13.5562 46.8878 14.269 46.3284 14.8284C45.769 15.3878 45.0563 15.7688 44.2804 15.9231C43.5044 16.0774 42.7002 15.9982 41.9693 15.6955C41.2384 15.3927 40.6137 14.88 40.1741 14.2222C39.7346 13.5644 39.5 12.7911 39.5 11.9999C39.5 10.9391 39.9214 9.92167 40.6716 9.17152C41.4217 8.42138 42.4391 7.99995 43.5 7.99995ZM6.5 41.9999C5.90666 41.9999 5.32664 41.824 4.83329 41.4944C4.33994 41.1647 3.95543 40.6962 3.72836 40.148C3.5013 39.5998 3.44189 38.9966 3.55765 38.4147C3.6734 37.8327 3.95912 37.2982 4.37868 36.8786C4.79824 36.4591 5.33279 36.1733 5.91473 36.0576C6.49667 35.9418 7.09987 36.0012 7.64805 36.2283C8.19623 36.4554 8.66477 36.8399 8.99441 37.3332C9.32406 37.8266 9.5 38.4066 9.5 38.9999C9.5 39.7956 9.18393 40.5587 8.62132 41.1213C8.05871 41.6839 7.29565 41.9999 6.5 41.9999ZM26.5 53.9999C26.5 54.9889 26.2068 55.9556 25.6574 56.7778C25.1079 57.6 24.3271 58.2409 23.4134 58.6193C22.4998 58.9978 21.4945 59.0968 20.5245 58.9039C19.5546 58.7109 18.6637 58.2347 17.9645 57.5355C17.2652 56.8362 16.789 55.9453 16.5961 54.9754C16.4031 54.0055 16.5022 53.0002 16.8806 52.0865C17.259 51.1729 17.8999 50.392 18.7222 49.8426C19.5444 49.2932 20.5111 48.9999 21.5 48.9999C22.8256 49.0015 24.0964 49.5288 25.0338 50.4662C25.9711 51.4035 26.4984 52.6744 26.5 53.9999ZM3.5 10.9999C3.4969 9.70011 3.81057 8.41909 4.41387 7.26773C5.01718 6.11638 5.89195 5.12937 6.96249 4.39212C8.03303 3.65486 9.26709 3.18957 10.5579 3.0365C11.8487 2.88343 13.1573 3.04719 14.3706 3.51361C15.5839 3.98004 16.6653 4.73507 17.5211 5.71339C18.377 6.69171 18.9816 7.86384 19.2825 9.12835C19.5835 10.3929 19.5719 11.7117 19.2486 12.9707C18.9252 14.2297 18.3 15.3909 17.427 16.3539C17.4731 16.2415 17.4979 16.1215 17.5 15.9999C17.5025 15.2117 17.3486 14.4308 17.0472 13.7025C16.7458 12.9741 16.3028 12.3129 15.744 11.7569C15.3455 11.3585 14.8931 11.0178 14.4 10.7449C14.9405 10.1783 15.3027 9.46547 15.4419 8.69486C15.581 7.92424 15.4909 7.12974 15.1827 6.40987C14.8745 5.68999 14.3617 5.07642 13.7081 4.64522C13.0544 4.21403 12.2886 3.98418 11.5055 3.98418C10.7224 3.98418 9.95658 4.21403 9.30292 4.64522C8.64926 5.07642 8.13654 5.68999 7.82834 6.40987C7.52014 7.12974 7.43001 7.92424 7.56914 8.69486C7.70827 9.46547 8.07053 10.1783 8.611 10.7449C7.66952 11.2622 6.88416 12.0227 6.33693 12.947C5.7897 13.8714 5.50066 14.9257 5.5 15.9999C5.50204 16.1202 5.52575 16.2391 5.57 16.3509C4.23891 14.8866 3.50094 12.9789 3.5 10.9999ZM11.5 9.99995C11.1044 9.99995 10.7178 9.88265 10.3889 9.66289C10.06 9.44313 9.80362 9.13077 9.65224 8.76532C9.50087 8.39986 9.46126 7.99773 9.53843 7.60977C9.6156 7.22181 9.80608 6.86544 10.0858 6.58574C10.3655 6.30603 10.7219 6.11555 11.1098 6.03838C11.4978 5.96121 11.8999 6.00082 12.2654 6.15219C12.6308 6.30357 12.9432 6.55991 13.1629 6.88881C13.3827 7.21771 13.5 7.60439 13.5 7.99995C13.5 8.53038 13.2893 9.03909 12.9142 9.41416C12.5391 9.78924 12.0304 9.99995 11.5 9.99995ZM11.5 11.9999C12.3868 11.9999 13.2484 12.2946 13.9495 12.8377C14.6506 13.3807 15.1513 14.1413 15.373 14.9999H7.626C7.84883 14.1418 8.35 13.3817 9.05103 12.8388C9.75206 12.296 10.6134 12.0009 11.5 11.9999ZM6.15 16.9299C6.26145 16.9743 6.38005 16.9981 6.5 16.9999H16.5C16.6218 16.9983 16.7422 16.9738 16.855 16.9279C15.3914 18.2596 13.4837 18.9975 11.505 18.9975C9.52626 18.9975 7.61864 18.2596 6.155 16.9279L6.15 16.9299ZM21.5 31.9999C21.5 29.8244 22.1451 27.6976 23.3538 25.8887C24.5625 24.0797 26.2805 22.6698 28.2905 21.8373C30.3005 21.0047 32.5122 20.7869 34.646 21.2113C36.7798 21.6357 38.7398 22.6834 40.2782 24.2218C41.8166 25.7602 42.8642 27.7202 43.2886 29.854C43.7131 31.9877 43.4952 34.1995 42.6627 36.2095C41.8301 38.2195 40.4202 39.9374 38.6113 41.1461C36.8023 42.3548 34.6756 42.9999 32.5 42.9999C29.5837 42.9965 26.7878 41.8365 24.7256 39.7743C22.6635 37.7122 21.5034 34.9163 21.5 31.9999ZM48.15 58.9299C48.2615 58.9743 48.3801 58.9981 48.5 58.9999H58.5C58.6218 58.9983 58.7422 58.9738 58.855 58.9279C57.3914 60.2596 55.4837 60.9975 53.505 60.9975C51.5263 60.9975 49.6186 60.2596 48.155 58.9279L48.15 58.9299ZM53.5 51.9999C53.1044 51.9999 52.7178 51.8827 52.3889 51.6629C52.06 51.4431 51.8036 51.1308 51.6522 50.7653C51.5009 50.3999 51.4613 49.9977 51.5384 49.6098C51.6156 49.2218 51.8061 48.8654 52.0858 48.5857C52.3655 48.306 52.7219 48.1155 53.1098 48.0384C53.4978 47.9612 53.8999 48.0008 54.2654 48.1522C54.6308 48.3036 54.9432 48.5599 55.1629 48.8888C55.3827 49.2177 55.5 49.6044 55.5 49.9999C55.5 50.5304 55.2893 51.0391 54.9142 51.4142C54.5391 51.7892 54.0304 51.9999 53.5 51.9999ZM53.5 53.9999C54.3868 53.9999 55.2484 54.2946 55.9495 54.8377C56.6506 55.3807 57.1513 56.1413 57.373 56.9999H49.626C49.8488 56.1418 50.35 55.3817 51.051 54.8388C51.7521 54.2959 52.6133 54.0009 53.5 53.9999ZM59.426 58.3539C59.4725 58.2416 59.4976 58.1215 59.5 57.9999C59.5025 57.2117 59.3486 56.4308 59.0472 55.7025C58.7458 54.9741 58.3028 54.3129 57.744 53.7569C57.3455 53.3585 56.8931 53.0178 56.4 52.7449C56.9405 52.1783 57.3027 51.4655 57.4419 50.6949C57.581 49.9242 57.4909 49.1297 57.1827 48.4099C56.8745 47.69 56.3617 47.0764 55.7081 46.6452C55.0544 46.214 54.2886 45.9842 53.5055 45.9842C52.7224 45.9842 51.9566 46.214 51.3029 46.6452C50.6493 47.0764 50.1365 47.69 49.8283 48.4099C49.5201 49.1297 49.43 49.9242 49.5691 50.6949C49.7083 51.4655 50.0705 52.1783 50.611 52.7449C49.6695 53.2622 48.8842 54.0227 48.3369 54.947C47.7897 55.8714 47.5007 56.9257 47.5 57.9999C47.502 58.1202 47.5258 58.2391 47.57 58.3509C46.5301 57.2033 45.8458 55.7784 45.5999 54.2493C45.3541 52.7203 45.5574 51.1527 46.1851 49.7369C46.8128 48.3211 47.838 47.118 49.1362 46.2735C50.4344 45.429 51.9498 44.9795 53.4985 44.9795C55.0472 44.9795 56.5626 45.429 57.8608 46.2735C59.159 47.118 60.1842 48.3211 60.8119 49.7369C61.4396 51.1527 61.6429 52.7203 61.3971 54.2493C61.1512 55.7784 60.4669 57.2033 59.427 58.3509L59.426 58.3539Z" fill="#35FFE7" fill-opacity="0.96"/>
</svg>
