<svg width="131" height="131" viewBox="0 0 131 131" fill="none" xmlns="http://www.w3.org/2000/svg">
<g clip-path="url(#clip0_622_5398)">
<path d="M93.6374 54.651C93.1511 54.121 92.5074 53.7436 91.7249 53.5311L80.6249 50.7711V46.7495C80.6249 44.682 78.9426 43 76.8749 43H48.125C46.0573 43 44.375 44.682 44.375 46.7495V50.7718L33.2996 53.5251C33.2915 53.5271 33.2833 53.5293 33.2751 53.5315C31.5374 54.0011 30.5 55.274 30.5 56.9365C30.5 57.3789 30.581 57.886 30.5904 57.9424C30.5961 57.977 30.6032 58.0114 30.6117 58.0454L39.947 95.1118C40.4301 97.1309 42.4824 98.4028 44.47 97.8736L62.5008 93.5294L80.53 97.8733C82.4116 98.429 84.6263 97.0919 85.0525 95.1124V95.111L88.0462 83.2263C88.2054 82.6486 87.8331 81.8684 87.1386 81.709C86.5643 81.5361 85.7579 81.9549 85.6224 82.6164L82.6261 94.5124C82.4825 95.1168 81.8296 95.6665 81.1149 95.4435L73.0236 93.4938H76.8749C78.9426 93.4938 80.6249 91.8118 80.6249 89.7443V71.8233L82.0075 71.5323C82.4361 71.442 82.7861 71.1341 82.9304 70.7206L85.8054 62.4716C85.9549 62.0426 85.8599 61.5663 85.5571 61.2275L80.625 55.7089V53.3476L91.0861 55.9485C91.8795 56.1665 92.1195 56.6411 91.9549 57.4684L88.3688 71.7079C88.1999 72.3766 88.6074 73.0578 89.2762 73.2253C89.85 73.4011 90.6582 72.9798 90.7938 72.3191L94.3887 58.0459L94.4025 57.9784C94.4663 57.6535 94.4989 57.2934 94.5 56.9373C94.5074 56.0809 94.1936 55.2473 93.6374 54.651ZM44.375 69.2688L44.1981 69.2315L41.7976 62.344L44.375 59.4603V69.2688ZM43.8846 95.4435C43.2956 95.6495 42.548 95.2193 42.374 94.5123L33.0501 57.4911C33.0219 56.8713 32.7224 56.3575 33.9162 55.9476L44.375 53.3476V55.7088L39.4429 61.2274C39.1401 61.5661 39.045 62.0425 39.1946 62.4715L42.0696 70.7205C42.2137 71.134 42.5639 71.442 42.9925 71.5321L44.375 71.8233V89.7444C44.375 91.8119 46.0573 93.4939 48.125 93.4939H51.9765L43.8846 95.4435ZM83.2023 62.3441L80.8018 69.2316L80.6249 69.2689V59.4604L83.2023 62.3441ZM78.1249 89.7444C78.1249 90.4335 77.5641 90.9943 76.8749 90.9943H48.125C47.4357 90.9943 46.875 90.4335 46.875 89.7444V46.7495C46.875 46.0604 47.4357 45.4996 48.125 45.4996H76.875C77.5643 45.4996 78.125 46.0604 78.125 46.7495V89.7444H78.1249Z" fill="#35FFE7" fill-opacity="0.96"/>
<path d="M88.5125 76.2599C88.4125 76.2337 88.31 76.2211 88.2076 76.2211C87.6338 76.2211 87.1351 76.6098 86.9951 77.1662C86.8276 77.8349 87.2339 78.5149 87.9026 78.6837C88.0026 78.7087 88.1064 78.7226 88.2089 78.7226C88.7814 78.7226 89.2801 78.3338 89.42 77.7774C89.5875 77.1087 89.1813 76.4274 88.5125 76.2599Z" fill="#35FFE7" fill-opacity="0.96"/>
<path d="M55.625 74.75C54.9347 74.75 54.375 75.3098 54.375 76V80.801L51.7462 75.4661C51.4895 74.9449 50.9067 74.6694 50.3414 74.8013C49.7755 74.9331 49.3751 75.4376 49.3751 76.0186V86C49.3751 86.6903 49.9349 87.25 50.6251 87.25C51.3154 87.25 51.8751 86.6903 51.8751 86V81.3835L54.3196 86.3445C54.6601 87.0335 55.3244 87.2222 55.8312 87.1037C56.3129 86.9912 56.8752 86.5464 56.8752 85.663V76C56.875 75.3098 56.3152 74.75 55.625 74.75Z" fill="#35FFE7" fill-opacity="0.96"/>
<path d="M64.375 77.25C65.0652 77.25 65.625 76.6902 65.625 76C65.625 75.3098 65.0652 74.75 64.375 74.75H60.625C59.9348 74.75 59.375 75.3098 59.375 76V86C59.375 86.6903 59.9348 87.25 60.625 87.25C61.3152 87.25 61.875 86.6903 61.875 86V82.1553H64.0771C64.7674 82.1553 65.3271 81.5955 65.3271 80.9053C65.3271 80.215 64.7674 79.6553 64.0771 79.6553H61.875V77.25H64.375Z" fill="#35FFE7" fill-opacity="0.96"/>
<path d="M74.375 74.75H69.375C68.6848 74.75 68.125 75.3098 68.125 76C68.125 76.6902 68.6848 77.25 69.375 77.25H70.6149V86C70.6149 86.6903 71.1746 87.25 71.8649 87.25C72.5551 87.25 73.1149 86.6903 73.1149 86V77.25H74.375C75.0652 77.25 75.625 76.6902 75.625 76C75.625 75.3098 75.0652 74.75 74.375 74.75Z" fill="#35FFE7" fill-opacity="0.96"/>
<path d="M53.248 66.5814L61.873 71.5814C62.0669 71.6938 62.2834 71.75 62.5 71.75C62.7166 71.75 62.9331 71.6939 63.127 71.5814L71.752 66.5814C72.1376 66.3578 72.375 65.9458 72.375 65.5V55.5C72.375 55.0543 72.1376 54.6423 71.752 54.4187L63.127 49.4187C62.7392 49.1938 62.2607 49.1938 61.8731 49.4187L53.2481 54.4187C52.8624 54.6423 52.625 55.0543 52.625 55.5V65.5C52.625 65.9458 52.8624 66.3578 53.248 66.5814ZM55.125 56.2203L62.5 51.9449L69.875 56.2203V64.7799L62.5 69.0553L55.125 64.7799V56.2203Z" fill="#35FFE7" fill-opacity="0.96"/>
</g>
<path d="M130.5 61.6066C129.043 49.5625 124.368 38.4863 117.342 29.2332L112.029 34.4524C109.185 30.5662 105.884 27.0225 102.201 23.9033L108.819 17.4024L107.228 16.1063C94.5801 5.79915 78.5514 0.114427 62.0947 0.100072L60.2093 0.0980225V9.27519C27.0704 10.2226 0.5 36.9051 0.5 69.6846C0.5 69.7112 0.500015 69.7379 0.502103 69.7625H6.76365C6.78871 86.6977 14.7081 101.814 27.1018 111.754L22.6546 116.122C33.0773 124.659 46.421 129.86 60.9944 130.098V123.958C61.3389 123.964 61.6834 123.97 62.03 123.97C92.5277 123.97 117.254 99.7077 117.298 69.7625H123.56C123.56 69.7358 123.56 69.7092 123.56 69.6846C123.56 66.9447 123.37 64.25 123.011 61.6066H130.5ZM106.028 17.5295L100.75 22.7139C90.1913 14.3057 76.7432 9.26289 62.0947 9.24853V1.95191C78.7956 1.96627 94.1041 7.813 106.028 17.5295ZM62.0341 123.029C32.0396 123.029 7.72409 99.1459 7.72409 69.6846C7.72409 40.2233 32.0396 16.3401 62.0341 16.3401C92.0287 16.3401 116.344 40.2233 116.344 69.6846C116.344 99.1459 92.0287 123.029 62.0341 123.029Z" fill="#35FFE7" fill-opacity="0.96"/>
<defs>
<clipPath id="clip0_622_5398">
<rect width="64.0001" height="64.9999" fill="white" transform="translate(30.5 38)"/>
</clipPath>
</defs>
</svg>
