<svg width="80" height="80" viewBox="0 0 80 80" fill="none" xmlns="http://www.w3.org/2000/svg">
<path d="M42.8988 40.5C44.1373 39.8516 45.1226 38.8068 45.6974 37.5324C46.2721 36.2581 46.403 34.8278 46.0692 33.4703C45.7353 32.1128 44.956 30.9064 43.8558 30.044C42.7556 29.1816 41.398 28.7129 40 28.7129C38.602 28.7129 37.2444 29.1816 36.1442 30.044C35.044 30.9064 34.2647 32.1128 33.9308 33.4703C33.597 34.8278 33.7279 36.2581 34.3026 37.5324C34.8774 38.8068 35.8627 39.8516 37.1012 40.5C35.3926 41.1013 33.9124 42.2176 32.8645 43.6951C31.8165 45.1726 31.2525 46.9386 31.25 48.75C31.25 49.0815 31.3817 49.3995 31.6161 49.6339C31.8505 49.8683 32.1685 50 32.5 50H47.5C47.8315 50 48.1495 49.8683 48.3839 49.6339C48.6183 49.3995 48.75 49.0815 48.75 48.75C48.7475 46.9386 48.1835 45.1726 47.1355 43.6951C46.0876 42.2176 44.6074 41.1013 42.8988 40.5ZM40 31.25C40.7417 31.25 41.4667 31.4699 42.0834 31.882C42.7001 32.2941 43.1807 32.8797 43.4645 33.565C43.7484 34.2502 43.8226 35.0042 43.6779 35.7316C43.5333 36.459 43.1761 37.1272 42.6516 37.6517C42.1272 38.1761 41.459 38.5333 40.7316 38.678C40.0042 38.8227 39.2502 38.7484 38.5649 38.4646C37.8797 38.1807 37.294 37.7001 36.882 37.0834C36.4699 36.4667 36.25 35.7417 36.25 35C36.25 34.0055 36.6451 33.0516 37.3483 32.3484C38.0516 31.6451 39.0054 31.25 40 31.25ZM33.875 47.5C34.1619 46.0872 34.9284 44.8169 36.0447 43.9045C37.1609 42.9922 38.5583 42.4937 40 42.4937C41.4417 42.4937 42.8391 42.9922 43.9553 43.9045C45.0716 44.8169 45.8381 46.0872 46.125 47.5H33.875Z" fill="#35FFE7" fill-opacity="0.96"/>
<path d="M66.25 53.75C63.3671 53.7478 60.573 54.7468 58.345 56.5763L52.3275 50.5588C54.7056 47.7897 56.0766 44.2974 56.2175 40.65L68.9825 40.1775C69.3385 41.3314 70.1028 42.316 71.1323 42.9471C72.1619 43.5781 73.3861 43.8123 74.5759 43.6058C75.7657 43.3993 76.8394 42.7663 77.5961 41.8252C78.3528 40.8841 78.7407 39.6996 78.687 38.4932C78.6333 37.2868 78.1418 36.1414 77.3045 35.2713C76.4672 34.4011 75.3415 33.866 74.138 33.766C72.9346 33.666 71.736 34.008 70.7666 34.728C69.7971 35.448 69.1233 36.4966 68.8713 37.6775L56.1363 38.1488C55.8635 35.7818 55.0736 33.5037 53.8224 31.476C52.5712 29.4482 50.8895 27.7205 48.8963 26.415L51.285 22.0725C53.063 22.6931 55.0093 22.6231 56.7381 21.8762C58.4669 21.1294 59.8521 19.7603 60.619 18.0403C61.3859 16.3203 61.4786 14.375 60.8787 12.5899C60.2788 10.8047 59.0302 9.31014 57.3802 8.40229C55.7303 7.49444 53.7995 7.23962 51.9705 7.68833C50.1415 8.13703 48.5479 9.25652 47.5054 10.8249C46.463 12.3933 46.0478 14.2961 46.3422 16.1561C46.6366 18.0162 47.6192 19.6978 49.095 20.8675L46.705 25.2125C43.8943 23.9254 40.7731 23.4728 37.7126 23.9085C34.6521 24.3441 31.7811 25.6498 29.4413 27.67L23.4238 21.6525C25.457 19.1658 26.4567 15.9926 26.2161 12.7895C25.9754 9.58632 24.5128 6.59819 22.1307 4.44318C19.7487 2.28817 16.6295 1.13115 13.4183 1.21144C10.2071 1.29173 7.14963 2.60318 4.87827 4.87455C2.60691 7.14591 1.29545 10.2034 1.21516 13.4146C1.13487 16.6258 2.29189 19.745 4.4469 22.127C6.60192 24.509 9.59004 25.9717 12.7932 26.2123C15.9964 26.453 19.1695 25.4533 21.6563 23.42L27.6738 29.4375C26.0814 31.2759 24.927 33.4517 24.2976 35.801C23.6681 38.1503 23.5801 40.6118 24.04 43L13.0613 45.955C12.3653 44.6046 11.1979 43.5566 9.78048 43.0099C8.36306 42.4632 6.79427 42.4559 5.37178 42.9892C3.94929 43.5226 2.77207 44.5596 2.0635 45.9034C1.35493 47.2472 1.1643 48.8044 1.52779 50.2795C1.89128 51.7546 2.78359 53.0449 4.03542 53.9056C5.28725 54.7664 6.81149 55.1376 8.31893 54.949C9.82637 54.7604 11.2121 54.0249 12.2132 52.8823C13.2144 51.7396 13.7612 50.2692 13.75 48.75C13.75 48.625 13.72 48.5 13.7113 48.375L24.6975 45.4175C25.9623 48.9685 28.4176 51.972 31.6463 53.9175L29 59.2C26.8977 58.496 24.6068 58.6144 22.5883 59.5314C20.5698 60.4485 18.9736 62.0961 18.1209 64.1426C17.2683 66.1892 17.2226 68.4827 17.9929 70.5616C18.7632 72.6406 20.2925 74.3505 22.2728 75.3473C24.2531 76.3441 26.5375 76.5538 28.6662 75.9341C30.7949 75.3144 32.6099 73.9114 33.7458 72.0075C34.8816 70.1035 35.2542 67.8399 34.7883 65.6724C34.3225 63.5048 33.0529 61.5942 31.235 60.325L33.875 55.0425C36.6356 56.1743 39.6556 56.5196 42.6004 56.0401C45.5452 55.5607 48.2997 54.2753 50.5588 52.3263L56.5763 58.3438C54.7826 60.5414 53.7902 63.2839 53.7622 66.1205C53.7342 68.957 54.6723 71.7186 56.4222 73.9512C58.1721 76.1837 60.6297 77.7544 63.3908 78.4047C66.1519 79.0551 69.0522 78.7465 71.6146 77.5297C74.177 76.3129 76.2491 74.2603 77.4901 71.7095C78.731 69.1586 79.067 66.2615 78.4428 63.4943C77.8185 60.7272 76.2712 58.2549 74.0552 56.4839C71.8393 54.713 69.0867 53.7488 66.25 53.75ZM73.75 36.25C74.2445 36.25 74.7278 36.3966 75.1389 36.6714C75.5501 36.9461 75.8705 37.3365 76.0597 37.7933C76.2489 38.2501 76.2984 38.7528 76.202 39.2378C76.1055 39.7227 75.8674 40.1682 75.5178 40.5178C75.1681 40.8674 74.7227 41.1055 74.2377 41.202C73.7528 41.2985 73.2501 41.2489 72.7933 41.0597C72.3365 40.8705 71.946 40.5501 71.6713 40.139C71.3966 39.7278 71.25 39.2445 71.25 38.75C71.25 38.087 71.5134 37.4511 71.9822 36.9823C72.4511 36.5134 73.087 36.25 73.75 36.25ZM53.75 10C54.7389 10 55.7056 10.2933 56.5279 10.8427C57.3501 11.3921 57.991 12.173 58.3694 13.0866C58.7478 14.0002 58.8469 15.0056 58.6539 15.9755C58.461 16.9454 57.9848 17.8363 57.2855 18.5356C56.5863 19.2348 55.6954 19.711 54.7255 19.904C53.7556 20.0969 52.7502 19.9979 51.8366 19.6194C50.923 19.241 50.1421 18.6001 49.5927 17.7779C49.0433 16.9556 48.75 15.9889 48.75 15C48.75 13.6739 49.2768 12.4022 50.2145 11.4645C51.1522 10.5268 52.4239 10 53.75 10ZM7.5 52.5C6.75832 52.5 6.0333 52.2801 5.41661 51.868C4.79993 51.456 4.31928 50.8703 4.03545 50.1851C3.75163 49.4999 3.67736 48.7459 3.82206 48.0184C3.96675 47.291 4.32391 46.6228 4.84835 46.0984C5.3728 45.5739 6.04099 45.2168 6.76841 45.0721C7.49584 44.9274 8.24984 45.0017 8.93507 45.2855C9.62029 45.5693 10.206 46.05 10.618 46.6666C11.0301 47.2833 11.25 48.0083 11.25 48.75C11.25 49.7446 10.8549 50.6984 10.1517 51.4017C9.44839 52.1049 8.49457 52.5 7.5 52.5ZM32.5 67.5C32.5 68.7362 32.1334 69.9445 31.4467 70.9723C30.7599 72.0001 29.7838 72.8012 28.6418 73.2743C27.4997 73.7473 26.2431 73.8711 25.0307 73.6299C23.8183 73.3888 22.7047 72.7935 21.8306 71.9194C20.9565 71.0454 20.3613 69.9317 20.1201 68.7193C19.8789 67.507 20.0027 66.2503 20.4758 65.1082C20.9488 63.9662 21.7499 62.9901 22.7777 62.3033C23.8055 61.6166 25.0139 61.25 26.25 61.25C27.907 61.252 29.4956 61.9111 30.6672 63.0828C31.8389 64.2545 32.498 65.843 32.5 67.5ZM3.75 13.75C3.74612 12.1252 4.13821 10.524 4.89234 9.08476C5.64648 7.64556 6.73994 6.41181 8.07811 5.49024C9.41628 4.56867 10.9589 3.98705 12.5724 3.79571C14.1859 3.60437 15.8217 3.80908 17.3383 4.39211C18.8549 4.97514 20.2066 5.91893 21.2764 7.14183C22.3462 8.36473 23.1019 9.82989 23.4782 11.4105C23.8544 12.9912 23.8398 14.6397 23.4357 16.2134C23.0316 17.7872 22.25 19.2387 21.1588 20.4425C21.2164 20.302 21.2474 20.1519 21.25 20C21.2532 19.0147 21.0608 18.0386 20.684 17.1282C20.3072 16.2178 19.7535 15.3912 19.055 14.6963C18.5569 14.1982 17.9914 13.7724 17.375 13.4313C18.0506 12.723 18.5034 11.8319 18.6773 10.8687C18.8512 9.90539 18.7386 8.91226 18.3533 8.01242C17.9681 7.11258 17.3272 6.34561 16.5101 5.80662C15.693 5.26762 14.7357 4.98031 13.7569 4.98031C12.778 4.98031 11.8207 5.26762 11.0036 5.80662C10.1866 6.34561 9.54567 7.11258 9.16042 8.01242C8.77517 8.91226 8.66252 9.90539 8.83643 10.8687C9.01034 11.8319 9.46316 12.723 10.1388 13.4313C8.9619 14.0778 7.9802 15.0284 7.29616 16.1839C6.61212 17.3394 6.25083 18.6573 6.25 20C6.25255 20.1504 6.28219 20.299 6.3375 20.4388C4.67364 18.6083 3.75118 16.2237 3.75 13.75ZM13.75 12.5C13.2556 12.5 12.7722 12.3534 12.3611 12.0787C11.95 11.804 11.6295 11.4136 11.4403 10.9567C11.2511 10.4999 11.2016 9.99726 11.298 9.5123C11.3945 9.02735 11.6326 8.58189 11.9822 8.23226C12.3319 7.88263 12.7773 7.64453 13.2623 7.54807C13.7472 7.4516 14.2499 7.50111 14.7067 7.69033C15.1635 7.87955 15.554 8.19998 15.8287 8.6111C16.1034 9.02223 16.25 9.50558 16.25 10C16.25 10.6631 15.9866 11.299 15.5178 11.7678C15.0489 12.2366 14.413 12.5 13.75 12.5ZM13.75 15C14.8585 15 15.9355 15.3684 16.8119 16.0472C17.6882 16.726 18.3141 17.6767 18.5913 18.75H8.9075C9.18603 17.6773 9.8125 16.7272 10.6888 16.0486C11.5651 15.37 12.6417 15.0012 13.75 15ZM7.0625 21.1625C7.20181 21.218 7.35007 21.2477 7.5 21.25H20C20.1522 21.2479 20.3027 21.2174 20.4438 21.16C18.6142 22.8245 16.2297 23.7469 13.7563 23.7469C11.2828 23.7469 8.8983 22.8245 7.06875 21.16L7.0625 21.1625ZM26.25 40C26.25 37.2805 27.0564 34.6221 28.5673 32.3609C30.0782 30.0998 32.2256 28.3374 34.7381 27.2967C37.2506 26.256 40.0153 25.9837 42.6825 26.5142C45.3497 27.0448 47.7998 28.3543 49.7227 30.2773C51.6457 32.2003 52.9553 34.6503 53.4858 37.3175C54.0163 39.9848 53.7441 42.7494 52.7033 45.2619C51.6626 47.7744 49.9003 49.9219 47.6391 51.4327C45.3779 52.9436 42.7195 53.75 40 53.75C36.3546 53.7457 32.8597 52.2957 30.282 49.718C27.7043 47.1403 26.2543 43.6454 26.25 40ZM59.5625 73.6625C59.7018 73.718 59.8501 73.7477 60 73.75H72.5C72.6522 73.7479 72.8027 73.7174 72.9438 73.66C71.1142 75.3245 68.7297 76.2469 66.2563 76.2469C63.7828 76.2469 61.3983 75.3245 59.5688 73.66L59.5625 73.6625ZM66.25 65C65.7556 65 65.2722 64.8534 64.8611 64.5787C64.45 64.304 64.1295 63.9135 63.9403 63.4567C63.7511 62.9999 63.7016 62.4972 63.798 62.0123C63.8945 61.5273 64.1326 61.0819 64.4822 60.7323C64.8319 60.3826 65.2773 60.1445 65.7623 60.0481C66.2472 59.9516 66.7499 60.0011 67.2067 60.1903C67.6635 60.3795 68.054 60.7 68.3287 61.1111C68.6034 61.5222 68.75 62.0056 68.75 62.5C68.75 63.1631 68.4866 63.799 68.0178 64.2678C67.5489 64.7366 66.913 65 66.25 65ZM66.25 67.5C67.3585 67.5 68.4355 67.8684 69.3119 68.5472C70.1882 69.226 70.8141 70.1767 71.0913 71.25H61.4075C61.686 70.1773 62.3125 69.2272 63.1888 68.5486C64.0651 67.87 65.1417 67.5012 66.25 67.5ZM73.6575 72.9425C73.7156 72.8021 73.747 72.652 73.75 72.5C73.7532 71.5147 73.5608 70.5386 73.184 69.6282C72.8072 68.7178 72.2535 67.8912 71.555 67.1963C71.0569 66.6982 70.4914 66.2724 69.875 65.9313C70.5506 65.223 71.0034 64.3319 71.1773 63.3687C71.3512 62.4054 71.2386 61.4123 70.8533 60.5124C70.4681 59.6126 69.8272 58.8456 69.0101 58.3066C68.193 57.7676 67.2357 57.4803 66.2569 57.4803C65.278 57.4803 64.3207 57.7676 63.5036 58.3066C62.6866 58.8456 62.0457 59.6126 61.6604 60.5124C61.2752 61.4123 61.1625 62.4054 61.3364 63.3687C61.5103 64.3319 61.9632 65.223 62.6388 65.9313C61.4619 66.5778 60.4802 67.5284 59.7962 68.6839C59.1121 69.8394 58.7508 71.1573 58.75 72.5C58.7525 72.6503 58.7822 72.799 58.8375 72.9388C57.5377 71.5042 56.6822 69.7231 56.3749 67.8118C56.0676 65.9004 56.3217 63.941 57.1064 62.1712C57.891 60.4015 59.1725 58.8976 60.7952 57.8419C62.418 56.7863 64.3122 56.2244 66.2481 56.2244C68.184 56.2244 70.0783 56.7863 71.701 57.8419C73.3238 58.8976 74.6052 60.4015 75.3899 62.1712C76.1745 63.941 76.4286 65.9004 76.1213 67.8118C75.814 69.7231 74.9586 71.5042 73.6588 72.9388L73.6575 72.9425Z" fill="#35FFE7" fill-opacity="0.96"/>
</svg>
