<svg width="80" height="80" viewBox="0 0 80 80" fill="none" xmlns="http://www.w3.org/2000/svg">
<g clip-path="url(#clip0_1555_768)">
<path d="M60 61.6667H3.33334C2.41334 61.6667 1.66667 60.92 1.66667 60V36.6667C1.66667 35.7467 2.41334 35 3.33334 35H60C60.92 35 61.6667 35.7467 61.6667 36.6667V60C61.6667 60.92 60.92 61.6667 60 61.6667ZM5.00001 58.3333H58.3333V38.3333H5.00001V58.3333Z" fill="#35FFE7" fill-opacity="0.96"/>
<path d="M60 55C59.08 55 58.3333 54.2533 58.3333 53.3333V36.6667C58.3333 35.7467 59.08 35 60 35H76.6667C77.5867 35 78.3333 35.7467 78.3333 36.6667C78.3333 46.775 70.1083 55 60 55ZM61.6667 38.3333V51.575C68.6083 50.805 74.1367 45.275 74.9083 38.3333H61.6667Z" fill="#35FFE7" fill-opacity="0.96"/>
<path d="M38.3333 30H21.6667C20.7467 30 20 29.2533 20 28.3333V6.665C20 6.14 20.2467 5.64667 20.6667 5.33167L27.3333 0.333333C27.6217 0.116667 27.9733 0 28.3333 0H38.3333C39.2533 0 40 0.746667 40 1.66667V28.3333C40 29.2533 39.2533 30 38.3333 30ZM23.3333 26.6667H36.6667V3.33333H28.8883L23.3333 7.49833V26.6667Z" fill="#35FFE7" fill-opacity="0.96"/>
<path d="M68.3333 20H38.3333C37.4133 20 36.6667 19.2533 36.6667 18.3333V11.6667C36.6667 10.7467 37.4133 10 38.3333 10H68.3333C69.2533 10 70 10.7467 70 11.6667V18.3333C70 19.2533 69.2533 20 68.3333 20ZM40 16.6667H66.6667V13.3333H40V16.6667Z" fill="#35FFE7" fill-opacity="0.96"/>
<path d="M21.6667 20H15C14.08 20 13.3333 19.2533 13.3333 18.3333V11.6667C13.3333 10.7467 14.08 10 15 10H21.6667C22.5867 10 23.3333 10.7467 23.3333 11.6667V18.3333C23.3333 19.2533 22.5867 20 21.6667 20ZM16.6667 16.6667H20V13.3333H16.6667V16.6667Z" fill="#35FFE7" fill-opacity="0.96"/>
<path d="M15 31.6666C14.5733 31.6666 14.1467 31.5033 13.8217 31.1783L10.4883 27.8449C9.83667 27.1933 9.83667 26.1399 10.4883 25.4883C11.14 24.8366 12.1933 24.8366 12.845 25.4883L16.1783 28.8216C16.83 29.4733 16.83 30.5266 16.1783 31.1783C15.8533 31.5033 15.4267 31.6666 15 31.6666Z" fill="#35FFE7" fill-opacity="0.96"/>
<path d="M6.66666 31.6666C6.23999 31.6666 5.81333 31.5033 5.48833 31.1783L2.15499 27.8449C1.50333 27.1933 1.50333 26.1399 2.15499 25.4883C2.80666 24.8366 3.85999 24.8366 4.51166 25.4883L7.84499 28.8216C8.49666 29.4733 8.49666 30.5266 7.84499 31.1783C7.51999 31.5033 7.09333 31.6666 6.66666 31.6666Z" fill="#35FFE7" fill-opacity="0.96"/>
<path d="M45 31.6666C44.5733 31.6666 44.1467 31.5033 43.8217 31.1783C43.17 30.5266 43.17 29.4733 43.8217 28.8216L47.155 25.4883C47.8067 24.8366 48.86 24.8366 49.5117 25.4883C50.1633 26.1399 50.1633 27.1933 49.5117 27.8449L46.1783 31.1783C45.8533 31.5033 45.4267 31.6666 45 31.6666Z" fill="#35FFE7" fill-opacity="0.96"/>
<path d="M53.3333 31.6666C52.9067 31.6666 52.48 31.5033 52.155 31.1783C51.5033 30.5266 51.5033 29.4733 52.155 28.8216L55.4883 25.4883C56.14 24.8366 57.1933 24.8366 57.845 25.4883C58.4967 26.1399 58.4967 27.1933 57.845 27.8449L54.5117 31.1783C54.1867 31.5033 53.76 31.6666 53.3333 31.6666Z" fill="#35FFE7" fill-opacity="0.96"/>
<path d="M51.6667 80H11.6667C10.7467 80 10 79.2533 10 78.3333V71.6667C10 70.7467 10.7467 70 11.6667 70H51.6667C52.5867 70 53.3333 70.7467 53.3333 71.6667V78.3333C53.3333 79.2533 52.5867 80 51.6667 80ZM13.3333 76.6667H50V73.3333H13.3333V76.6667Z" fill="#35FFE7" fill-opacity="0.96"/>
<path d="M45 73.3335H18.3333C17.58 73.3335 16.92 72.8285 16.725 72.1018C16.5283 71.3752 16.8433 70.6068 17.4933 70.2268C17.6833 70.1118 22.3817 67.2052 22.3783 60.0002C22.3783 59.5568 22.5533 59.1335 22.8667 58.8202C23.18 58.5068 23.6033 58.3335 24.045 58.3335H39.2883C39.73 58.3335 40.155 58.5085 40.4667 58.8218C40.7783 59.1352 40.955 59.5585 40.955 60.0018C40.9533 67.2068 45.65 70.1135 45.85 70.2335C46.4917 70.6185 46.8017 71.3885 46.6017 72.1102C46.4017 72.8318 45.7483 73.3335 45 73.3335ZM22.4983 70.0002H40.8367C39.42 68.1552 38.0183 65.4285 37.6933 61.6668H25.6433C25.315 65.4285 23.9133 68.1552 22.4983 70.0002Z" fill="#35FFE7" fill-opacity="0.96"/>
<path d="M55 79.9998H8.33334C7.41334 79.9998 6.66667 79.2532 6.66667 78.3332C6.66667 77.4132 7.41334 76.6665 8.33334 76.6665H55C55.92 76.6665 56.6667 77.4132 56.6667 78.3332C56.6667 79.2532 55.92 79.9998 55 79.9998Z" fill="#35FFE7" fill-opacity="0.96"/>
</g>
<defs>
<clipPath id="clip0_1555_768">
<rect width="80" height="80" fill="white"/>
</clipPath>
</defs>
</svg>
