<svg width="131" height="131" viewBox="0 0 131 131" fill="none" xmlns="http://www.w3.org/2000/svg">
<path d="M130.5 67.4931H124.497C124.528 66.7003 124.558 65.9075 124.558 65.1064C124.558 32.4864 98.1314 6.0441 65.5313 6.0441C64.7306 6.0441 63.9383 6.07331 63.146 6.1046V0.0980225C50.9775 0.540327 39.6597 4.34999 30.0767 10.609C31.236 12.2343 32.3786 13.8658 33.5171 15.4973C24.1176 21.5832 16.5634 30.2624 11.8595 40.5334C10.0872 39.6175 8.31068 38.7079 6.53211 37.8045C2.67056 46.1102 0.5 55.3569 0.5 65.1064C0.5 81.1441 6.34028 95.8298 15.99 107.182L20.2185 102.951C31.0463 115.915 47.3223 124.169 65.5292 124.169C66.5655 124.169 67.5955 124.142 68.6193 124.087V130.098C75.1747 129.789 81.4737 128.494 87.3849 126.374C86.7573 124.482 86.1109 122.593 85.4541 120.712C99.3011 115.744 110.75 105.746 117.608 92.9194C119.161 94.1879 120.709 95.4627 122.256 96.7374C127.147 88.0228 130.116 78.0939 130.5 67.4931ZM65.5313 120.563C34.9725 120.563 10.1101 95.6859 10.1101 65.1085C10.1101 34.531 34.9725 9.65347 65.5313 9.65347C96.0901 9.65347 120.952 34.531 120.952 65.1085C120.952 95.6859 96.0901 120.563 65.5313 120.563Z" fill="#35FFE7" fill-opacity="0.96"/>
<path d="M67.819 65.4C68.8098 64.8813 69.5981 64.0454 70.0579 63.026C70.5177 62.0065 70.6224 60.8623 70.3553 59.7763C70.0883 58.6903 69.4648 57.7252 68.5846 57.0352C67.7044 56.3453 66.6184 55.9703 65.5 55.9703C64.3816 55.9703 63.2956 56.3453 62.4154 57.0352C61.5352 57.7252 60.9117 58.6903 60.6447 59.7763C60.3776 60.8623 60.4823 62.0065 60.9421 63.026C61.4019 64.0454 62.1902 64.8813 63.181 65.4C61.8141 65.8811 60.6299 66.7741 59.7916 67.9561C58.9532 69.1381 58.502 70.5509 58.5 72C58.5 72.2653 58.6054 72.5196 58.7929 72.7071C58.9804 72.8947 59.2348 73 59.5 73H71.5C71.7652 73 72.0196 72.8947 72.2071 72.7071C72.3946 72.5196 72.5 72.2653 72.5 72C72.498 70.5509 72.0468 69.1381 71.2084 67.9561C70.3701 66.7741 69.1859 65.8811 67.819 65.4ZM65.5 58C66.0933 58 66.6734 58.176 67.1667 58.5056C67.6601 58.8353 68.0446 59.3038 68.2716 59.852C68.4987 60.4002 68.5581 61.0034 68.4424 61.5853C68.3266 62.1673 68.0409 62.7018 67.6213 63.1214C67.2018 63.5409 66.6672 63.8266 66.0853 63.9424C65.5033 64.0581 64.9001 63.9987 64.3519 63.7717C63.8038 63.5446 63.3352 63.1601 63.0056 62.6667C62.6759 62.1734 62.5 61.5934 62.5 61C62.5 60.2044 62.8161 59.4413 63.3787 58.8787C63.9413 58.3161 64.7044 58 65.5 58ZM60.6 71C60.8295 69.8697 61.4427 68.8536 62.3357 68.1237C63.2288 67.3938 64.3466 66.995 65.5 66.995C66.6534 66.995 67.7712 67.3938 68.6643 68.1237C69.5573 68.8536 70.1705 69.8697 70.4 71H60.6Z" fill="#35FFE7" fill-opacity="0.96"/>
<path d="M86.5 75.9999C84.1937 75.9982 81.9584 76.7974 80.176 78.2609L75.362 73.4469C77.2645 71.2317 78.3613 68.4378 78.474 65.5199L88.686 65.1419C88.9708 66.0651 89.5822 66.8528 90.4059 67.3576C91.2295 67.8624 92.2089 68.0498 93.1607 67.8846C94.1126 67.7194 94.9715 67.2129 95.5769 66.4601C96.1823 65.7072 96.4925 64.7596 96.4496 63.7945C96.4066 62.8294 96.0134 61.913 95.3436 61.2169C94.6737 60.5208 93.7732 60.0927 92.8104 60.0127C91.8477 59.9327 90.8888 60.2063 90.1133 60.7823C89.3377 61.3583 88.7987 62.1972 88.597 63.1419L78.409 63.5189C78.1908 61.6253 77.5588 59.8029 76.5579 58.1807C75.557 56.5585 74.2116 55.1763 72.617 54.1319L74.528 50.6579C75.9504 51.1544 77.5075 51.0984 78.8905 50.5009C80.2735 49.9035 81.3816 48.8082 81.9952 47.4322C82.6087 46.0562 82.6829 44.4999 82.203 43.0718C81.7231 41.6437 80.7242 40.448 79.4042 39.7218C78.0842 38.9955 76.5396 38.7916 75.0764 39.1506C73.6132 39.5096 72.3383 40.4051 71.5043 41.6598C70.6704 42.9145 70.3382 44.4368 70.5738 45.9248C70.8093 47.4129 71.5953 48.7581 72.776 49.6939L70.864 53.1699C68.6155 52.1403 66.1185 51.7782 63.6701 52.1267C61.2217 52.4752 58.9249 53.5197 57.053 55.1359L52.239 50.3219C53.8656 48.3325 54.6654 45.794 54.4728 43.2315C54.2803 40.669 53.1102 38.2785 51.2046 36.5545C49.299 34.8305 46.8036 33.9048 44.2346 33.9691C41.6657 34.0333 39.2197 35.0825 37.4026 36.8996C35.5855 38.7167 34.5364 41.1626 34.4721 43.7316C34.4079 46.3005 35.3335 48.7959 37.0575 50.7015C38.7815 52.6072 41.172 53.7773 43.7346 53.9698C46.2971 54.1623 48.8356 53.3626 50.825 51.7359L55.639 56.5499C54.3651 58.0207 53.4416 59.7613 52.938 61.6407C52.4345 63.5201 52.364 65.4893 52.732 67.3999L43.949 69.7639C43.3923 68.6836 42.4583 67.8452 41.3244 67.4079C40.1904 66.9705 38.9354 66.9646 37.7974 67.3913C36.6594 67.818 35.7177 68.6476 35.1508 69.7227C34.5839 70.7977 34.4314 72.0435 34.7222 73.2235C35.013 74.4036 35.7269 75.4358 36.7283 76.1244C37.7298 76.813 38.9492 77.11 40.1551 76.9591C41.3611 76.8082 42.4697 76.2199 43.2706 75.3057C44.0715 74.3916 44.509 73.2153 44.5 71.9999C44.5 71.8999 44.476 71.7999 44.469 71.6999L53.258 69.3339C54.2698 72.1747 56.2341 74.5775 58.817 76.1339L56.7 80.3599C55.0182 79.7967 53.1854 79.8914 51.5706 80.6251C49.9558 81.3587 48.6788 82.6768 47.9968 84.314C47.3147 85.9513 47.2781 87.7861 47.8943 89.4492C48.5106 91.1124 49.734 92.4803 51.3182 93.2778C52.9025 94.0752 54.73 94.243 56.433 93.7472C58.1359 93.2515 59.5879 92.1291 60.4966 90.6059C61.4053 89.0827 61.7033 87.2719 61.3307 85.5378C60.958 83.8038 59.9423 82.2753 58.488 81.2599L60.6 77.0339C62.8085 77.9394 65.2245 78.2156 67.5803 77.832C69.9362 77.4485 72.1398 76.4201 73.947 74.8609L78.761 79.6749C77.3261 81.433 76.5321 83.6271 76.5097 85.8963C76.4873 88.1655 77.2378 90.3748 78.6378 92.1609C80.0377 93.9469 82.0038 95.2034 84.2127 95.7237C86.4216 96.244 88.7417 95.9971 90.7917 95.0237C92.8416 94.0502 94.4993 92.4081 95.4921 90.3675C96.4848 88.3268 96.7536 86.0091 96.2542 83.7954C95.7548 81.5817 94.5169 79.6038 92.7442 78.1871C90.9714 76.7703 88.7693 75.999 86.5 75.9999ZM92.5 61.9999C92.8956 61.9999 93.2822 62.1172 93.6111 62.337C93.94 62.5568 94.1964 62.8691 94.3478 63.2346C94.4991 63.6 94.5387 64.0022 94.4616 64.3901C94.3844 64.7781 94.1939 65.1345 93.9142 65.4142C93.6345 65.6939 93.2781 65.8843 92.8902 65.9615C92.5022 66.0387 92.1001 65.9991 91.7346 65.8477C91.3692 65.6963 91.0568 65.44 90.8371 65.1111C90.6173 64.7822 90.5 64.3955 90.5 63.9999C90.5 63.4695 90.7107 62.9608 91.0858 62.5857C91.4609 62.2107 91.9696 61.9999 92.5 61.9999ZM76.5 40.9999C77.2911 40.9999 78.0645 41.2345 78.7223 41.6741C79.3801 42.1136 79.8928 42.7383 80.1955 43.4692C80.4983 44.2001 80.5775 45.0044 80.4231 45.7803C80.2688 46.5562 79.8878 47.269 79.3284 47.8284C78.769 48.3878 78.0563 48.7688 77.2804 48.9231C76.5044 49.0774 75.7002 48.9982 74.9693 48.6955C74.2384 48.3927 73.6137 47.88 73.1741 47.2222C72.7346 46.5644 72.5 45.7911 72.5 44.9999C72.5 43.9391 72.9214 42.9217 73.6716 42.1715C74.4217 41.4214 75.4391 40.9999 76.5 40.9999ZM39.5 74.9999C38.9067 74.9999 38.3266 74.824 37.8333 74.4944C37.3399 74.1647 36.9554 73.6962 36.7284 73.148C36.5013 72.5998 36.4419 71.9966 36.5576 71.4147C36.6734 70.8327 36.9591 70.2982 37.3787 69.8786C37.7982 69.4591 38.3328 69.1733 38.9147 69.0576C39.4967 68.9418 40.0999 69.0012 40.6481 69.2283C41.1962 69.4554 41.6648 69.8399 41.9944 70.3332C42.3241 70.8266 42.5 71.4066 42.5 71.9999C42.5 72.7956 42.1839 73.5587 41.6213 74.1213C41.0587 74.6839 40.2957 74.9999 39.5 74.9999ZM59.5 86.9999C59.5 87.9889 59.2068 88.9556 58.6574 89.7778C58.1079 90.6 57.3271 91.2409 56.4134 91.6193C55.4998 91.9978 54.4945 92.0968 53.5245 91.9039C52.5546 91.7109 51.6637 91.2347 50.9645 90.5355C50.2652 89.8362 49.789 88.9453 49.5961 87.9754C49.4031 87.0055 49.5022 86.0002 49.8806 85.0865C50.259 84.1729 50.8999 83.392 51.7222 82.8426C52.5444 82.2932 53.5111 81.9999 54.5 81.9999C55.8256 82.0015 57.0964 82.5288 58.0338 83.4662C58.9711 84.4035 59.4984 85.6744 59.5 86.9999ZM36.5 43.9999C36.4969 42.7001 36.8106 41.4191 37.4139 40.2677C38.0172 39.1164 38.892 38.1294 39.9625 37.3921C41.033 36.6549 42.2671 36.1896 43.5579 36.0365C44.8487 35.8834 46.1573 36.0472 47.3706 36.5136C48.5839 36.98 49.6653 37.7351 50.5211 38.7134C51.377 39.6917 51.9816 40.8638 52.2825 42.1284C52.5835 43.3929 52.5719 44.7117 52.2486 45.9707C51.9252 47.2297 51.3 48.3909 50.427 49.3539C50.4731 49.2415 50.4979 49.1215 50.5 48.9999C50.5025 48.2117 50.3486 47.4308 50.0472 46.7025C49.7458 45.9741 49.3028 45.3129 48.744 44.7569C48.3455 44.3585 47.8931 44.0178 47.4 43.7449C47.9405 43.1783 48.3027 42.4655 48.4419 41.6949C48.581 40.9242 48.4909 40.1297 48.1827 39.4099C47.8745 38.69 47.3617 38.0764 46.7081 37.6452C46.0544 37.214 45.2886 36.9842 44.5055 36.9842C43.7224 36.9842 42.9566 37.214 42.3029 37.6452C41.6493 38.0764 41.1365 38.69 40.8283 39.4099C40.5201 40.1297 40.43 40.9242 40.5691 41.6949C40.7083 42.4655 41.0705 43.1783 41.611 43.7449C40.6695 44.2622 39.8842 45.0227 39.3369 45.947C38.7897 46.8714 38.5007 47.9257 38.5 48.9999C38.502 49.1202 38.5258 49.2391 38.57 49.3509C37.2389 47.8866 36.5009 45.9789 36.5 43.9999ZM44.5 42.9999C44.1044 42.9999 43.7178 42.8827 43.3889 42.6629C43.06 42.4431 42.8036 42.1308 42.6522 41.7653C42.5009 41.3999 42.4613 40.9977 42.5384 40.6098C42.6156 40.2218 42.8061 39.8654 43.0858 39.5857C43.3655 39.306 43.7219 39.1155 44.1098 39.0384C44.4978 38.9612 44.8999 39.0008 45.2654 39.1522C45.6308 39.3036 45.9432 39.5599 46.1629 39.8888C46.3827 40.2177 46.5 40.6044 46.5 40.9999C46.5 41.5304 46.2893 42.0391 45.9142 42.4142C45.5391 42.7892 45.0304 42.9999 44.5 42.9999ZM44.5 44.9999C45.3868 44.9999 46.2484 45.2946 46.9495 45.8377C47.6506 46.3807 48.1513 47.1413 48.373 47.9999H40.626C40.8488 47.1418 41.35 46.3817 42.051 45.8388C42.7521 45.296 43.6134 45.0009 44.5 44.9999ZM39.15 49.9299C39.2615 49.9743 39.3801 49.9981 39.5 49.9999H49.5C49.6218 49.9983 49.7422 49.9738 49.855 49.9279C48.3914 51.2596 46.4837 51.9975 44.505 51.9975C42.5263 51.9975 40.6186 51.2596 39.155 49.9279L39.15 49.9299ZM54.5 64.9999C54.5 62.8244 55.1451 60.6976 56.3538 58.8887C57.5625 57.0797 59.2805 55.6698 61.2905 54.8373C63.3005 54.0047 65.5122 53.7869 67.646 54.2113C69.7798 54.6357 71.7398 55.6834 73.2782 57.2218C74.8166 58.7602 75.8642 60.7202 76.2886 62.854C76.7131 64.9877 76.4952 67.1995 75.6627 69.2095C74.8301 71.2195 73.4202 72.9374 71.6113 74.1461C69.8023 75.3548 67.6756 75.9999 65.5 75.9999C62.5837 75.9965 59.7878 74.8365 57.7256 72.7743C55.6635 70.7122 54.5034 67.9163 54.5 64.9999ZM81.15 91.9299C81.2615 91.9743 81.3801 91.9981 81.5 91.9999H91.5C91.6218 91.9983 91.7422 91.9738 91.855 91.9279C90.3914 93.2596 88.4837 93.9975 86.505 93.9975C84.5263 93.9975 82.6186 93.2596 81.155 91.9279L81.15 91.9299ZM86.5 84.9999C86.1044 84.9999 85.7178 84.8827 85.3889 84.6629C85.06 84.4431 84.8036 84.1308 84.6522 83.7653C84.5009 83.3999 84.4613 82.9977 84.5384 82.6098C84.6156 82.2218 84.8061 81.8654 85.0858 81.5857C85.3655 81.306 85.7219 81.1155 86.1098 81.0384C86.4978 80.9612 86.8999 81.0008 87.2654 81.1522C87.6308 81.3036 87.9432 81.5599 88.1629 81.8888C88.3827 82.2177 88.5 82.6044 88.5 82.9999C88.5 83.5304 88.2893 84.0391 87.9142 84.4142C87.5391 84.7892 87.0304 84.9999 86.5 84.9999ZM86.5 86.9999C87.3868 86.9999 88.2484 87.2946 88.9495 87.8377C89.6506 88.3807 90.1513 89.1413 90.373 89.9999H82.626C82.8488 89.1418 83.35 88.3817 84.051 87.8388C84.7521 87.2959 85.6133 87.0009 86.5 86.9999ZM92.426 91.3539C92.4725 91.2416 92.4976 91.1215 92.5 90.9999C92.5025 90.2117 92.3486 89.4308 92.0472 88.7025C91.7458 87.9741 91.3028 87.3129 90.744 86.7569C90.3455 86.3585 89.8931 86.0178 89.4 85.7449C89.9405 85.1783 90.3027 84.4655 90.4419 83.6949C90.581 82.9242 90.4909 82.1297 90.1827 81.4099C89.8745 80.69 89.3617 80.0764 88.7081 79.6452C88.0544 79.214 87.2886 78.9842 86.5055 78.9842C85.7224 78.9842 84.9566 79.214 84.3029 79.6452C83.6493 80.0764 83.1365 80.69 82.8283 81.4099C82.5201 82.1297 82.43 82.9242 82.5691 83.6949C82.7083 84.4655 83.0705 85.1783 83.611 85.7449C82.6695 86.2622 81.8842 87.0227 81.3369 87.947C80.7897 88.8714 80.5007 89.9257 80.5 90.9999C80.502 91.1202 80.5258 91.2391 80.57 91.3509C79.5301 90.2033 78.8458 88.7784 78.5999 87.2493C78.3541 85.7203 78.5574 84.1527 79.1851 82.7369C79.8128 81.3211 80.838 80.118 82.1362 79.2735C83.4344 78.429 84.9498 77.9795 86.4985 77.9795C88.0472 77.9795 89.5626 78.429 90.8608 79.2735C92.159 80.118 93.1842 81.3211 93.8119 82.7369C94.4396 84.1527 94.6429 85.7203 94.3971 87.2493C94.1512 88.7784 93.4669 90.2033 92.427 91.3509L92.426 91.3539Z" fill="#35FFE7" fill-opacity="0.96"/>
</svg>
