<svg width="94" height="81" viewBox="0 0 94 81" fill="none" xmlns="http://www.w3.org/2000/svg">
<path d="M92.7328 17.0546C92.0187 16.2788 91.0732 15.7264 89.9239 15.4154L73.6208 11.3753V5.48849C73.6208 2.4621 71.15 0 68.113 0H25.8867C22.8497 0 20.3789 2.4621 20.3789 5.48849V11.3762L4.11194 15.4066C4.10001 15.4095 4.08789 15.4126 4.07596 15.4159C1.52364 16.1034 0 17.9666 0 20.4001C0 21.0477 0.118969 21.79 0.132738 21.8725C0.141183 21.9232 0.151648 21.9735 0.164132 22.0233L13.8753 76.2808C14.5848 79.2363 17.5991 81.0981 20.5184 80.3236L47.001 73.9645L73.4814 80.323C76.245 81.1365 79.4978 79.1793 80.1238 76.2817V76.2797L84.5209 58.8829C84.7546 58.0373 84.2079 56.8952 83.1878 56.6619C82.3442 56.4089 81.1598 57.0218 80.9608 57.9901L76.5601 75.4034C76.3491 76.2881 75.3902 77.0928 74.3404 76.7664L62.4564 73.9123H68.113C71.15 73.9123 73.6208 71.4502 73.6208 68.4239V42.1912L75.6515 41.7653C76.281 41.6332 76.7951 41.1825 77.007 40.5772L81.2296 28.5024C81.4492 27.8744 81.3097 27.1771 80.865 26.6813L73.6209 18.6031V15.1468L88.9857 18.9539C90.151 19.273 90.5035 19.9678 90.2617 21.1787L84.9946 42.0224C84.7465 43.0013 85.345 43.9983 86.3274 44.2435C87.1701 44.5009 88.3573 43.8841 88.5563 42.9171L93.8364 22.024L93.8566 21.9252C93.9502 21.4497 93.9982 20.9225 93.9998 20.4012C94.0106 19.1477 93.5498 17.9274 92.7328 17.0546ZM20.3789 38.452L20.1191 38.3975L16.5934 28.3156L20.3789 24.0944V38.452ZM19.6586 76.7664C18.7935 77.0679 17.6955 76.4381 17.4399 75.4032L3.74549 21.212C3.704 20.3046 3.26411 19.5526 5.01761 18.9526L20.3789 15.1468V18.603L13.1348 26.6811C12.6902 27.1769 12.5504 27.8743 12.7702 28.5022L16.9929 40.577C17.2045 41.1823 17.7188 41.6332 18.3483 41.7651L20.3789 42.1912V68.424C20.3789 71.4504 22.8497 73.9125 25.8867 73.9125H31.5435L19.6586 76.7664ZM77.4063 28.3158L73.8805 38.3976L73.6208 38.4522V24.0946L77.4063 28.3158ZM69.9489 68.424C69.9489 69.4328 69.1253 70.2536 68.113 70.2536H25.8867C24.8743 70.2536 24.0507 69.4328 24.0507 68.424V5.48849C24.0507 4.47975 24.8743 3.65893 25.8867 3.65893H68.1131C69.1255 3.65893 69.9491 4.47975 69.9491 5.48849V68.424H69.9489Z" fill="#35FFE7" fill-opacity="0.96"/>
<path d="M85.2057 48.6858C85.0588 48.6474 84.9083 48.6289 84.7579 48.6289C83.9151 48.6289 83.1827 49.198 82.9771 50.0124C82.7311 50.9913 83.3277 51.9867 84.31 52.2337C84.4568 52.2703 84.6092 52.2906 84.7598 52.2906C85.6006 52.2906 86.3332 51.7215 86.5386 50.9071C86.7846 49.9282 86.1879 48.931 85.2057 48.6858Z" fill="#35FFE7" fill-opacity="0.96"/>
<path d="M36.9023 46.4756C35.8885 46.4756 35.0663 47.2949 35.0663 48.3053V55.333L31.2054 47.5238C30.8283 46.7608 29.9723 46.3576 29.142 46.5506C28.3108 46.7436 27.7228 47.4821 27.7228 48.3326V62.9432C27.7228 63.9536 28.5449 64.773 29.5587 64.773C30.5725 64.773 31.3946 63.9536 31.3946 62.9432V56.1856L34.985 63.4475C35.4851 64.4561 36.4607 64.7324 37.2052 64.5589C37.9126 64.3942 38.7386 63.743 38.7386 62.4499V48.3053C38.7382 47.2949 37.9161 46.4756 36.9023 46.4756Z" fill="#35FFE7" fill-opacity="0.96"/>
<path d="M49.7538 50.1351C50.7676 50.1351 51.5898 49.3157 51.5898 48.3053C51.5898 47.2949 50.7676 46.4756 49.7538 46.4756H44.246C43.2322 46.4756 42.4101 47.2949 42.4101 48.3053V62.9432C42.4101 63.9536 43.2322 64.773 44.246 64.773C45.2598 64.773 46.082 63.9536 46.082 62.9432V57.3153H49.3163C50.3301 57.3153 51.1523 56.496 51.1523 55.4856C51.1523 54.4752 50.3301 53.6559 49.3163 53.6559H46.082V50.1351H49.7538Z" fill="#35FFE7" fill-opacity="0.96"/>
<path d="M64.4413 46.4756H57.0975C56.0837 46.4756 55.2616 47.2949 55.2616 48.3053C55.2616 49.3157 56.0837 50.1351 57.0975 50.1351H58.9186V62.9432C58.9186 63.9536 59.7407 64.773 60.7545 64.773C61.7683 64.773 62.5905 63.9536 62.5905 62.9432V50.1351H64.4413C65.4551 50.1351 66.2772 49.3157 66.2772 48.3053C66.2772 47.2949 65.4551 46.4756 64.4413 46.4756Z" fill="#35FFE7" fill-opacity="0.96"/>
<path d="M33.4111 34.518L46.079 41.837C46.3638 42.0015 46.6817 42.0838 46.9999 42.0838C47.3181 42.0838 47.6361 42.0016 47.9208 41.837L60.5888 34.518C61.1551 34.1907 61.5038 33.5876 61.5038 32.9351V18.2972C61.5038 17.6447 61.1551 17.0416 60.5888 16.7143L47.9208 9.39532C47.3513 9.06614 46.6485 9.06614 46.0792 9.39532L33.4112 16.7143C32.8447 17.0416 32.496 17.6447 32.496 18.2972V32.9351C32.496 33.5876 32.8447 34.1907 33.4111 34.518ZM36.1679 19.3515L46.9999 13.0932L57.8319 19.3515V31.881L46.9999 38.1392L36.1679 31.881V19.3515Z" fill="#35FFE7" fill-opacity="0.96"/>
</svg>
