<svg width="65" height="65" viewBox="0 0 65 65" fill="none" xmlns="http://www.w3.org/2000/svg">
<g clip-path="url(#clip0_594_21)">
<path d="M63.6373 16.651C63.1511 16.121 62.5073 15.7436 61.7248 15.5311L50.6248 12.7711V8.7495C50.6248 6.682 48.9426 5 46.8748 5H18.1249C16.0572 5 14.3749 6.682 14.3749 8.7495V12.7718L3.29956 15.5251C3.29144 15.5271 3.28319 15.5293 3.27506 15.5315C1.53731 16.0011 0.499939 17.274 0.499939 18.9365C0.499939 19.3789 0.580939 19.886 0.590314 19.9424C0.596064 19.977 0.603189 20.0114 0.611689 20.0454L9.94694 57.1118C10.4301 59.1309 12.4823 60.4028 14.4699 59.8736L32.5007 55.5294L50.5299 59.8733C52.4116 60.429 54.6262 59.0919 55.0524 57.1124V57.111L58.0462 45.2263C58.2053 44.6486 57.8331 43.8684 57.1386 43.709C56.5642 43.5361 55.7578 43.9549 55.6223 44.6164L52.6261 56.5124C52.4824 57.1168 51.8296 57.6665 51.1148 57.4435L43.0236 55.4938H46.8748C48.9426 55.4938 50.6248 53.8118 50.6248 51.7443V33.8233L52.0074 33.5323C52.4361 33.442 52.7861 33.1341 52.9303 32.7206L55.8053 24.4716C55.9548 24.0426 55.8598 23.5663 55.5571 23.2275L50.6249 17.7089V15.3476L61.0861 17.9485C61.8794 18.1665 62.1194 18.6411 61.9548 19.4684L58.3687 33.7079C58.1998 34.3766 58.6073 35.0578 59.2762 35.2253C59.8499 35.4011 60.6582 34.9798 60.7937 34.3191L64.3887 20.0459L64.4024 19.9784C64.4662 19.6535 64.4988 19.2934 64.4999 18.9373C64.5073 18.0809 64.1936 17.2473 63.6373 16.651ZM14.3749 31.2688L14.1981 31.2315L11.7976 24.344L14.3749 21.4603V31.2688ZM13.8846 57.4435C13.2956 57.6495 12.5479 57.2193 12.3739 56.5123L3.05006 19.4911C3.02181 18.8713 2.72231 18.3575 3.91619 17.9476L14.3749 15.3476V17.7088L9.44281 23.2274C9.14006 23.5661 9.04494 24.0425 9.19456 24.4715L12.0696 32.7205C12.2137 33.134 12.5638 33.442 12.9924 33.5321L14.3749 33.8233V51.7444C14.3749 53.8119 16.0572 55.4939 18.1249 55.4939H21.9764L13.8846 57.4435ZM53.2022 24.3441L50.8017 31.2316L50.6248 31.2689V21.4604L53.2022 24.3441ZM48.1248 51.7444C48.1248 52.4335 47.5641 52.9943 46.8748 52.9943H18.1249C17.4357 52.9943 16.8749 52.4335 16.8749 51.7444V8.7495C16.8749 8.06038 17.4357 7.49963 18.1249 7.49963H46.8749C47.5642 7.49963 48.1249 8.06038 48.1249 8.7495V51.7444H48.1248Z" fill="#35FFE7" fill-opacity="0.96"/>
<path d="M58.5124 38.2599C58.4124 38.2337 58.3099 38.2211 58.2076 38.2211C57.6337 38.2211 57.1351 38.6098 56.9951 39.1662C56.8276 39.8349 57.2338 40.5149 57.9026 40.6837C58.0026 40.7087 58.1063 40.7226 58.2088 40.7226C58.7813 40.7226 59.2801 40.3338 59.4199 39.7774C59.5874 39.1087 59.1812 38.4274 58.5124 38.2599Z" fill="#35FFE7" fill-opacity="0.96"/>
<path d="M25.6249 36.75C24.9347 36.75 24.3749 37.3098 24.3749 38V42.801L21.7462 37.4661C21.4894 36.9449 20.9067 36.6694 20.3413 36.8013C19.7754 36.9331 19.3751 37.4376 19.3751 38.0186V48C19.3751 48.6903 19.9348 49.25 20.6251 49.25C21.3153 49.25 21.8751 48.6903 21.8751 48V43.3835L24.3196 48.3445C24.6601 49.0335 25.3243 49.2222 25.8312 49.1037C26.3128 48.9912 26.8752 48.5464 26.8752 47.663V38C26.8749 37.3098 26.3152 36.75 25.6249 36.75Z" fill="#35FFE7" fill-opacity="0.96"/>
<path d="M34.3749 39.25C35.0652 39.25 35.6249 38.6902 35.6249 38C35.6249 37.3098 35.0652 36.75 34.3749 36.75H30.6249C29.9347 36.75 29.3749 37.3098 29.3749 38V48C29.3749 48.6903 29.9347 49.25 30.6249 49.25C31.3152 49.25 31.8749 48.6903 31.8749 48V44.1553H34.0771C34.7673 44.1553 35.3271 43.5955 35.3271 42.9053C35.3271 42.215 34.7673 41.6553 34.0771 41.6553H31.8749V39.25H34.3749Z" fill="#35FFE7" fill-opacity="0.96"/>
<path d="M44.3749 36.75H39.3749C38.6847 36.75 38.1249 37.3098 38.1249 38C38.1249 38.6902 38.6847 39.25 39.3749 39.25H40.6148V48C40.6148 48.6903 41.1746 49.25 41.8648 49.25C42.5551 49.25 43.1148 48.6903 43.1148 48V39.25H44.3749C45.0652 39.25 45.6249 38.6902 45.6249 38C45.6249 37.3098 45.0652 36.75 44.3749 36.75Z" fill="#35FFE7" fill-opacity="0.96"/>
<path d="M23.2479 28.5814L31.8729 33.5814C32.0668 33.6938 32.2833 33.75 32.4999 33.75C32.7166 33.75 32.9331 33.6939 33.1269 33.5814L41.7519 28.5814C42.1376 28.3578 42.3749 27.9458 42.3749 27.5V17.5C42.3749 17.0543 42.1376 16.6423 41.7519 16.4187L33.1269 11.4187C32.7392 11.1938 32.2607 11.1938 31.8731 11.4187L23.2481 16.4187C22.8623 16.6423 22.6249 17.0543 22.6249 17.5V27.5C22.6249 27.9458 22.8623 28.3578 23.2479 28.5814ZM25.1249 18.2203L32.4999 13.9449L39.8749 18.2203V26.7799L32.4999 31.0553L25.1249 26.7799V18.2203Z" fill="#35FFE7" fill-opacity="0.96"/>
</g>
<defs>
<clipPath id="clip0_594_21">
<rect width="64.0001" height="64.9999" fill="white" transform="translate(0.499939)"/>
</clipPath>
</defs>
</svg>
