<svg width="64" height="64" viewBox="0 0 64 64" fill="none" xmlns="http://www.w3.org/2000/svg">
<g clip-path="url(#clip0_594_31)">
<path d="M48 49.3333H2.66666C1.93066 49.3333 1.33333 48.736 1.33333 48V29.3333C1.33333 28.5973 1.93066 28 2.66666 28H48C48.736 28 49.3333 28.5973 49.3333 29.3333V48C49.3333 48.736 48.736 49.3333 48 49.3333ZM3.99999 46.6667H46.6667V30.6667H3.99999V46.6667Z" fill="#35FFE7" fill-opacity="0.96"/>
<path d="M48 44C47.264 44 46.6667 43.4027 46.6667 42.6667V29.3333C46.6667 28.5973 47.264 28 48 28H61.3333C62.0693 28 62.6667 28.5973 62.6667 29.3333C62.6667 37.42 56.0867 44 48 44ZM49.3333 30.6667V41.26C54.8867 40.644 59.3093 36.22 59.9267 30.6667H49.3333Z" fill="#35FFE7" fill-opacity="0.96"/>
<path d="M30.6667 24H17.3333C16.5973 24 16 23.4027 16 22.6667V5.332C16 4.912 16.1973 4.51733 16.5333 4.26533L21.8667 0.266667C22.0973 0.0933333 22.3787 0 22.6667 0H30.6667C31.4027 0 32 0.597333 32 1.33333V22.6667C32 23.4027 31.4027 24 30.6667 24ZM18.6667 21.3333H29.3333V2.66667H23.1107L18.6667 5.99867V21.3333Z" fill="#35FFE7" fill-opacity="0.96"/>
<path d="M54.6667 16H30.6667C29.9307 16 29.3333 15.4027 29.3333 14.6667V9.33333C29.3333 8.59733 29.9307 8 30.6667 8H54.6667C55.4027 8 56 8.59733 56 9.33333V14.6667C56 15.4027 55.4027 16 54.6667 16ZM32 13.3333H53.3333V10.6667H32V13.3333Z" fill="#35FFE7" fill-opacity="0.96"/>
<path d="M17.3333 16H12C11.264 16 10.6667 15.4027 10.6667 14.6667V9.33333C10.6667 8.59733 11.264 8 12 8H17.3333C18.0693 8 18.6667 8.59733 18.6667 9.33333V14.6667C18.6667 15.4027 18.0693 16 17.3333 16ZM13.3333 13.3333H16V10.6667H13.3333V13.3333Z" fill="#35FFE7" fill-opacity="0.96"/>
<path d="M12 25.3333C11.6587 25.3333 11.3173 25.2026 11.0573 24.9426L8.39066 22.276C7.86933 21.7546 7.86933 20.912 8.39066 20.3906C8.912 19.8693 9.75466 19.8693 10.276 20.3906L12.9427 23.0573C13.464 23.5786 13.464 24.4213 12.9427 24.9426C12.6827 25.2026 12.3413 25.3333 12 25.3333Z" fill="#35FFE7" fill-opacity="0.96"/>
<path d="M5.33333 25.3333C4.99199 25.3333 4.65066 25.2026 4.39066 24.9426L1.72399 22.276C1.20266 21.7546 1.20266 20.912 1.72399 20.3906C2.24533 19.8693 3.08799 19.8693 3.60933 20.3906L6.27599 23.0573C6.79733 23.5786 6.79733 24.4213 6.27599 24.9426C6.01599 25.2026 5.67466 25.3333 5.33333 25.3333Z" fill="#35FFE7" fill-opacity="0.96"/>
<path d="M36 25.3333C35.6587 25.3333 35.3173 25.2026 35.0573 24.9426C34.536 24.4213 34.536 23.5786 35.0573 23.0573L37.724 20.3906C38.2453 19.8693 39.088 19.8693 39.6093 20.3906C40.1307 20.912 40.1307 21.7546 39.6093 22.276L36.9427 24.9426C36.6827 25.2026 36.3413 25.3333 36 25.3333Z" fill="#35FFE7" fill-opacity="0.96"/>
<path d="M42.6667 25.3333C42.3253 25.3333 41.984 25.2026 41.724 24.9426C41.2027 24.4213 41.2027 23.5786 41.724 23.0573L44.3907 20.3906C44.912 19.8693 45.7547 19.8693 46.276 20.3906C46.7973 20.912 46.7973 21.7546 46.276 22.276L43.6093 24.9426C43.3493 25.2026 43.008 25.3333 42.6667 25.3333Z" fill="#35FFE7" fill-opacity="0.96"/>
<path d="M41.3333 64H9.33333C8.59733 64 8 63.4027 8 62.6667V57.3333C8 56.5973 8.59733 56 9.33333 56H41.3333C42.0693 56 42.6667 56.5973 42.6667 57.3333V62.6667C42.6667 63.4027 42.0693 64 41.3333 64ZM10.6667 61.3333H40V58.6667H10.6667V61.3333Z" fill="#35FFE7" fill-opacity="0.96"/>
<path d="M36 58.6666H14.6667C14.064 58.6666 13.536 58.2626 13.38 57.6813C13.2227 57.1 13.4747 56.4853 13.9947 56.1813C14.1467 56.0893 17.9053 53.764 17.9027 48C17.9027 47.6453 18.0427 47.3066 18.2933 47.056C18.544 46.8053 18.8827 46.6666 19.236 46.6666H31.4307C31.784 46.6666 32.124 46.8066 32.3733 47.0573C32.6227 47.308 32.764 47.6466 32.764 48.0013C32.7627 53.7653 36.52 56.0906 36.68 56.1866C37.1933 56.4946 37.4413 57.1106 37.2813 57.688C37.1213 58.2653 36.5987 58.6666 36 58.6666ZM17.9987 56H32.6693C31.536 54.524 30.4147 52.3426 30.1547 49.3333H20.5147C20.252 52.3426 19.1307 54.524 17.9987 56Z" fill="#35FFE7" fill-opacity="0.96"/>
<path d="M44 64H6.66666C5.93066 64 5.33333 63.4027 5.33333 62.6667C5.33333 61.9307 5.93066 61.3334 6.66666 61.3334H44C44.736 61.3334 45.3333 61.9307 45.3333 62.6667C45.3333 63.4027 44.736 64 44 64Z" fill="#35FFE7" fill-opacity="0.96"/>
</g>
<defs>
<clipPath id="clip0_594_31">
<rect width="64" height="64" fill="white"/>
</clipPath>
</defs>
</svg>
