<svg width="302" height="69" viewBox="0 0 302 69" fill="none" xmlns="http://www.w3.org/2000/svg">
<path d="M227.159 3.20417L231.828 4.57591C233.288 5.00095 235.209 5.23666 237.261 5.23666L285.416 5.23666L290.809 6.82092L290.809 42.8455L279.155 46.2652L279.155 63.8427L275.708 64.8938L26.2916 64.8938L22.8323 63.8427L22.8059 47.1887C22.7928 46.5859 22.0036 46.0179 20.5567 45.5967L11.1914 42.8455L11.1914 6.82092L16.5843 5.23666L62.911 5.23666C64.9761 5.23666 66.8965 5.00096 68.3434 4.57205L73.026 3.20417L227.159 3.20417ZM62.911 4.99323L16.2423 4.99323L10.3627 6.72046L10.3627 42.946L19.9648 45.7667C21.2538 46.1454 21.9641 46.6516 21.9773 47.1887L22.0167 63.9394L25.9496 65.1372L276.05 65.1372L279.983 63.9394L279.983 46.3656L291.637 42.946L291.637 6.72046L285.758 4.99323L237.261 4.99323C235.432 4.99323 233.709 4.78457 232.42 4.40203L227.501 2.96074L72.684 2.96074L67.7646 4.40203C66.4624 4.78457 64.7525 4.99323 62.911 4.99323Z" fill="#0ADFDB"/>
<path d="M228.376 1.97909C228.77 1.97909 229.138 2.02529 229.414 2.10614L234.987 3.73862C235.578 3.91188 236.367 4.00428 237.195 4.00428L286.584 4.00428C286.978 4.00428 287.346 4.05048 287.622 4.13134L294.824 6.24123C295.1 6.32209 295.245 6.42989 295.245 6.54155L295.245 43.1875C295.245 43.2992 295.087 43.4108 294.824 43.4917L283.614 46.7759L283.614 64.1017C283.614 64.2133 283.469 64.3173 283.206 64.3981L277.962 65.9844C277.7 66.0691 277.305 66.1153 276.911 66.1153L25.102 66.1153C24.6946 66.1153 24.3135 66.0691 24.0375 65.9844L18.8068 64.3981C18.544 64.3173 18.3994 64.2133 18.3994 64.1017L18.36 47.1416C18.36 46.8952 18.0314 46.6681 17.4532 46.4948L7.18891 43.4917C6.91292 43.4108 6.76835 43.2992 6.76835 43.1875L6.76835 6.5916L7.30719 6.20658L14.391 4.13134C14.667 4.05048 15.0349 4.00428 15.4292 4.00428L62.9917 4.00428C63.8328 4.00428 64.6213 3.91188 65.1996 3.73862L70.7851 2.10614C71.0611 2.02529 71.416 1.97909 71.8103 1.97909L228.376 1.97909ZM88.8691 9.85305e-05L81.2728 1.49397L71.8103 1.49397C70.9823 1.49397 70.1937 1.59022 69.6023 1.76348L64.0299 3.39595C63.7539 3.47681 63.386 3.51916 62.9917 3.51916L15.4292 3.51916C14.5881 3.51916 13.8127 3.61541 13.2213 3.78867L6.01924 5.89472L5.11241 6.49534L5.11241 7.76205L3.32878e-07 9.25592L1.65318e-07 38.8753L5.11241 40.3692L5.11241 43.1875C5.11241 43.4301 5.44097 43.6649 6.01923 43.8343L11.4339 45.4168L11.4339 59.3236L16.7303 60.8791L16.7435 64.1017C16.7435 64.3404 17.0457 64.5637 17.6109 64.7369L22.8547 66.3232C23.433 66.5003 24.2478 66.6004 25.102 66.6004L57.4324 66.6004L62.5317 68.0981L107.387 68.0981L112.486 66.6004L183.626 66.6004L188.725 68.0981L233.58 68.0981L238.68 66.6004L276.911 66.6004C277.752 66.6004 278.58 66.5003 279.158 66.3232L284.389 64.7369C284.954 64.5637 285.27 64.3404 285.27 64.1017L285.27 60.7944L290.382 58.9963L290.461 45.4553L295.994 43.8343C296.572 43.6649 296.901 43.4301 296.901 43.1875L296.901 40.2306L302 38.7367L302 9.11731L296.901 7.62345L296.901 6.54155C296.901 6.29899 296.572 6.06798 295.994 5.89857L288.792 3.78867C288.214 3.61926 287.412 3.51916 286.584 3.51916L237.195 3.51916C236.8 3.51916 236.432 3.47681 236.156 3.39595L230.584 1.76348C229.993 1.59022 229.217 1.49397 228.376 1.49397L216.272 1.49397L208.807 9.91016e-05L88.8691 9.85305e-05Z" fill="#0ADFDB"/>
<path d="M290.897 6.60603L290.897 42.9149L279.236 46.3616L279.236 64.0779L275.787 65.1372L26.2127 65.1372L22.7512 64.0779L22.7249 47.2924C22.7117 46.6848 21.922 46.1123 20.4742 45.6878L11.103 42.9149L11.103 6.60603L16.4993 5.00927L62.8553 5.00927C64.9217 5.00927 66.8433 4.7717 68.2911 4.3394L72.9767 2.96073L227.207 2.96073L231.879 4.3433C233.34 4.7717 235.262 5.00927 237.315 5.00927L285.501 5.00927L290.897 6.60603Z" fill="#023340" fill-opacity="0.8"/>
<path d="M290.897 6.66541L290.897 42.9286L279.239 46.3656L279.252 64.0122L275.555 65.1372L25.7053 65.1372L22.0078 64.0083L21.9683 47.2423C21.9683 46.6681 21.2183 46.1328 19.8498 45.7294L10.3627 42.9286L10.3627 6.66541L15.9945 5.0051L62.509 5.0051C64.4564 5.0051 66.2854 4.7801 67.6538 4.37278L72.4566 2.96074L226.987 2.96074L231.777 4.37666C233.159 4.7801 234.988 5.0051 236.922 5.0051L285.265 5.0051L290.897 6.66541ZM278.831 46.3151L290.489 42.882L290.489 6.71584L285.094 5.12535L236.922 5.12535C234.869 5.12535 232.948 4.88872 231.487 4.462L226.816 3.08487L72.6277 3.08487L67.9433 4.45812C66.4959 4.88872 64.5748 5.12535 62.509 5.12535L16.1655 5.12535L10.7706 6.71584L10.7706 42.882L20.1393 45.644C21.5867 46.0669 22.3762 46.6371 22.3894 47.2423L22.4157 63.9618L25.8763 65.017L275.383 65.017L278.831 63.9618L278.831 46.3151Z" fill="#0ADFDB"/>
<path d="M100.195 24.2244H102.211V38.8644C102.211 39.3444 102.019 39.7444 101.635 40.0644L101.059 40.5444C100.675 40.8644 100.291 41.0244 99.9068 41.0244H95.5388C95.1548 41.0244 94.7708 40.8644 94.3868 40.5444L93.8108 40.0644C93.4268 39.7444 93.2348 39.3444 93.2348 38.8644V37.1844H95.2508V38.3604C95.2508 38.6004 95.2588 38.7604 95.2748 38.8404C95.3068 38.9044 95.3948 38.9924 95.5388 39.1044C95.6828 39.2164 95.7948 39.2884 95.8748 39.3204C95.9548 39.3364 96.1388 39.3444 96.4268 39.3444H99.0188C99.3068 39.3444 99.4908 39.3364 99.5708 39.3204C99.6508 39.2884 99.7628 39.2164 99.9068 39.1044C100.051 38.9924 100.131 38.9044 100.147 38.8404C100.179 38.7604 100.195 38.6004 100.195 38.3604V24.2244ZM109.31 24.2244H118.094C118.478 24.2244 118.862 24.3844 119.246 24.7044L119.822 25.1844C120.206 25.5044 120.398 25.9044 120.398 26.3844V38.8644C120.398 39.3444 120.206 39.7444 119.822 40.0644L119.246 40.5444C118.862 40.8644 118.478 41.0244 118.094 41.0244H109.31C108.926 41.0244 108.542 40.8644 108.158 40.5444L107.582 40.0644C107.198 39.7444 107.006 39.3444 107.006 38.8644V26.3844C107.006 25.9044 107.198 25.5044 107.582 25.1844L108.158 24.7044C108.542 24.3844 108.926 24.2244 109.31 24.2244ZM118.382 38.3604V26.8884C118.382 26.6484 118.366 26.4964 118.334 26.4324C118.318 26.3524 118.238 26.2564 118.094 26.1444C117.95 26.0324 117.838 25.9684 117.758 25.9524C117.678 25.9204 117.494 25.9044 117.206 25.9044H110.198C109.91 25.9044 109.726 25.9204 109.646 25.9524C109.566 25.9684 109.454 26.0324 109.31 26.1444C109.166 26.2564 109.078 26.3524 109.046 26.4324C109.03 26.4964 109.022 26.6484 109.022 26.8884V38.3604C109.022 38.6004 109.03 38.7604 109.046 38.8404C109.078 38.9044 109.166 38.9924 109.31 39.1044C109.454 39.2164 109.566 39.2884 109.646 39.3204C109.726 39.3364 109.91 39.3444 110.198 39.3444H117.206C117.494 39.3444 117.678 39.3364 117.758 39.3204C117.838 39.2884 117.95 39.2164 118.094 39.1044C118.238 38.9924 118.318 38.9044 118.334 38.8404C118.366 38.7604 118.382 38.6004 118.382 38.3604ZM125.193 24.2244H127.209V41.0244H125.193V24.2244ZM142.814 37.9044L142.886 37.8804C142.774 37.4964 142.718 37.1124 142.718 36.7284V24.2244H144.734V41.0244H142.718L133.934 27.5364L133.862 27.5604C133.974 27.9444 134.03 28.3284 134.03 28.7124V41.0244H132.014V24.2244H134.03L142.814 37.9044ZM166.345 37.9044L166.417 37.8804C166.305 37.4964 166.249 37.1124 166.249 36.7284V24.2244H168.265V41.0244H166.249L157.465 27.5364L157.393 27.5604C157.505 27.9444 157.561 28.3284 157.561 28.7124V41.0244H155.545V24.2244H157.561L166.345 37.9044ZM175.38 24.2244H184.164C184.548 24.2244 184.932 24.3844 185.316 24.7044L185.892 25.1844C186.276 25.5044 186.468 25.9044 186.468 26.3844V38.8644C186.468 39.3444 186.276 39.7444 185.892 40.0644L185.316 40.5444C184.932 40.8644 184.548 41.0244 184.164 41.0244H175.38C174.996 41.0244 174.612 40.8644 174.228 40.5444L173.652 40.0644C173.268 39.7444 173.076 39.3444 173.076 38.8644V26.3844C173.076 25.9044 173.268 25.5044 173.652 25.1844L174.228 24.7044C174.612 24.3844 174.996 24.2244 175.38 24.2244ZM184.452 38.3604V26.8884C184.452 26.6484 184.436 26.4964 184.404 26.4324C184.388 26.3524 184.308 26.2564 184.164 26.1444C184.02 26.0324 183.908 25.9684 183.828 25.9524C183.748 25.9204 183.564 25.9044 183.276 25.9044H176.268C175.98 25.9044 175.796 25.9204 175.716 25.9524C175.636 25.9684 175.524 26.0324 175.38 26.1444C175.236 26.2564 175.148 26.3524 175.116 26.4324C175.1 26.4964 175.092 26.6484 175.092 26.8884V38.3604C175.092 38.6004 175.1 38.7604 175.116 38.8404C175.148 38.9044 175.236 38.9924 175.38 39.1044C175.524 39.2164 175.636 39.2884 175.716 39.3204C175.796 39.3364 175.98 39.3444 176.268 39.3444H183.276C183.564 39.3444 183.748 39.3364 183.828 39.3204C183.908 39.2884 184.02 39.2164 184.164 39.1044C184.308 38.9924 184.388 38.9044 184.404 38.8404C184.436 38.7604 184.452 38.6004 184.452 38.3604ZM203.84 41.0244L200.336 26.5764L200.216 25.9764H200.12L200 26.5764L196.568 41.0244H193.736L189.224 24.2244H191.36L194.96 39.0084L195.08 39.6084H195.2L195.296 39.0084L198.848 24.2244H201.512L205.16 39.0084L205.304 39.6084H205.4L205.496 39.0084L208.976 24.2244H211.112L206.6 41.0244H203.84Z" fill="white"/>
</svg>
