<svg width="279" height="19" viewBox="0 0 279 19" fill="none" xmlns="http://www.w3.org/2000/svg">
<path d="M278.779 7.45728H3.1156V11.2768H278.779V7.45728Z" fill="#FC62FF"/>
<path d="M119.915 3.77026H116.196V14.4628H119.915V3.77026Z" fill="#FC62FF"/>
<path d="M115.268 3.77026H111.549V14.4628H115.268V3.77026Z" fill="#FC62FF"/>
<path d="M110.618 3.77026H106.899V14.4628H110.618V3.77026Z" fill="#FC62FF"/>
<path d="M105.971 3.77026H102.252V14.4628H105.971V3.77026Z" fill="#FC62FF"/>
<path d="M101.323 3.77026H97.6039V14.4628H101.323V3.77026Z" fill="#FC62FF"/>
<path d="M96.6752 3.77026H92.9563V14.4628H96.6752V3.77026Z" fill="#FC62FF"/>
<path d="M92.0276 3.77026H88.3087V14.4628H92.0276V3.77026Z" fill="#FC62FF"/>
<path d="M87.3801 3.77026H83.6611V14.4628H87.3801V3.77026Z" fill="#FC62FF"/>
<path d="M82.7324 3.77026H79.0134V14.4628H82.7324V3.77026Z" fill="#FC62FF"/>
<path d="M78.0849 3.77026H74.366V14.4628H78.0849V3.77026Z" fill="#FC62FF"/>
<path d="M73.4373 3.77026H69.7184V14.4628H73.4373V3.77026Z" fill="#FC62FF"/>
<path d="M68.7875 3.77026H65.0686V14.4628H68.7875V3.77026Z" fill="#FC62FF"/>
<path d="M64.1398 3.77026H60.4209V14.4628H64.1398V3.77026Z" fill="#FC62FF"/>
<path d="M59.492 3.77026H55.7731V14.4628H59.492V3.77026Z" fill="#FC62FF"/>
<path d="M54.8445 3.77026H51.1256V14.4628H54.8445V3.77026Z" fill="#FC62FF"/>
<path d="M50.1971 3.77026H46.4781V14.4628H50.1971V3.77026Z" fill="#FC62FF"/>
<path d="M45.5494 3.77026H41.8304V14.4628H45.5494V3.77026Z" fill="#FC62FF"/>
<path d="M40.9017 3.77026H37.1827V14.4628H40.9017V3.77026Z" fill="#FC62FF"/>
<path d="M36.2542 3.77026H32.5353V14.4628H36.2542V3.77026Z" fill="#FC62FF"/>
<path d="M31.6066 3.77026H27.8877V14.4628H31.6066V3.77026Z" fill="#FC62FF"/>
<path d="M26.9569 3.77026H23.2379V14.4628H26.9569V3.77026Z" fill="#FC62FF"/>
<path d="M22.3093 3.77026H18.5903V14.4628H22.3093V3.77026Z" fill="#FC62FF"/>
<path d="M17.6617 3.77026H13.9427V14.4628H17.6617V3.77026Z" fill="#FC62FF"/>
<path d="M13.0142 3.77026H9.29529V14.4628H13.0142V3.77026Z" fill="#FC62FF"/>
<path d="M8.36651 3.77026H4.64758V14.4628H8.36651V3.77026Z" fill="#FC62FF"/>
<path d="M3.71894 3.77026H0V14.4628H3.71894V3.77026Z" fill="#FC62FF"/>
<path d="M124.828 0H120.977V18.5925H124.828V0Z" fill="#FC62FF"/>
</svg>
