<svg width="220" height="221" viewBox="0 0 220 221" fill="none" xmlns="http://www.w3.org/2000/svg">
<circle cx="110" cy="110.5" r="110" fill="url(#paint0_radial_1570_17718)"/>
<mask id="mask0_1570_17718" style="mask-type:luminance" maskUnits="userSpaceOnUse" x="27" y="39" width="75" height="62">
<path d="M97.5146 88.4079L101.048 39.3635C99.8626 42.7997 96.6556 50.7116 93.9684 55.6984C93.3781 56.7909 86.9727 68.4782 76.7128 78.1126C58.1708 95.5268 33.7477 99.9366 27.501 100.919L87.1225 98.8C92.8626 98.8 97.4265 96.4564 97.5146 88.4079Z" fill="white"/>
</mask>
<g mask="url(#mask0_1570_17718)">
<path d="M97.5146 88.4079L101.048 39.3635C99.8626 42.7997 96.6556 50.7116 93.9684 55.6984C93.3781 56.7909 86.9727 68.4782 76.7128 78.1126C58.1708 95.5268 33.7477 99.9366 27.501 100.919L87.1225 98.8C92.8626 98.8 97.4265 96.4564 97.5146 88.4079Z" fill="url(#paint1_linear_1570_17718)"/>
</g>
<mask id="mask1_1570_17718" style="mask-type:luminance" maskUnits="userSpaceOnUse" x="118" y="39" width="75" height="62">
<path d="M126.031 55.6989C123.344 50.712 120.142 42.8001 118.952 39.364L122.485 88.4083C122.573 96.4569 127.137 98.8005 132.877 98.8005L192.499 100.919C186.252 99.937 161.829 95.5273 143.287 78.1131C133.027 68.4787 126.622 56.7914 126.031 55.6989Z" fill="white"/>
</mask>
<g mask="url(#mask1_1570_17718)">
<path d="M126.031 55.6989C123.344 50.712 120.142 42.8001 118.952 39.364L122.485 88.4083C122.573 96.4569 127.137 98.8005 132.877 98.8005L192.499 100.919C186.252 99.937 161.829 95.5273 143.287 78.1131C133.027 68.4787 126.622 56.7914 126.031 55.6989Z" fill="url(#paint2_linear_1570_17718)"/>
</g>
<mask id="mask2_1570_17718" style="mask-type:luminance" maskUnits="userSpaceOnUse" x="118" y="120" width="75" height="63">
<path d="M122.485 133.443L118.952 182.492C120.142 179.056 123.344 171.144 126.031 166.157C126.622 165.065 133.027 153.377 143.287 143.739C161.829 126.324 186.252 121.919 192.499 120.932L132.877 123.056C127.137 123.056 122.573 125.399 122.485 133.443Z" fill="white"/>
</mask>
<g mask="url(#mask2_1570_17718)">
<path d="M122.485 133.443L118.952 182.492C120.142 179.056 123.344 171.144 126.031 166.157C126.622 165.065 133.027 153.377 143.287 143.739C161.829 126.324 186.252 121.919 192.499 120.932L132.877 123.056C127.137 123.056 122.573 125.399 122.485 133.443Z" fill="url(#paint3_linear_1570_17718)"/>
</g>
<mask id="mask3_1570_17718" style="mask-type:luminance" maskUnits="userSpaceOnUse" x="27" y="120" width="75" height="63">
<path d="M93.9684 166.157C96.6556 171.144 99.8626 179.056 101.048 182.492L97.5146 133.443C97.4265 125.399 92.8626 123.056 87.1225 123.056L27.501 120.932C33.7477 121.919 58.1708 126.324 76.7128 143.739C86.9727 153.377 93.3781 165.065 93.9684 166.157Z" fill="white"/>
</mask>
<g mask="url(#mask3_1570_17718)">
<path d="M93.9684 166.157C96.6556 171.144 99.8626 179.056 101.048 182.492L97.5146 133.443C97.4265 125.399 92.8626 123.056 87.1225 123.056L27.501 120.932C33.7477 121.919 58.1708 126.324 76.7128 143.739C86.9727 153.377 93.3781 165.065 93.9684 166.157Z" fill="url(#paint4_linear_1570_17718)"/>
</g>
<mask id="mask4_1570_17718" style="mask-type:luminance" maskUnits="userSpaceOnUse" x="32" y="25" width="156" height="55">
<path d="M63.8624 42.8789C77.5145 33.9053 93.726 29.0462 109.999 29.0859C126.272 29.0418 142.484 33.9009 156.141 42.8745C169.788 51.8437 180.916 64.7953 187.7 79.9849C184.995 72.1126 180.881 64.716 175.854 58.0024C170.757 51.3327 164.625 45.412 157.704 40.5706C150.814 35.6851 143.114 31.9405 135.043 29.3634C126.96 26.8128 118.479 25.5484 109.999 25.4999C101.519 25.544 93.0388 26.8172 84.955 29.359C76.8845 31.9361 69.1796 35.6806 62.2897 40.5661C55.369 45.4075 49.2412 51.3283 44.1442 57.998C39.1134 64.7161 34.9988 72.1082 32.3027 79.9849C39.0869 64.7953 50.2148 51.8481 63.8624 42.8789Z" fill="white"/>
</mask>
<g mask="url(#mask4_1570_17718)">
<path d="M63.8624 42.8789C77.5145 33.9053 93.726 29.0462 109.999 29.0859C126.272 29.0418 142.484 33.9009 156.141 42.8745C169.788 51.8437 180.916 64.7953 187.7 79.9849C184.995 72.1126 180.881 64.716 175.854 58.0024C170.757 51.3327 164.625 45.412 157.704 40.5706C150.814 35.6851 143.114 31.9405 135.043 29.3634C126.96 26.8128 118.479 25.5484 109.999 25.4999C101.519 25.544 93.0388 26.8172 84.955 29.359C76.8845 31.9361 69.1796 35.6806 62.2897 40.5661C55.369 45.4075 49.2412 51.3283 44.1442 57.998C39.1134 64.7161 34.9988 72.1082 32.3027 79.9849C39.0869 64.7953 50.2148 51.8481 63.8624 42.8789Z" fill="url(#paint5_radial_1570_17718)"/>
</g>
<mask id="mask5_1570_17718" style="mask-type:luminance" maskUnits="userSpaceOnUse" x="32" y="141" width="156" height="56">
<path d="M156.136 178.977C142.484 187.951 126.272 192.81 109.999 192.77C93.726 192.814 77.5145 187.955 63.8624 178.981C50.2104 170.012 39.0825 157.061 32.3027 141.871C35.0032 149.743 39.1178 157.14 44.1486 163.854C49.2456 170.523 55.3734 176.444 62.2941 181.285C69.184 186.171 76.8845 189.915 84.955 192.493C93.0388 195.039 101.519 196.307 109.999 196.356C118.479 196.312 126.96 195.039 135.048 192.497C143.114 189.92 150.819 186.175 157.709 181.29C164.63 176.444 170.757 170.523 175.859 163.854C180.885 157.14 185 149.743 187.7 141.871C180.912 157.061 169.784 170.008 156.136 178.977Z" fill="white"/>
</mask>
<g mask="url(#mask5_1570_17718)">
<path d="M156.136 178.977C142.484 187.951 126.272 192.81 109.999 192.77C93.726 192.814 77.5145 187.955 63.8624 178.981C50.2104 170.012 39.0825 157.061 32.3027 141.871C35.0032 149.743 39.1178 157.14 44.1486 163.854C49.2456 170.523 55.3734 176.444 62.2941 181.285C69.184 186.171 76.8845 189.915 84.955 192.493C93.0388 195.039 101.519 196.307 109.999 196.356C118.479 196.312 126.96 195.039 135.048 192.497C143.114 189.92 150.819 186.175 157.709 181.29C164.63 176.444 170.757 170.523 175.859 163.854C180.885 157.14 185 149.743 187.7 141.871C180.912 157.061 169.784 170.008 156.136 178.977Z" fill="url(#paint6_radial_1570_17718)"/>
</g>
<mask id="mask6_1570_17718" style="mask-type:luminance" maskUnits="userSpaceOnUse" x="108" y="50" width="4" height="21">
<path d="M108.221 70.7295H111.78C111.375 64.1171 110.815 57.5047 110 50.8923C109.19 57.5047 108.626 64.1171 108.221 70.7295Z" fill="white"/>
</mask>
<g mask="url(#mask6_1570_17718)">
<path d="M108.221 70.7295H111.78C111.375 64.1171 110.815 57.5047 110 50.8923C109.19 57.5047 108.626 64.1171 108.221 70.7295Z" fill="url(#paint7_linear_1570_17718)"/>
</g>
<mask id="mask7_1570_17718" style="mask-type:luminance" maskUnits="userSpaceOnUse" x="107" y="74" width="6" height="7">
<path d="M107.681 80.9145V80.9277H112.319V80.9145C112.223 78.7162 112.117 76.518 111.993 74.3154H108.002C107.883 76.518 107.773 78.7162 107.681 80.9145Z" fill="white"/>
</mask>
<g mask="url(#mask7_1570_17718)">
<path d="M107.681 80.9145V80.9277H112.319V80.9145C112.223 78.7162 112.117 76.518 111.993 74.3154H108.002C107.883 76.518 107.773 78.7162 107.681 80.9145Z" fill="url(#paint8_linear_1570_17718)"/>
</g>
<mask id="mask8_1570_17718" style="mask-type:luminance" maskUnits="userSpaceOnUse" x="107" y="84" width="6" height="8">
<path d="M107.3 91.1172H112.701C112.643 88.9145 112.573 86.7163 112.476 84.5136H107.524C107.432 86.7163 107.357 88.9145 107.3 91.1172Z" fill="white"/>
</mask>
<g mask="url(#mask8_1570_17718)">
<path d="M107.3 91.1172H112.701C112.643 88.9145 112.573 86.7163 112.476 84.5136H107.524C107.432 86.7163 107.357 88.9145 107.3 91.1172Z" fill="url(#paint9_linear_1570_17718)"/>
</g>
<mask id="mask9_1570_17718" style="mask-type:luminance" maskUnits="userSpaceOnUse" x="108" y="151" width="4" height="20">
<path d="M111.793 151.126H108.207C108.612 157.739 109.176 164.351 110 170.959C110.824 164.351 111.388 157.739 111.793 151.126Z" fill="white"/>
</mask>
<g mask="url(#mask9_1570_17718)">
<path d="M111.793 151.126H108.207C108.612 157.739 109.176 164.351 110 170.959C110.824 164.351 111.388 157.739 111.793 151.126Z" fill="url(#paint10_linear_1570_17718)"/>
</g>
<mask id="mask10_1570_17718" style="mask-type:luminance" maskUnits="userSpaceOnUse" x="107" y="140" width="6" height="8">
<path d="M112.329 140.95V140.937H107.668V140.95C107.765 143.148 107.871 145.338 107.99 147.536H112.007C112.126 145.338 112.236 143.148 112.329 140.95Z" fill="white"/>
</mask>
<g mask="url(#mask10_1570_17718)">
<path d="M112.329 140.95V140.937H107.668V140.95C107.765 143.148 107.871 145.338 107.99 147.536H112.007C112.126 145.338 112.236 143.148 112.329 140.95Z" fill="url(#paint11_linear_1570_17718)"/>
</g>
<mask id="mask11_1570_17718" style="mask-type:luminance" maskUnits="userSpaceOnUse" x="107" y="130" width="6" height="8">
<path d="M112.713 130.739H107.286C107.348 132.95 107.418 135.153 107.515 137.351H112.489C112.581 135.153 112.656 132.95 112.713 130.739Z" fill="white"/>
</mask>
<g mask="url(#mask11_1570_17718)">
<path d="M112.713 130.739H107.286C107.348 132.95 107.418 135.153 107.515 137.351H112.489C112.581 135.153 112.656 132.95 112.713 130.739Z" fill="url(#paint12_linear_1570_17718)"/>
</g>
<mask id="mask12_1570_17718" style="mask-type:luminance" maskUnits="userSpaceOnUse" x="0" y="94" width="220" height="34">
<path d="M109.999 107.342C111.986 107.342 113.585 108.941 113.585 110.928C113.585 112.91 111.986 114.513 109.999 114.513C108.017 114.513 106.413 112.91 106.413 110.928C106.413 108.941 108.017 107.342 109.999 107.342ZM82.5014 113.747L99.9552 113.857C103.841 113.879 107.021 117.002 107.07 120.888C107.105 122.981 107.14 125.073 107.189 127.152H112.81C112.845 125.478 112.88 123.157 112.907 120.936C112.951 117.025 116.123 113.879 120.03 113.857L137.502 113.76C146.669 113.593 155.828 113.536 165 113.258C183.33 112.831 201.669 112.17 220 110.928C201.669 109.685 183.33 109.038 165 108.597C155.828 108.32 146.669 108.262 137.502 108.095C137.502 108.095 127.277 108.033 120.03 107.998C116.145 107.972 112.977 104.853 112.916 100.967C112.894 98.8746 112.845 96.7821 112.797 94.7028H107.202C107.153 96.7953 107.105 98.8878 107.083 100.967C107.021 104.866 103.854 107.972 99.9684 107.998L82.5014 108.104C73.3295 108.271 64.1709 108.333 54.999 108.606C36.6685 109.038 18.3292 109.694 0 110.928C18.3292 112.17 36.6685 112.817 54.999 113.245C64.1709 113.522 73.3295 113.593 82.5014 113.747Z" fill="white"/>
</mask>
<g mask="url(#mask12_1570_17718)">
<path d="M109.999 107.342C111.986 107.342 113.585 108.941 113.585 110.928C113.585 112.91 111.986 114.513 109.999 114.513C108.017 114.513 106.413 112.91 106.413 110.928C106.413 108.941 108.017 107.342 109.999 107.342ZM82.5014 113.747L99.9552 113.857C103.841 113.879 107.021 117.002 107.07 120.888C107.105 122.981 107.14 125.073 107.189 127.152H112.81C112.845 125.478 112.88 123.157 112.907 120.936C112.951 117.025 116.123 113.879 120.03 113.857L137.502 113.76C146.669 113.593 155.828 113.536 165 113.258C183.33 112.831 201.669 112.17 220 110.928C201.669 109.685 183.33 109.038 165 108.597C155.828 108.32 146.669 108.262 137.502 108.095C137.502 108.095 127.277 108.033 120.03 107.998C116.145 107.972 112.977 104.853 112.916 100.967C112.894 98.8746 112.845 96.7821 112.797 94.7028H107.202C107.153 96.7953 107.105 98.8878 107.083 100.967C107.021 104.866 103.854 107.972 99.9684 107.998L82.5014 108.104C73.3295 108.271 64.1709 108.333 54.999 108.606C36.6685 109.038 18.3292 109.694 0 110.928C18.3292 112.17 36.6685 112.817 54.999 113.245C64.1709 113.522 73.3295 113.593 82.5014 113.747Z" fill="url(#paint13_linear_1570_17718)"/>
</g>
<defs>
<radialGradient id="paint0_radial_1570_17718" cx="0" cy="0" r="1" gradientUnits="userSpaceOnUse" gradientTransform="translate(110 110.5) rotate(90) scale(110)">
<stop stop-color="#0EEB81" stop-opacity="0.87"/>
<stop offset="1" stop-color="#14494C" stop-opacity="0.29"/>
</radialGradient>
<linearGradient id="paint1_linear_1570_17718" x1="27.501" y1="70.1434" x2="101.051" y2="70.1434" gradientUnits="userSpaceOnUse">
<stop stop-color="#07A7BD"/>
<stop offset="1" stop-color="#35FFE7" stop-opacity="0.96"/>
</linearGradient>
<linearGradient id="paint2_linear_1570_17718" x1="118.952" y1="70.1439" x2="192.502" y2="70.1439" gradientUnits="userSpaceOnUse">
<stop stop-color="#07A7BD"/>
<stop offset="1" stop-color="#35FFE7" stop-opacity="0.96"/>
</linearGradient>
<linearGradient id="paint3_linear_1570_17718" x1="118.952" y1="151.712" x2="192.502" y2="151.712" gradientUnits="userSpaceOnUse">
<stop stop-color="#0ADFDB"/>
<stop offset="1" stop-color="#35FFE7" stop-opacity="0.96"/>
</linearGradient>
<linearGradient id="paint4_linear_1570_17718" x1="27.501" y1="151.712" x2="101.051" y2="151.712" gradientUnits="userSpaceOnUse">
<stop stop-color="#0ADFDB"/>
<stop offset="1" stop-color="#35FFE7" stop-opacity="0.96"/>
</linearGradient>
<radialGradient id="paint5_radial_1570_17718" cx="0" cy="0" r="1" gradientUnits="userSpaceOnUse" gradientTransform="translate(106.413 114.263) scale(119.565 119.565)">
<stop stop-color="#07A7BD"/>
<stop offset="1" stop-color="#14494C"/>
</radialGradient>
<radialGradient id="paint6_radial_1570_17718" cx="0" cy="0" r="1" gradientUnits="userSpaceOnUse" gradientTransform="translate(106.413 114.263) scale(119.565 119.565)">
<stop stop-color="#07A7BD"/>
<stop offset="1" stop-color="#14494C"/>
</radialGradient>
<linearGradient id="paint7_linear_1570_17718" x1="110" y1="111.073" x2="110" y2="131.396" gradientUnits="userSpaceOnUse">
<stop stop-color="#07A7BD"/>
<stop offset="1" stop-color="#35FFE7" stop-opacity="0.96"/>
</linearGradient>
<linearGradient id="paint8_linear_1570_17718" x1="109.998" y1="111.073" x2="109.998" y2="131.396" gradientUnits="userSpaceOnUse">
<stop stop-color="#07A7BD"/>
<stop offset="1" stop-color="#35FFE7" stop-opacity="0.96"/>
</linearGradient>
<linearGradient id="paint9_linear_1570_17718" x1="110" y1="111.073" x2="110" y2="131.395" gradientUnits="userSpaceOnUse">
<stop stop-color="#07A7BD"/>
<stop offset="1" stop-color="#35FFE7" stop-opacity="0.96"/>
</linearGradient>
<linearGradient id="paint10_linear_1570_17718" x1="110" y1="111.073" x2="110" y2="131.396" gradientUnits="userSpaceOnUse">
<stop stop-color="#07A7BD"/>
<stop offset="1" stop-color="#35FFE7" stop-opacity="0.96"/>
</linearGradient>
<linearGradient id="paint11_linear_1570_17718" x1="109.998" y1="111.073" x2="109.998" y2="131.396" gradientUnits="userSpaceOnUse">
<stop stop-color="#07A7BD"/>
<stop offset="1" stop-color="#35FFE7" stop-opacity="0.96"/>
</linearGradient>
<linearGradient id="paint12_linear_1570_17718" x1="110" y1="111.073" x2="110" y2="131.396" gradientUnits="userSpaceOnUse">
<stop stop-color="#07A7BD"/>
<stop offset="1" stop-color="#35FFE7" stop-opacity="0.96"/>
</linearGradient>
<linearGradient id="paint13_linear_1570_17718" x1="109.999" y1="111.073" x2="109.999" y2="131.395" gradientUnits="userSpaceOnUse">
<stop stop-color="#07A7BD"/>
<stop offset="1" stop-color="#35FFE7" stop-opacity="0.96"/>
</linearGradient>
</defs>
</svg>
