<svg width="303" height="60" viewBox="0 0 303 60" fill="none" xmlns="http://www.w3.org/2000/svg">
<path d="M227.659 3.20423L232.328 4.57597C233.788 5.00102 235.709 5.23672 237.761 5.23672L285.916 5.23672L291.309 6.82099L291.309 42.8455L279.655 46.2652L279.655 63.8428L276.208 64.8938L26.7916 64.8938L23.3323 63.8428L23.3059 47.1887C23.2928 46.586 22.5036 46.0179 21.0567 45.5968L11.6914 42.8455L11.6914 6.82098L17.0843 5.23672L63.411 5.23672C65.4761 5.23672 67.3965 5.00102 68.8434 4.57211L73.526 3.20423L227.659 3.20423ZM63.411 4.99329L16.7423 4.99329L10.8627 6.72052L10.8627 42.946L20.4648 45.7668C21.7538 46.1454 22.4641 46.6516 22.4773 47.1887L22.5167 63.9394L26.4496 65.1373L276.55 65.1373L280.483 63.9394L280.483 46.3657L292.137 42.946L292.137 6.72052L286.258 4.99329L237.761 4.99329C235.932 4.99329 234.209 4.78463 232.92 4.40209L228.001 2.9608L73.184 2.9608L68.2646 4.40209C66.9624 4.78463 65.2525 4.99329 63.411 4.99329Z" fill="#0ADFDB"/>
<path d="M228.876 1.97897C229.27 1.97897 229.638 2.02517 229.914 2.10602L235.487 3.7385C236.078 3.91176 236.867 4.00416 237.695 4.00416L287.084 4.00416C287.478 4.00416 287.846 4.05036 288.122 4.13122L295.324 6.24111C295.6 6.32196 295.745 6.42977 295.745 6.54142L295.745 43.1874C295.745 43.299 295.587 43.4107 295.324 43.4916L284.114 46.7758L284.114 64.1015C284.114 64.2132 283.969 64.3172 283.706 64.398L278.462 65.9843C278.2 66.069 277.805 66.1152 277.411 66.1152L25.602 66.1152C25.1946 66.1152 24.8135 66.069 24.5375 65.9843L19.3068 64.398C19.044 64.3172 18.8994 64.2132 18.8994 64.1015L18.86 47.1415C18.86 46.8951 18.5314 46.6679 17.9532 46.4947L7.68891 43.4916C7.41292 43.4107 7.26835 43.299 7.26835 43.1874L7.26835 6.59148L7.80719 6.20646L14.891 4.13121C15.167 4.05036 15.5349 4.00416 15.9292 4.00416L63.4917 4.00416C64.3328 4.00416 65.1213 3.91175 65.6996 3.7385L71.2851 2.10602C71.5611 2.02517 71.916 1.97897 72.3103 1.97897L228.876 1.97897ZM89.3691 -2.35398e-05L81.7728 1.49384L72.3103 1.49384C71.4823 1.49384 70.6937 1.5901 70.1023 1.76336L64.5299 3.39583C64.2539 3.47668 63.886 3.51904 63.4917 3.51904L15.9292 3.51904C15.0881 3.51904 14.3127 3.61529 13.7213 3.78855L6.51924 5.89459L5.61241 6.49522L5.61241 7.76193L0.5 9.2558L0.5 38.8752L5.61241 40.3691L5.61241 43.1874C5.61241 43.43 5.94097 43.6648 6.51923 43.8342L11.9339 45.4166L11.9339 59.3235L17.2303 60.8789L17.2435 64.1015C17.2435 64.3403 17.5457 64.5636 18.1109 64.7368L23.3547 66.3231C23.933 66.5002 24.7478 66.6003 25.602 66.6003L57.9324 66.6003L63.0317 68.098L107.887 68.098L112.986 66.6003L184.126 66.6003L189.225 68.098L234.08 68.098L239.18 66.6003L277.411 66.6003C278.252 66.6003 279.08 66.5002 279.658 66.3231L284.889 64.7368C285.454 64.5636 285.77 64.3403 285.77 64.1015L285.77 60.7942L290.882 58.9962L290.961 45.4551L296.494 43.8342C297.072 43.6648 297.401 43.43 297.401 43.1874L297.401 40.2305L302.5 38.7366L302.5 9.11719L297.401 7.62332L297.401 6.54142C297.401 6.29886 297.072 6.06785 296.494 5.89845L289.292 3.78855C288.714 3.61914 287.912 3.51904 287.084 3.51904L237.695 3.51904C237.3 3.51904 236.932 3.47668 236.656 3.39583L231.084 1.76336C230.493 1.5901 229.717 1.49385 228.876 1.49385L216.772 1.49384L209.307 -2.29688e-05L89.3691 -2.35398e-05Z" fill="#0ADFDB"/>
<path d="M291.397 6.60609L291.397 42.915L279.736 46.3616L279.736 64.078L276.287 65.1373L26.7127 65.1373L23.2512 64.078L23.2248 47.2924C23.2117 46.6849 22.422 46.1124 20.9742 45.6879L11.6029 42.915L11.6029 6.60609L16.9993 5.00933L63.3552 5.00933C65.4216 5.00933 67.3433 4.77176 68.7911 4.33947L73.4767 2.9608L227.707 2.9608L232.379 4.34336C233.84 4.77176 235.762 5.00933 237.815 5.00933L286.001 5.00933L291.397 6.60609Z" fill="#023340" fill-opacity="0.8"/>
<path d="M291.397 6.66547L291.397 42.9286L279.739 46.3656L279.752 64.0123L276.055 65.1373L26.2053 65.1373L22.5078 64.0084L22.4683 47.2423C22.4683 46.6682 21.7183 46.1329 20.3498 45.7294L10.8627 42.9286L10.8627 6.66547L16.4945 5.00516L63.009 5.00516C64.9564 5.00516 66.7854 4.78016 68.1538 4.37284L72.9566 2.9608L227.487 2.9608L232.277 4.37672C233.659 4.78016 235.488 5.00516 237.422 5.00516L285.765 5.00516L291.397 6.66547ZM279.331 46.3152L290.989 42.8821L290.989 6.7159L285.594 5.12541L237.422 5.12541C235.369 5.12541 233.448 4.88878 231.987 4.46206L227.316 3.08493L73.1277 3.08493L68.4433 4.45818C66.9959 4.88878 65.0748 5.12541 63.009 5.12541L16.6655 5.12541L11.2706 6.7159L11.2706 42.8821L20.6393 45.6441C22.0867 46.0669 22.8762 46.6372 22.8894 47.2423L22.9157 63.9619L26.3763 65.017L275.883 65.017L279.331 63.9619L279.331 46.3152Z" fill="#0ADFDB"/>
</svg>
