<svg width="408" height="276" viewBox="0 0 408 276" fill="none" xmlns="http://www.w3.org/2000/svg">
<path d="M161.239 53.5742L154.622 45.5623L135.286 68.9719H149.514L161.239 53.5742Z" fill="#35FFE7" fill-opacity="0.96"/>
<path d="M189.512 38.3781L182.559 29.2502L152.31 68.9725H166.554L189.512 38.3781Z" fill="#35FFE7" fill-opacity="0.96"/>
<path d="M232.214 31.3039L214.906 8.23694L169.337 68.9723H210.463L232.214 31.3039Z" fill="#35FFE7" fill-opacity="0.96"/>
<path d="M213.033 68.9724L241.468 19.7229L269.903 68.9724H213.033Z" fill="#35FFE7" fill-opacity="0.96"/>
<path d="M270.127 73.5H134.779V75.2034H270.127V73.5Z" fill="#35FFE7" fill-opacity="0.96"/>
<path d="M278.78 0.456787H129.22C126.326 0.456787 123.973 2.81222 123.973 5.70364V77.3733C123.973 80.2673 126.326 82.6202 129.22 82.6202H278.78C281.674 82.6202 284.027 80.2673 284.027 77.3733V5.70364C284.03 2.81222 281.674 0.456787 278.78 0.456787ZM281.886 76.0719C281.886 78.8886 279.595 81.1796 276.778 81.1796H131.222C128.406 81.1796 126.115 78.8886 126.115 76.0719V7.01276C126.115 4.19607 128.406 1.90511 131.222 1.90511H276.778C279.595 1.90511 281.886 4.19607 281.886 7.01276V76.0719Z" fill="#35FFE7" fill-opacity="0.96"/>
<path d="M160.308 123.02H178.068C178.836 123.02 179.604 123.34 180.372 123.98L181.524 124.94C182.292 125.58 182.676 126.38 182.676 127.34V138.572C182.676 139.564 182.276 140.396 181.476 141.068L180.276 142.076C179.572 142.652 178.836 142.94 178.068 142.94H175.38L180.324 150.62C180.676 151.164 180.916 151.516 181.044 151.676C181.204 151.804 181.54 152.012 182.052 152.3L182.58 152.588C183.156 152.908 183.492 153.164 183.588 153.356C183.684 153.548 183.732 154.012 183.732 154.748V156.62H182.532C181.956 156.62 181.556 156.588 181.332 156.524C181.14 156.46 180.788 156.252 180.276 155.9L179.364 155.276C178.66 154.796 178.084 154.172 177.636 153.404L171.252 143.18H164.34V156.62H160.308V123.02ZM164.34 126.38V139.82H176.292C176.868 139.82 177.236 139.804 177.396 139.772C177.556 139.708 177.78 139.564 178.068 139.34C178.356 139.116 178.516 138.94 178.548 138.812C178.612 138.652 178.644 138.332 178.644 137.852V128.348C178.644 127.868 178.612 127.564 178.548 127.436C178.516 127.276 178.356 127.084 178.068 126.86C177.78 126.636 177.556 126.508 177.396 126.476C177.236 126.412 176.868 126.38 176.292 126.38H164.34ZM195.341 132.62H206.861C207.629 132.62 208.397 132.94 209.165 133.58L210.317 134.54C211.085 135.18 211.469 135.98 211.469 136.94V152.3C211.469 153.26 211.085 154.06 210.317 154.7L209.165 155.66C208.397 156.3 207.629 156.62 206.861 156.62H195.341C194.573 156.62 193.805 156.3 193.037 155.66L191.885 154.7C191.117 154.06 190.733 153.26 190.733 152.3V136.94C190.733 135.98 191.117 135.18 191.885 134.54L193.037 133.58C193.805 132.94 194.573 132.62 195.341 132.62ZM207.437 151.292V137.948C207.437 137.468 207.405 137.164 207.341 137.036C207.309 136.876 207.149 136.684 206.861 136.46C206.573 136.236 206.349 136.108 206.189 136.076C206.029 136.012 205.661 135.98 205.085 135.98H197.117C196.541 135.98 196.173 136.012 196.013 136.076C195.853 136.108 195.629 136.236 195.341 136.46C195.053 136.684 194.877 136.876 194.813 137.036C194.781 137.164 194.765 137.468 194.765 137.948V151.292C194.765 151.772 194.781 152.092 194.813 152.252C194.877 152.38 195.053 152.556 195.341 152.78C195.629 153.004 195.853 153.148 196.013 153.212C196.173 153.244 196.541 153.26 197.117 153.26H205.085C205.661 153.26 206.029 153.244 206.189 153.212C206.349 153.148 206.573 153.004 206.861 152.78C207.149 152.556 207.309 152.38 207.341 152.252C207.405 152.092 207.437 151.772 207.437 151.292ZM217.503 121.1H221.535V150.62C221.535 151.356 221.567 151.82 221.631 152.012C221.695 152.172 221.919 152.38 222.303 152.636C222.719 152.956 222.959 153.212 223.023 153.404C223.119 153.564 223.167 154.012 223.167 154.748V156.62H221.727C221.119 156.62 220.719 156.588 220.527 156.524C220.335 156.46 219.999 156.268 219.519 155.948L218.463 155.228C217.983 154.908 217.695 154.652 217.599 154.46C217.535 154.268 217.503 153.804 217.503 153.068V121.1ZM247.217 152.3L250.097 154.7L248.945 155.66C248.369 156.14 247.969 156.428 247.745 156.524C247.553 156.588 247.169 156.62 246.593 156.62H233.777C233.009 156.62 232.241 156.3 231.473 155.66L230.321 154.7C229.553 154.06 229.169 153.26 229.169 152.3V136.94C229.169 135.98 229.553 135.18 230.321 134.54L231.473 133.58C232.241 132.94 233.009 132.62 233.777 132.62H244.961C245.601 132.62 246.369 132.94 247.265 133.58L248.465 134.54C249.233 135.116 249.617 135.916 249.617 136.94V146.78H233.201V151.292C233.201 151.772 233.217 152.092 233.249 152.252C233.313 152.38 233.489 152.556 233.777 152.78C234.065 153.004 234.289 153.148 234.449 153.212C234.609 153.244 234.977 153.26 235.553 153.26H244.865C245.441 153.26 245.825 153.228 246.017 153.164C246.241 153.068 246.641 152.78 247.217 152.3ZM245.585 143.66V137.948C245.585 137.468 245.553 137.164 245.489 137.036C245.457 136.876 245.297 136.684 245.009 136.46C244.721 136.236 244.497 136.108 244.337 136.076C244.177 136.012 243.809 135.98 243.233 135.98H235.553C234.977 135.98 234.609 136.012 234.449 136.076C234.289 136.108 234.065 136.236 233.777 136.46C233.489 136.684 233.313 136.876 233.249 137.036C233.217 137.164 233.201 137.468 233.201 137.948V143.66H245.585Z" fill="white"/>
<path d="M67.8492 196.82H76.7292C77.1132 196.82 77.4972 196.98 77.8812 197.3L78.4572 197.78C78.8412 198.1 79.0332 198.5 79.0332 198.98V204.596C79.0332 205.092 78.8332 205.508 78.4332 205.844L77.8332 206.348C77.4812 206.636 77.1132 206.78 76.7292 206.78H75.3852L77.8572 210.62C78.0332 210.892 78.1532 211.068 78.2172 211.148C78.2972 211.212 78.4652 211.316 78.7212 211.46L78.9852 211.604C79.2732 211.764 79.4412 211.892 79.4892 211.988C79.5372 212.084 79.5612 212.316 79.5612 212.684V213.62H78.9612C78.6732 213.62 78.4732 213.604 78.3612 213.572C78.2652 213.54 78.0892 213.436 77.8332 213.26L77.3772 212.948C77.0252 212.708 76.7372 212.396 76.5132 212.012L73.3212 206.9H69.8652V213.62H67.8492V196.82ZM69.8652 198.5V205.22H75.8412C76.1292 205.22 76.3132 205.212 76.3932 205.196C76.4732 205.164 76.5852 205.092 76.7292 204.98C76.8732 204.868 76.9532 204.78 76.9692 204.716C77.0012 204.636 77.0172 204.476 77.0172 204.236V199.484C77.0172 199.244 77.0012 199.092 76.9692 199.028C76.9532 198.948 76.8732 198.852 76.7292 198.74C76.5852 198.628 76.4732 198.564 76.3932 198.548C76.3132 198.516 76.1292 198.5 75.8412 198.5H69.8652ZM85.3657 201.62H91.1257C91.5097 201.62 91.8937 201.78 92.2777 202.1L92.8537 202.58C93.2377 202.9 93.4297 203.3 93.4297 203.78V211.46C93.4297 211.94 93.2377 212.34 92.8537 212.66L92.2777 213.14C91.8937 213.46 91.5097 213.62 91.1257 213.62H85.3657C84.9817 213.62 84.5977 213.46 84.2137 213.14L83.6377 212.66C83.2537 212.34 83.0617 211.94 83.0617 211.46V203.78C83.0617 203.3 83.2537 202.9 83.6377 202.58L84.2137 202.1C84.5977 201.78 84.9817 201.62 85.3657 201.62ZM91.4137 210.956V204.284C91.4137 204.044 91.3977 203.892 91.3657 203.828C91.3497 203.748 91.2697 203.652 91.1257 203.54C90.9817 203.428 90.8697 203.364 90.7897 203.348C90.7097 203.316 90.5257 203.3 90.2377 203.3H86.2537C85.9657 203.3 85.7817 203.316 85.7017 203.348C85.6217 203.364 85.5097 203.428 85.3657 203.54C85.2217 203.652 85.1337 203.748 85.1017 203.828C85.0857 203.892 85.0777 204.044 85.0777 204.284V210.956C85.0777 211.196 85.0857 211.356 85.1017 211.436C85.1337 211.5 85.2217 211.588 85.3657 211.7C85.5097 211.812 85.6217 211.884 85.7017 211.916C85.7817 211.932 85.9657 211.94 86.2537 211.94H90.2377C90.5257 211.94 90.7097 211.932 90.7897 211.916C90.8697 211.884 90.9817 211.812 91.1257 211.7C91.2697 211.588 91.3497 211.5 91.3657 211.436C91.3977 211.356 91.4137 211.196 91.4137 210.956ZM96.4467 195.86H98.4627V210.62C98.4627 210.988 98.4787 211.22 98.5107 211.316C98.5427 211.396 98.6547 211.5 98.8467 211.628C99.0547 211.788 99.1747 211.916 99.2067 212.012C99.2547 212.092 99.2787 212.316 99.2787 212.684V213.62H98.5587C98.2547 213.62 98.0547 213.604 97.9587 213.572C97.8627 213.54 97.6947 213.444 97.4547 213.284L96.9267 212.924C96.6867 212.764 96.5427 212.636 96.4947 212.54C96.4627 212.444 96.4467 212.212 96.4467 211.844V195.86ZM111.304 211.46L112.744 212.66L112.168 213.14C111.88 213.38 111.68 213.524 111.568 213.572C111.472 213.604 111.28 213.62 110.992 213.62H104.584C104.2 213.62 103.816 213.46 103.432 213.14L102.856 212.66C102.472 212.34 102.28 211.94 102.28 211.46V203.78C102.28 203.3 102.472 202.9 102.856 202.58L103.432 202.1C103.816 201.78 104.2 201.62 104.584 201.62H110.176C110.496 201.62 110.88 201.78 111.328 202.1L111.928 202.58C112.312 202.868 112.504 203.268 112.504 203.78V208.7H104.296V210.956C104.296 211.196 104.304 211.356 104.32 211.436C104.352 211.5 104.44 211.588 104.584 211.7C104.728 211.812 104.84 211.884 104.92 211.916C105 211.932 105.184 211.94 105.472 211.94H110.128C110.416 211.94 110.608 211.924 110.704 211.892C110.816 211.844 111.016 211.7 111.304 211.46ZM110.488 207.14V204.284C110.488 204.044 110.472 203.892 110.44 203.828C110.424 203.748 110.344 203.652 110.2 203.54C110.056 203.428 109.944 203.364 109.864 203.348C109.784 203.316 109.6 203.3 109.312 203.3H105.472C105.184 203.3 105 203.316 104.92 203.348C104.84 203.364 104.728 203.428 104.584 203.54C104.44 203.652 104.352 203.748 104.32 203.828C104.304 203.892 104.296 204.044 104.296 204.284V207.14H110.488ZM125.605 216.26H121.285V196.58H125.605V198.14H123.013V214.7H125.605V216.26ZM129.494 203.3H128.198C127.99 203.14 127.862 203.02 127.814 202.94C127.782 202.844 127.766 202.612 127.766 202.244V201.62H129.494V198.596C129.494 198.116 129.686 197.716 130.07 197.396L130.646 196.916C131.03 196.596 131.414 196.436 131.798 196.436H134.678C134.886 196.596 135.006 196.724 135.038 196.82C135.086 196.9 135.11 197.124 135.11 197.492V198.116H132.542C132.238 198.116 131.99 198.196 131.798 198.356C131.654 198.468 131.566 198.564 131.534 198.644C131.518 198.708 131.51 198.86 131.51 199.1V201.62H134.198C134.406 201.78 134.526 201.908 134.558 202.004C134.606 202.084 134.63 202.308 134.63 202.676V203.3H131.51V213.62H129.494V203.3ZM139.248 201.62H145.008C145.392 201.62 145.776 201.78 146.16 202.1L146.736 202.58C147.12 202.9 147.312 203.3 147.312 203.78V211.46C147.312 211.94 147.12 212.34 146.736 212.66L146.16 213.14C145.776 213.46 145.392 213.62 145.008 213.62H139.248C138.864 213.62 138.48 213.46 138.096 213.14L137.52 212.66C137.136 212.34 136.944 211.94 136.944 211.46V203.78C136.944 203.3 137.136 202.9 137.52 202.58L138.096 202.1C138.48 201.78 138.864 201.62 139.248 201.62ZM145.296 210.956V204.284C145.296 204.044 145.28 203.892 145.248 203.828C145.232 203.748 145.152 203.652 145.008 203.54C144.864 203.428 144.752 203.364 144.672 203.348C144.592 203.316 144.408 203.3 144.12 203.3H140.136C139.848 203.3 139.664 203.316 139.584 203.348C139.504 203.364 139.392 203.428 139.248 203.54C139.104 203.652 139.016 203.748 138.984 203.828C138.968 203.892 138.96 204.044 138.96 204.284V210.956C138.96 211.196 138.968 211.356 138.984 211.436C139.016 211.5 139.104 211.588 139.248 211.7C139.392 211.812 139.504 211.884 139.584 211.916C139.664 211.932 139.848 211.94 140.136 211.94H144.12C144.408 211.94 144.592 211.932 144.672 211.916C144.752 211.884 144.864 211.812 145.008 211.7C145.152 211.588 145.232 211.5 145.248 211.436C145.28 211.356 145.296 211.196 145.296 210.956ZM150.21 201.62H151.05C151.338 201.62 151.53 201.644 151.626 201.692C151.738 201.724 151.89 201.82 152.082 201.98C152.338 202.188 152.466 202.388 152.466 202.58H152.562C152.562 202.388 152.738 202.188 153.09 201.98C153.378 201.804 153.57 201.7 153.666 201.668C153.778 201.636 153.978 201.62 154.266 201.62H156.474C156.858 201.62 157.242 201.78 157.626 202.1L158.202 202.58L156.762 203.78L156.474 203.54C156.33 203.428 156.218 203.364 156.138 203.348C156.058 203.316 155.874 203.3 155.586 203.3H154.554C154.266 203.3 154.066 203.316 153.954 203.348C153.858 203.38 153.666 203.484 153.378 203.66C153.09 203.836 152.922 203.964 152.874 204.044C152.826 204.124 152.802 204.284 152.802 204.524V213.62H150.786V204.284C150.786 204.044 150.77 203.892 150.738 203.828C150.722 203.748 150.642 203.652 150.498 203.54C150.354 203.428 150.266 203.34 150.234 203.276C150.218 203.196 150.21 203.036 150.21 202.796V201.62ZM163.433 211.94H166.865C167.249 211.94 167.633 211.78 168.017 211.46C168.401 211.14 168.593 210.82 168.593 210.5V204.524C168.593 204.284 168.569 204.124 168.521 204.044C168.473 203.964 168.305 203.836 168.017 203.66C167.729 203.484 167.529 203.38 167.417 203.348C167.321 203.316 167.129 203.3 166.841 203.3H163.433C163.145 203.3 162.961 203.316 162.881 203.348C162.801 203.364 162.689 203.428 162.545 203.54C162.401 203.652 162.313 203.748 162.281 203.828C162.265 203.892 162.257 204.044 162.257 204.284V210.956C162.257 211.196 162.265 211.356 162.281 211.436C162.313 211.5 162.401 211.588 162.545 211.7C162.689 211.812 162.801 211.884 162.881 211.916C162.961 211.932 163.145 211.94 163.433 211.94ZM161.729 218.18H167.417C167.705 218.18 167.889 218.164 167.969 218.132C168.049 218.116 168.161 218.052 168.305 217.94C168.449 217.828 168.529 217.732 168.545 217.652C168.577 217.588 168.593 217.436 168.593 217.196V212.468H168.497C168.465 212.612 168.273 212.836 167.921 213.14C167.537 213.46 167.153 213.62 166.769 213.62H162.545C162.161 213.62 161.777 213.46 161.393 213.14L160.817 212.66C160.433 212.34 160.241 211.94 160.241 211.46V203.78C160.241 203.3 160.433 202.9 160.817 202.58L161.393 202.1C161.777 201.78 162.161 201.62 162.545 201.62H167.129C167.417 201.62 167.609 201.636 167.705 201.668C167.817 201.7 168.017 201.804 168.305 201.98C168.657 202.188 168.833 202.388 168.833 202.58H168.929C168.929 202.388 169.057 202.188 169.313 201.98C169.505 201.82 169.649 201.724 169.745 201.692C169.857 201.644 170.057 201.62 170.345 201.62H171.185V202.796C171.185 203.036 171.169 203.196 171.137 203.276C171.121 203.34 171.041 203.428 170.897 203.54C170.753 203.652 170.665 203.748 170.633 203.828C170.617 203.892 170.609 204.044 170.609 204.284V217.7C170.609 218.18 170.417 218.58 170.033 218.9L169.457 219.38C169.073 219.7 168.689 219.86 168.305 219.86H161.297V219.236C161.297 218.868 161.313 218.636 161.345 218.54C161.393 218.46 161.521 218.34 161.729 218.18ZM183.093 211.46L184.533 212.66L183.957 213.14C183.669 213.38 183.469 213.524 183.357 213.572C183.261 213.604 183.069 213.62 182.781 213.62H176.373C175.989 213.62 175.605 213.46 175.221 213.14L174.645 212.66C174.261 212.34 174.069 211.94 174.069 211.46V203.78C174.069 203.3 174.261 202.9 174.645 202.58L175.221 202.1C175.605 201.78 175.989 201.62 176.373 201.62H181.965C182.285 201.62 182.669 201.78 183.117 202.1L183.717 202.58C184.101 202.868 184.293 203.268 184.293 203.78V208.7H176.085V210.956C176.085 211.196 176.093 211.356 176.109 211.436C176.141 211.5 176.229 211.588 176.373 211.7C176.517 211.812 176.629 211.884 176.709 211.916C176.789 211.932 176.973 211.94 177.261 211.94H181.917C182.205 211.94 182.397 211.924 182.493 211.892C182.605 211.844 182.805 211.7 183.093 211.46ZM182.277 207.14V204.284C182.277 204.044 182.261 203.892 182.229 203.828C182.213 203.748 182.133 203.652 181.989 203.54C181.845 203.428 181.733 203.364 181.653 203.348C181.573 203.316 181.389 203.3 181.101 203.3H177.261C176.973 203.3 176.789 203.316 176.709 203.348C176.629 203.364 176.517 203.428 176.373 203.54C176.229 203.652 176.141 203.748 176.109 203.828C176.093 203.892 176.085 204.044 176.085 204.284V207.14H182.277ZM187.17 201.62H188.01C188.298 201.62 188.49 201.644 188.586 201.692C188.698 201.724 188.85 201.82 189.042 201.98C189.298 202.188 189.426 202.388 189.426 202.58H189.522C189.522 202.388 189.698 202.188 190.05 201.98C190.338 201.804 190.53 201.7 190.626 201.668C190.738 201.636 190.938 201.62 191.226 201.62H193.434C193.818 201.62 194.202 201.78 194.586 202.1L195.162 202.58L193.722 203.78L193.434 203.54C193.29 203.428 193.178 203.364 193.098 203.348C193.018 203.316 192.834 203.3 192.546 203.3H191.514C191.226 203.3 191.026 203.316 190.914 203.348C190.818 203.38 190.626 203.484 190.338 203.66C190.05 203.836 189.882 203.964 189.834 204.044C189.786 204.124 189.762 204.284 189.762 204.524V213.62H187.746V204.284C187.746 204.044 187.73 203.892 187.698 203.828C187.682 203.748 187.602 203.652 187.458 203.54C187.314 203.428 187.226 203.34 187.194 203.276C187.178 203.196 187.17 203.036 187.17 202.796V201.62ZM205.53 201.62H211.29C211.674 201.62 212.058 201.78 212.442 202.1L213.018 202.58C213.402 202.9 213.594 203.3 213.594 203.78V211.46C213.594 211.94 213.402 212.34 213.018 212.66L212.442 213.14C212.058 213.46 211.674 213.62 211.29 213.62H205.53C205.146 213.62 204.762 213.46 204.378 213.14L203.802 212.66C203.418 212.34 203.226 211.94 203.226 211.46V203.78C203.226 203.3 203.418 202.9 203.802 202.58L204.378 202.1C204.762 201.78 205.146 201.62 205.53 201.62ZM211.578 210.956V204.284C211.578 204.044 211.562 203.892 211.53 203.828C211.514 203.748 211.434 203.652 211.29 203.54C211.146 203.428 211.034 203.364 210.954 203.348C210.874 203.316 210.69 203.3 210.402 203.3H206.418C206.13 203.3 205.946 203.316 205.866 203.348C205.786 203.364 205.674 203.428 205.53 203.54C205.386 203.652 205.298 203.748 205.266 203.828C205.25 203.892 205.242 204.044 205.242 204.284V210.956C205.242 211.196 205.25 211.356 205.266 211.436C205.298 211.5 205.386 211.588 205.53 211.7C205.674 211.812 205.786 211.884 205.866 211.916C205.946 211.932 206.13 211.94 206.418 211.94H210.402C210.69 211.94 210.874 211.932 210.954 211.916C211.034 211.884 211.146 211.812 211.29 211.7C211.434 211.588 211.514 211.5 211.53 211.436C211.562 211.356 211.578 211.196 211.578 210.956ZM216.491 201.62H217.331C217.619 201.62 217.811 201.644 217.907 201.692C218.019 201.724 218.171 201.82 218.363 201.98C218.619 202.188 218.747 202.388 218.747 202.58H218.843C218.843 202.388 219.019 202.188 219.371 201.98C219.659 201.804 219.851 201.7 219.947 201.668C220.059 201.636 220.259 201.62 220.547 201.62H222.755C223.139 201.62 223.523 201.78 223.907 202.1L224.483 202.58L223.043 203.78L222.755 203.54C222.611 203.428 222.499 203.364 222.419 203.348C222.339 203.316 222.155 203.3 221.867 203.3H220.835C220.547 203.3 220.347 203.316 220.235 203.348C220.139 203.38 219.947 203.484 219.659 203.66C219.371 203.836 219.203 203.964 219.155 204.044C219.107 204.124 219.083 204.284 219.083 204.524V213.62H217.067V204.284C217.067 204.044 217.051 203.892 217.019 203.828C217.003 203.748 216.923 203.652 216.779 203.54C216.635 203.428 216.547 203.34 216.515 203.276C216.499 203.196 216.491 203.036 216.491 202.796V201.62ZM241.858 202.772H241.954C241.97 202.628 242.122 202.452 242.41 202.244L242.77 201.98C243.058 201.804 243.25 201.7 243.346 201.668C243.458 201.636 243.658 201.62 243.946 201.62H247.762C248.146 201.62 248.53 201.78 248.914 202.1L249.49 202.58C249.874 202.9 250.066 203.3 250.066 203.78V213.62H248.05V204.284C248.05 204.044 248.034 203.892 248.002 203.828C247.986 203.748 247.906 203.652 247.762 203.54C247.618 203.428 247.506 203.364 247.426 203.348C247.346 203.316 247.162 203.3 246.874 203.3H244.234C243.946 203.3 243.746 203.316 243.634 203.348C243.538 203.38 243.346 203.484 243.058 203.66C242.69 203.884 242.498 204.092 242.482 204.284V213.62H240.466V204.284C240.466 204.044 240.45 203.892 240.418 203.828C240.402 203.748 240.322 203.652 240.178 203.54C240.034 203.428 239.922 203.364 239.842 203.348C239.762 203.316 239.578 203.3 239.29 203.3H236.866C236.578 203.3 236.378 203.316 236.266 203.348C236.17 203.38 235.978 203.484 235.69 203.66C235.402 203.836 235.234 203.964 235.186 204.044C235.138 204.124 235.114 204.284 235.114 204.524V213.62H233.098V204.284C233.098 204.044 233.082 203.892 233.05 203.828C233.034 203.748 232.954 203.652 232.81 203.54C232.666 203.428 232.578 203.34 232.546 203.276C232.53 203.196 232.522 203.036 232.522 202.796V201.62H233.362C233.65 201.62 233.842 201.644 233.938 201.692C234.05 201.724 234.202 201.82 234.394 201.98C234.65 202.188 234.778 202.388 234.778 202.58H234.874C234.874 202.388 235.05 202.188 235.402 201.98C235.69 201.804 235.882 201.7 235.978 201.668C236.09 201.636 236.29 201.62 236.578 201.62H240.178C240.562 201.62 240.946 201.78 241.33 202.1C241.666 202.404 241.842 202.628 241.858 202.772ZM261.96 211.46L263.4 212.66L262.824 213.14C262.536 213.38 262.336 213.524 262.224 213.572C262.128 213.604 261.936 213.62 261.648 213.62H255.24C254.856 213.62 254.472 213.46 254.088 213.14L253.512 212.66C253.128 212.34 252.936 211.94 252.936 211.46V203.78C252.936 203.3 253.128 202.9 253.512 202.58L254.088 202.1C254.472 201.78 254.856 201.62 255.24 201.62H260.832C261.152 201.62 261.536 201.78 261.984 202.1L262.584 202.58C262.968 202.868 263.16 203.268 263.16 203.78V208.7H254.952V210.956C254.952 211.196 254.96 211.356 254.976 211.436C255.008 211.5 255.096 211.588 255.24 211.7C255.384 211.812 255.496 211.884 255.576 211.916C255.656 211.932 255.84 211.94 256.128 211.94H260.784C261.072 211.94 261.264 211.924 261.36 211.892C261.472 211.844 261.672 211.7 261.96 211.46ZM261.144 207.14V204.284C261.144 204.044 261.128 203.892 261.096 203.828C261.08 203.748 261 203.652 260.856 203.54C260.712 203.428 260.6 203.364 260.52 203.348C260.44 203.316 260.256 203.3 259.968 203.3H256.128C255.84 203.3 255.656 203.316 255.576 203.348C255.496 203.364 255.384 203.428 255.24 203.54C255.096 203.652 255.008 203.748 254.976 203.828C254.96 203.892 254.952 204.044 254.952 204.284V207.14H261.144ZM266.038 201.62H266.878C267.166 201.62 267.358 201.644 267.454 201.692C267.566 201.724 267.718 201.82 267.91 201.98C268.166 202.188 268.294 202.388 268.294 202.58H268.39C268.39 202.388 268.566 202.188 268.918 201.98C269.206 201.804 269.398 201.7 269.494 201.668C269.606 201.636 269.806 201.62 270.094 201.62H272.302C272.686 201.62 273.07 201.78 273.454 202.1L274.03 202.58L272.59 203.78L272.302 203.54C272.158 203.428 272.046 203.364 271.966 203.348C271.886 203.316 271.702 203.3 271.414 203.3H270.382C270.094 203.3 269.894 203.316 269.782 203.348C269.686 203.38 269.494 203.484 269.206 203.66C268.918 203.836 268.75 203.964 268.702 204.044C268.654 204.124 268.63 204.284 268.63 204.524V213.62H266.614V204.284C266.614 204.044 266.598 203.892 266.566 203.828C266.55 203.748 266.47 203.652 266.326 203.54C266.182 203.428 266.094 203.34 266.062 203.276C266.046 203.196 266.038 203.036 266.038 202.796V201.62ZM279.261 211.94H282.693C283.077 211.94 283.461 211.78 283.845 211.46C284.229 211.14 284.421 210.82 284.421 210.5V204.524C284.421 204.284 284.397 204.124 284.349 204.044C284.301 203.964 284.133 203.836 283.845 203.66C283.557 203.484 283.357 203.38 283.245 203.348C283.149 203.316 282.957 203.3 282.669 203.3H279.261C278.973 203.3 278.789 203.316 278.709 203.348C278.629 203.364 278.517 203.428 278.373 203.54C278.229 203.652 278.141 203.748 278.109 203.828C278.093 203.892 278.085 204.044 278.085 204.284V210.956C278.085 211.196 278.093 211.356 278.109 211.436C278.141 211.5 278.229 211.588 278.373 211.7C278.517 211.812 278.629 211.884 278.709 211.916C278.789 211.932 278.973 211.94 279.261 211.94ZM277.557 218.18H283.245C283.533 218.18 283.717 218.164 283.797 218.132C283.877 218.116 283.989 218.052 284.133 217.94C284.277 217.828 284.357 217.732 284.373 217.652C284.405 217.588 284.421 217.436 284.421 217.196V212.468H284.325C284.293 212.612 284.101 212.836 283.749 213.14C283.365 213.46 282.981 213.62 282.597 213.62H278.373C277.989 213.62 277.605 213.46 277.221 213.14L276.645 212.66C276.261 212.34 276.069 211.94 276.069 211.46V203.78C276.069 203.3 276.261 202.9 276.645 202.58L277.221 202.1C277.605 201.78 277.989 201.62 278.373 201.62H282.957C283.245 201.62 283.437 201.636 283.533 201.668C283.645 201.7 283.845 201.804 284.133 201.98C284.485 202.188 284.661 202.388 284.661 202.58H284.757C284.757 202.388 284.885 202.188 285.141 201.98C285.333 201.82 285.477 201.724 285.573 201.692C285.685 201.644 285.885 201.62 286.173 201.62H287.013V202.796C287.013 203.036 286.997 203.196 286.965 203.276C286.949 203.34 286.869 203.428 286.725 203.54C286.581 203.652 286.493 203.748 286.461 203.828C286.445 203.892 286.437 204.044 286.437 204.284V217.7C286.437 218.18 286.245 218.58 285.861 218.9L285.285 219.38C284.901 219.7 284.517 219.86 284.133 219.86H277.125V219.236C277.125 218.868 277.141 218.636 277.173 218.54C277.221 218.46 277.349 218.34 277.557 218.18ZM298.921 211.46L300.361 212.66L299.785 213.14C299.497 213.38 299.297 213.524 299.185 213.572C299.089 213.604 298.897 213.62 298.609 213.62H292.201C291.817 213.62 291.433 213.46 291.049 213.14L290.473 212.66C290.089 212.34 289.897 211.94 289.897 211.46V203.78C289.897 203.3 290.089 202.9 290.473 202.58L291.049 202.1C291.433 201.78 291.817 201.62 292.201 201.62H297.793C298.113 201.62 298.497 201.78 298.945 202.1L299.545 202.58C299.929 202.868 300.121 203.268 300.121 203.78V208.7H291.913V210.956C291.913 211.196 291.921 211.356 291.937 211.436C291.969 211.5 292.057 211.588 292.201 211.7C292.345 211.812 292.457 211.884 292.537 211.916C292.617 211.932 292.801 211.94 293.089 211.94H297.745C298.033 211.94 298.225 211.924 298.321 211.892C298.433 211.844 298.633 211.7 298.921 211.46ZM298.105 207.14V204.284C298.105 204.044 298.089 203.892 298.057 203.828C298.041 203.748 297.961 203.652 297.817 203.54C297.673 203.428 297.561 203.364 297.481 203.348C297.401 203.316 297.217 203.3 296.929 203.3H293.089C292.801 203.3 292.617 203.316 292.537 203.348C292.457 203.364 292.345 203.428 292.201 203.54C292.057 203.652 291.969 203.748 291.937 203.828C291.921 203.892 291.913 204.044 291.913 204.284V207.14H298.105ZM302.999 201.62H303.839C304.127 201.62 304.319 201.644 304.415 201.692C304.527 201.724 304.679 201.82 304.871 201.98C305.127 202.188 305.255 202.388 305.255 202.58H305.351C305.351 202.388 305.527 202.188 305.879 201.98C306.167 201.804 306.359 201.7 306.455 201.668C306.567 201.636 306.767 201.62 307.055 201.62H309.263C309.647 201.62 310.031 201.78 310.415 202.1L310.991 202.58L309.551 203.78L309.263 203.54C309.119 203.428 309.007 203.364 308.927 203.348C308.847 203.316 308.663 203.3 308.375 203.3H307.343C307.055 203.3 306.855 203.316 306.743 203.348C306.647 203.38 306.455 203.484 306.167 203.66C305.879 203.836 305.711 203.964 305.663 204.044C305.615 204.124 305.591 204.284 305.591 204.524V213.62H303.575V204.284C303.575 204.044 303.559 203.892 303.527 203.828C303.511 203.748 303.431 203.652 303.287 203.54C303.143 203.428 303.055 203.34 303.023 203.276C303.007 203.196 302.999 203.036 302.999 202.796V201.62ZM312.91 196.58H317.23V216.26H312.91V214.7H315.502V198.14H312.91V196.58ZM328.197 213.62H326.181V201.62H328.197V213.62ZM328.413 197.876V198.068C328.413 198.372 328.397 198.564 328.365 198.644C328.349 198.724 328.277 198.82 328.149 198.932C328.021 199.06 327.725 199.124 327.261 199.124H327.141C326.789 199.124 326.573 199.116 326.493 199.1C326.413 199.084 326.317 199.028 326.205 198.932C326.093 198.82 326.021 198.724 325.989 198.644C325.973 198.564 325.965 198.372 325.965 198.068V197.876C325.965 197.572 325.973 197.38 325.989 197.3C326.021 197.22 326.101 197.124 326.229 197.012C326.325 196.916 326.413 196.86 326.493 196.844C326.573 196.828 326.789 196.82 327.141 196.82H327.237C327.717 196.82 328.029 196.884 328.173 197.012C328.285 197.124 328.349 197.22 328.365 197.3C328.397 197.38 328.413 197.572 328.413 197.876ZM338.802 206.66C339.186 206.66 339.57 206.82 339.954 207.14L340.53 207.62C340.914 207.94 341.106 208.34 341.106 208.82V211.46C341.106 211.94 340.914 212.34 340.53 212.66L339.954 213.14C339.57 213.46 339.186 213.62 338.802 213.62H333.474C333.09 213.62 332.706 213.46 332.322 213.14L331.746 212.66C331.362 212.34 331.17 211.94 331.17 211.46V210.5H333.186V210.956C333.186 211.196 333.194 211.356 333.21 211.436C333.242 211.5 333.33 211.588 333.474 211.7C333.618 211.812 333.73 211.884 333.81 211.916C333.89 211.932 334.074 211.94 334.362 211.94H337.914C338.202 211.94 338.386 211.932 338.466 211.916C338.546 211.884 338.658 211.812 338.802 211.7C338.946 211.588 339.026 211.5 339.042 211.436C339.074 211.356 339.09 211.196 339.09 210.956V209.012C339.074 208.884 338.978 208.74 338.802 208.58C338.658 208.468 338.546 208.404 338.466 208.388C338.386 208.356 338.202 208.34 337.914 208.34H333.714C333.33 208.34 332.946 208.18 332.562 207.86L331.986 207.38C331.602 207.06 331.41 206.66 331.41 206.18V203.78C331.41 203.3 331.602 202.9 331.986 202.58L332.562 202.1C332.946 201.78 333.33 201.62 333.714 201.62H338.802C339.186 201.62 339.57 201.78 339.954 202.1L340.53 202.58C340.914 202.9 341.106 203.3 341.106 203.78V204.74H339.09V204.284C339.09 204.044 339.074 203.892 339.042 203.828C339.026 203.748 338.946 203.652 338.802 203.54C338.658 203.428 338.546 203.364 338.466 203.348C338.386 203.316 338.202 203.3 337.914 203.3H334.602C334.314 203.3 334.13 203.316 334.05 203.348C333.97 203.364 333.858 203.428 333.714 203.54C333.57 203.652 333.482 203.748 333.45 203.828C333.434 203.892 333.426 204.044 333.426 204.284V205.676C333.426 205.916 333.434 206.076 333.45 206.156C333.482 206.22 333.57 206.308 333.714 206.42C333.858 206.532 333.97 206.604 334.05 206.636C334.13 206.652 334.314 206.66 334.602 206.66H338.802ZM73.0796 231.3H69.6476C69.3596 231.3 69.1756 231.316 69.0956 231.348C69.0156 231.364 68.9036 231.428 68.7596 231.54C68.6156 231.652 68.5276 231.748 68.4956 231.828C68.4796 231.892 68.4716 232.044 68.4716 232.284V238.956C68.4716 239.196 68.4796 239.356 68.4956 239.436C68.5276 239.5 68.6156 239.588 68.7596 239.7C68.9036 239.812 69.0156 239.884 69.0956 239.916C69.1756 239.932 69.3596 239.94 69.6476 239.94H73.0556C73.3436 239.94 73.5356 239.924 73.6316 239.892C73.7436 239.86 73.9436 239.756 74.2316 239.58C74.5196 239.404 74.6876 239.276 74.7356 239.196C74.7836 239.116 74.8076 238.956 74.8076 238.716V232.74C74.8076 232.42 74.6156 232.1 74.2316 231.78C73.8476 231.46 73.4636 231.3 73.0796 231.3ZM73.3436 241.62H68.7596C68.3756 241.62 67.9916 241.46 67.6076 241.14L67.0316 240.66C66.6476 240.34 66.4556 239.94 66.4556 239.46V231.78C66.4556 231.3 66.6476 230.9 67.0316 230.58L67.6076 230.1C67.9916 229.78 68.3756 229.62 68.7596 229.62H72.9836C73.3676 229.62 73.7516 229.78 74.1356 230.1C74.5196 230.484 74.7116 230.724 74.7116 230.82H74.8076V223.86H76.8236V238.956C76.8236 239.196 76.8316 239.356 76.8476 239.436C76.8796 239.5 76.9676 239.588 77.1116 239.7C77.2556 239.812 77.3356 239.908 77.3516 239.988C77.3836 240.052 77.3996 240.204 77.3996 240.444V241.62H76.5596C76.2716 241.62 76.0716 241.604 75.9596 241.572C75.8636 241.524 75.7196 241.42 75.5276 241.26C75.2716 241.052 75.1436 240.852 75.1436 240.66H75.0476C75.0476 240.852 74.8716 241.052 74.5196 241.26C74.2316 241.436 74.0316 241.54 73.9196 241.572C73.8236 241.604 73.6316 241.62 73.3436 241.62ZM89.3078 239.46L90.7478 240.66L90.1718 241.14C89.8838 241.38 89.6838 241.524 89.5718 241.572C89.4758 241.604 89.2838 241.62 88.9958 241.62H82.5878C82.2038 241.62 81.8198 241.46 81.4358 241.14L80.8598 240.66C80.4758 240.34 80.2838 239.94 80.2838 239.46V231.78C80.2838 231.3 80.4758 230.9 80.8598 230.58L81.4358 230.1C81.8198 229.78 82.2038 229.62 82.5878 229.62H88.1798C88.4998 229.62 88.8838 229.78 89.3318 230.1L89.9318 230.58C90.3158 230.868 90.5078 231.268 90.5078 231.78V236.7H82.2998V238.956C82.2998 239.196 82.3078 239.356 82.3238 239.436C82.3558 239.5 82.4438 239.588 82.5878 239.7C82.7318 239.812 82.8438 239.884 82.9238 239.916C83.0038 239.932 83.1878 239.94 83.4758 239.94H88.1318C88.4198 239.94 88.6118 239.924 88.7078 239.892C88.8198 239.844 89.0198 239.7 89.3078 239.46ZM88.4918 235.14V232.284C88.4918 232.044 88.4758 231.892 88.4438 231.828C88.4278 231.748 88.3478 231.652 88.2038 231.54C88.0598 231.428 87.9478 231.364 87.8678 231.348C87.7878 231.316 87.6038 231.3 87.3158 231.3H83.4758C83.1878 231.3 83.0038 231.316 82.9238 231.348C82.8438 231.364 82.7318 231.428 82.5878 231.54C82.4438 231.652 82.3558 231.748 82.3238 231.828C82.3078 231.892 82.2998 232.044 82.2998 232.284V235.14H88.4918ZM96.1453 226.26V229.62H99.2173C99.4253 229.78 99.5453 229.908 99.5773 230.004C99.6253 230.084 99.6493 230.308 99.6493 230.676V231.3H96.1453V238.956C96.1453 239.196 96.1533 239.356 96.1693 239.436C96.2013 239.5 96.2893 239.588 96.4333 239.7C96.5773 239.812 96.6893 239.884 96.7693 239.916C96.8493 239.932 97.0333 239.94 97.3213 239.94H99.5053C99.7133 240.1 99.8333 240.228 99.8653 240.324C99.9133 240.404 99.9373 240.628 99.9373 240.996V241.62H96.4333C96.0493 241.62 95.6653 241.46 95.2813 241.14L94.7053 240.66C94.3213 240.34 94.1293 239.94 94.1293 239.46V231.3H92.9773C92.7693 231.14 92.6413 231.02 92.5933 230.94C92.5613 230.844 92.5453 230.612 92.5453 230.244V229.62H94.1293V226.26H96.1453ZM111.48 239.46L112.92 240.66L112.344 241.14C112.056 241.38 111.856 241.524 111.744 241.572C111.648 241.604 111.456 241.62 111.168 241.62H104.76C104.376 241.62 103.992 241.46 103.608 241.14L103.032 240.66C102.648 240.34 102.456 239.94 102.456 239.46V231.78C102.456 231.3 102.648 230.9 103.032 230.58L103.608 230.1C103.992 229.78 104.376 229.62 104.76 229.62H110.352C110.672 229.62 111.056 229.78 111.504 230.1L112.104 230.58C112.488 230.868 112.68 231.268 112.68 231.78V236.7H104.472V238.956C104.472 239.196 104.48 239.356 104.496 239.436C104.528 239.5 104.616 239.588 104.76 239.7C104.904 239.812 105.016 239.884 105.096 239.916C105.176 239.932 105.36 239.94 105.648 239.94H110.304C110.592 239.94 110.784 239.924 110.88 239.892C110.992 239.844 111.192 239.7 111.48 239.46ZM110.664 235.14V232.284C110.664 232.044 110.648 231.892 110.616 231.828C110.6 231.748 110.52 231.652 110.376 231.54C110.232 231.428 110.12 231.364 110.04 231.348C109.96 231.316 109.776 231.3 109.488 231.3H105.648C105.36 231.3 105.176 231.316 105.096 231.348C105.016 231.364 104.904 231.428 104.76 231.54C104.616 231.652 104.528 231.748 104.496 231.828C104.48 231.892 104.472 232.044 104.472 232.284V235.14H110.664ZM115.557 229.62H116.397C116.685 229.62 116.877 229.644 116.973 229.692C117.085 229.724 117.237 229.82 117.429 229.98C117.685 230.188 117.813 230.388 117.813 230.58H117.909C117.909 230.388 118.085 230.188 118.437 229.98C118.725 229.804 118.917 229.7 119.013 229.668C119.125 229.636 119.325 229.62 119.613 229.62H121.821C122.205 229.62 122.589 229.78 122.973 230.1L123.549 230.58L122.109 231.78L121.821 231.54C121.677 231.428 121.565 231.364 121.485 231.348C121.405 231.316 121.221 231.3 120.933 231.3H119.901C119.613 231.3 119.413 231.316 119.301 231.348C119.205 231.38 119.013 231.484 118.725 231.66C118.437 231.836 118.269 231.964 118.221 232.044C118.173 232.124 118.149 232.284 118.149 232.524V241.62H116.133V232.284C116.133 232.044 116.117 231.892 116.085 231.828C116.069 231.748 115.989 231.652 115.845 231.54C115.701 231.428 115.613 231.34 115.581 231.276C115.565 231.196 115.557 231.036 115.557 230.796V229.62ZM134.924 230.772H135.02C135.036 230.628 135.188 230.452 135.476 230.244L135.836 229.98C136.124 229.804 136.316 229.7 136.412 229.668C136.524 229.636 136.724 229.62 137.012 229.62H140.828C141.212 229.62 141.596 229.78 141.98 230.1L142.556 230.58C142.94 230.9 143.132 231.3 143.132 231.78V241.62H141.116V232.284C141.116 232.044 141.1 231.892 141.068 231.828C141.052 231.748 140.972 231.652 140.828 231.54C140.684 231.428 140.572 231.364 140.492 231.348C140.412 231.316 140.228 231.3 139.94 231.3H137.3C137.012 231.3 136.812 231.316 136.7 231.348C136.604 231.38 136.412 231.484 136.124 231.66C135.756 231.884 135.564 232.092 135.548 232.284V241.62H133.532V232.284C133.532 232.044 133.516 231.892 133.484 231.828C133.468 231.748 133.388 231.652 133.244 231.54C133.1 231.428 132.988 231.364 132.908 231.348C132.828 231.316 132.644 231.3 132.356 231.3H129.932C129.644 231.3 129.444 231.316 129.332 231.348C129.236 231.38 129.044 231.484 128.756 231.66C128.468 231.836 128.3 231.964 128.252 232.044C128.204 232.124 128.18 232.284 128.18 232.524V241.62H126.164V232.284C126.164 232.044 126.148 231.892 126.116 231.828C126.1 231.748 126.02 231.652 125.876 231.54C125.732 231.428 125.644 231.34 125.612 231.276C125.596 231.196 125.588 231.036 125.588 230.796V229.62H126.428C126.716 229.62 126.908 229.644 127.004 229.692C127.116 229.724 127.268 229.82 127.46 229.98C127.716 230.188 127.844 230.388 127.844 230.58H127.94C127.94 230.388 128.116 230.188 128.468 229.98C128.756 229.804 128.948 229.7 129.044 229.668C129.156 229.636 129.356 229.62 129.644 229.62H133.244C133.628 229.62 134.012 229.78 134.396 230.1C134.732 230.404 134.908 230.628 134.924 230.772ZM148.115 241.62H146.099V229.62H148.115V241.62ZM148.331 225.876V226.068C148.331 226.372 148.315 226.564 148.283 226.644C148.267 226.724 148.195 226.82 148.067 226.932C147.939 227.06 147.643 227.124 147.179 227.124H147.059C146.707 227.124 146.491 227.116 146.411 227.1C146.331 227.084 146.235 227.028 146.123 226.932C146.011 226.82 145.939 226.724 145.907 226.644C145.891 226.564 145.883 226.372 145.883 226.068V225.876C145.883 225.572 145.891 225.38 145.907 225.3C145.939 225.22 146.019 225.124 146.146 225.012C146.243 224.916 146.331 224.86 146.411 224.844C146.491 224.828 146.707 224.82 147.059 224.82H147.155C147.635 224.82 147.947 224.884 148.09 225.012C148.203 225.124 148.267 225.22 148.283 225.3C148.315 225.38 148.331 225.572 148.331 225.876ZM151.088 229.62H151.928C152.216 229.62 152.408 229.644 152.504 229.692C152.616 229.724 152.768 229.82 152.96 229.98C153.216 230.188 153.344 230.388 153.344 230.58H153.44C153.44 230.388 153.616 230.188 153.968 229.98C154.256 229.804 154.448 229.7 154.544 229.668C154.656 229.636 154.856 229.62 155.144 229.62H159.392C159.776 229.62 160.16 229.78 160.544 230.1L161.12 230.58C161.504 230.9 161.696 231.3 161.696 231.78V241.62H159.68V232.284C159.68 232.044 159.664 231.892 159.632 231.828C159.616 231.748 159.536 231.652 159.392 231.54C159.248 231.428 159.136 231.364 159.056 231.348C158.976 231.316 158.792 231.3 158.504 231.3H155.432C155.144 231.3 154.944 231.316 154.832 231.348C154.736 231.38 154.544 231.484 154.256 231.66C153.968 231.836 153.8 231.964 153.752 232.044C153.704 232.124 153.68 232.284 153.68 232.524V241.62H151.664V232.284C151.664 232.044 151.648 231.892 151.616 231.828C151.6 231.748 151.52 231.652 151.376 231.54C151.232 231.428 151.144 231.34 151.112 231.276C151.096 231.196 151.088 231.036 151.088 230.796V229.62ZM173.589 239.46L175.029 240.66L174.453 241.14C174.165 241.38 173.965 241.524 173.853 241.572C173.757 241.604 173.565 241.62 173.277 241.62H166.869C166.485 241.62 166.101 241.46 165.717 241.14L165.141 240.66C164.757 240.34 164.565 239.94 164.565 239.46V231.78C164.565 231.3 164.757 230.9 165.141 230.58L165.717 230.1C166.101 229.78 166.485 229.62 166.869 229.62H172.461C172.781 229.62 173.165 229.78 173.613 230.1L174.213 230.58C174.597 230.868 174.789 231.268 174.789 231.78V236.7H166.581V238.956C166.581 239.196 166.589 239.356 166.605 239.436C166.637 239.5 166.725 239.588 166.869 239.7C167.013 239.812 167.125 239.884 167.205 239.916C167.285 239.932 167.469 239.94 167.757 239.94H172.413C172.701 239.94 172.893 239.924 172.989 239.892C173.101 239.844 173.301 239.7 173.589 239.46ZM172.773 235.14V232.284C172.773 232.044 172.757 231.892 172.725 231.828C172.709 231.748 172.629 231.652 172.485 231.54C172.341 231.428 172.229 231.364 172.149 231.348C172.069 231.316 171.885 231.3 171.597 231.3H167.757C167.469 231.3 167.285 231.316 167.205 231.348C167.125 231.364 167.013 231.428 166.869 231.54C166.725 231.652 166.637 231.748 166.605 231.828C166.589 231.892 166.581 232.044 166.581 232.284V235.14H172.773ZM184.291 231.3H180.859C180.571 231.3 180.387 231.316 180.307 231.348C180.227 231.364 180.115 231.428 179.971 231.54C179.827 231.652 179.739 231.748 179.707 231.828C179.691 231.892 179.683 232.044 179.683 232.284V238.956C179.683 239.196 179.691 239.356 179.707 239.436C179.739 239.5 179.827 239.588 179.971 239.7C180.115 239.812 180.227 239.884 180.307 239.916C180.387 239.932 180.571 239.94 180.859 239.94H184.267C184.555 239.94 184.747 239.924 184.843 239.892C184.955 239.86 185.155 239.756 185.443 239.58C185.731 239.404 185.899 239.276 185.947 239.196C185.995 239.116 186.019 238.956 186.019 238.716V232.74C186.019 232.42 185.827 232.1 185.443 231.78C185.059 231.46 184.675 231.3 184.291 231.3ZM184.555 241.62H179.971C179.587 241.62 179.203 241.46 178.819 241.14L178.243 240.66C177.859 240.34 177.667 239.94 177.667 239.46V231.78C177.667 231.3 177.859 230.9 178.243 230.58L178.819 230.1C179.203 229.78 179.587 229.62 179.971 229.62H184.195C184.579 229.62 184.963 229.78 185.347 230.1C185.731 230.484 185.923 230.724 185.923 230.82H186.019V223.86H188.035V238.956C188.035 239.196 188.043 239.356 188.059 239.436C188.091 239.5 188.179 239.588 188.323 239.7C188.467 239.812 188.547 239.908 188.563 239.988C188.595 240.052 188.611 240.204 188.611 240.444V241.62H187.771C187.483 241.62 187.283 241.604 187.171 241.572C187.075 241.524 186.931 241.42 186.739 241.26C186.483 241.052 186.355 240.852 186.355 240.66H186.259C186.259 240.852 186.083 241.052 185.731 241.26C185.443 241.436 185.243 241.54 185.131 241.572C185.035 241.604 184.843 241.62 184.555 241.62ZM205.847 238.956V232.284C205.847 232.044 205.831 231.892 205.799 231.828C205.783 231.748 205.703 231.652 205.559 231.54C205.415 231.428 205.303 231.364 205.223 231.348C205.143 231.316 204.959 231.3 204.671 231.3H201.287C200.983 231.3 200.775 231.316 200.663 231.348C200.567 231.38 200.375 231.484 200.087 231.66C199.799 231.836 199.631 231.964 199.583 232.044C199.535 232.124 199.511 232.284 199.511 232.524V238.716C199.511 238.956 199.535 239.116 199.583 239.196C199.631 239.276 199.799 239.404 200.087 239.58C200.375 239.756 200.567 239.86 200.663 239.892C200.775 239.924 200.975 239.94 201.263 239.94H204.671C204.959 239.94 205.143 239.932 205.223 239.916C205.303 239.884 205.415 239.812 205.559 239.7C205.703 239.588 205.783 239.5 205.799 239.436C205.831 239.356 205.847 239.196 205.847 238.956ZM199.511 223.86V230.748H199.607C199.607 230.604 199.783 230.38 200.135 230.076C200.487 229.772 200.791 229.62 201.047 229.62H205.559C205.943 229.62 206.327 229.78 206.711 230.1L207.287 230.58C207.671 230.9 207.863 231.3 207.863 231.78V239.46C207.863 239.94 207.671 240.34 207.287 240.66L206.711 241.14C206.327 241.46 205.943 241.62 205.559 241.62H201.071C200.783 241.62 200.583 241.604 200.471 241.572C200.375 241.54 200.183 241.436 199.895 241.26C199.527 241.084 199.335 240.908 199.319 240.732H199.223V241.62H197.495V223.86H199.511ZM218.465 247.86H211.553V247.236C211.553 246.868 211.569 246.636 211.601 246.54C211.649 246.46 211.777 246.34 211.985 246.18H217.865C218.153 246.18 218.337 246.164 218.417 246.132C218.497 246.116 218.609 246.052 218.753 245.94C218.897 245.828 218.977 245.732 218.993 245.652C219.025 245.588 219.041 245.436 219.041 245.196V240.468H218.945C218.913 240.612 218.721 240.836 218.369 241.14C217.985 241.46 217.601 241.62 217.217 241.62H213.041C212.657 241.62 212.273 241.46 211.889 241.14L211.313 240.66C210.929 240.34 210.737 239.94 210.737 239.46V229.62H212.753V238.956C212.753 239.196 212.761 239.356 212.777 239.436C212.809 239.5 212.897 239.588 213.041 239.7C213.185 239.812 213.297 239.884 213.377 239.916C213.457 239.932 213.641 239.94 213.929 239.94H217.001C217.289 239.94 217.481 239.924 217.577 239.892C217.689 239.86 217.889 239.756 218.177 239.58C218.465 239.404 218.633 239.276 218.681 239.196C218.729 239.116 218.753 238.956 218.753 238.716V229.62H220.769V245.7C220.769 246.18 220.577 246.58 220.193 246.9L219.617 247.38C219.233 247.7 218.849 247.86 218.465 247.86ZM239.251 232.74H237.235V232.284C237.235 232.044 237.219 231.892 237.187 231.828C237.171 231.748 237.091 231.652 236.947 231.54C236.803 231.428 236.691 231.364 236.611 231.348C236.531 231.316 236.347 231.3 236.059 231.3H232.843C232.555 231.3 232.371 231.316 232.291 231.348C232.211 231.364 232.099 231.428 231.955 231.54C231.811 231.652 231.723 231.748 231.691 231.828C231.675 231.892 231.667 232.044 231.667 232.284V238.956C231.667 239.196 231.675 239.356 231.691 239.436C231.723 239.5 231.811 239.588 231.955 239.7C232.099 239.812 232.211 239.884 232.291 239.916C232.371 239.932 232.555 239.94 232.843 239.94H236.059C236.347 239.94 236.531 239.932 236.611 239.916C236.691 239.884 236.803 239.812 236.947 239.7C237.091 239.588 237.171 239.5 237.187 239.436C237.219 239.356 237.235 239.196 237.235 238.956V238.5H239.251V239.46C239.251 239.94 239.059 240.34 238.675 240.66L238.099 241.14C237.715 241.46 237.331 241.62 236.947 241.62H231.955C231.571 241.62 231.187 241.46 230.803 241.14L230.227 240.66C229.843 240.34 229.651 239.94 229.651 239.46V231.78C229.651 231.3 229.843 230.9 230.227 230.58L230.803 230.1C231.187 229.78 231.571 229.62 231.955 229.62H236.947C237.331 229.62 237.715 229.78 238.099 230.1L238.675 230.58C239.059 230.9 239.251 231.3 239.251 231.78V232.74ZM245.555 229.62H249.755C250.139 229.62 250.523 229.78 250.907 230.1L251.483 230.58C251.867 230.9 252.059 231.3 252.059 231.78V241.62H250.043V232.284C250.043 232.044 250.027 231.892 249.995 231.828C249.979 231.748 249.899 231.652 249.755 231.54C249.611 231.428 249.499 231.364 249.419 231.348C249.339 231.316 249.155 231.3 248.867 231.3H245.795C245.491 231.3 245.283 231.316 245.171 231.348C245.075 231.38 244.883 231.484 244.595 231.66C244.307 231.836 244.139 231.964 244.09 232.044C244.043 232.124 244.019 232.284 244.019 232.524V241.62H242.003V223.86H244.019V230.748H244.115C244.115 230.604 244.291 230.38 244.643 230.076C244.995 229.772 245.299 229.62 245.555 229.62ZM263.964 239.46L265.404 240.66L264.828 241.14C264.54 241.38 264.34 241.524 264.228 241.572C264.132 241.604 263.94 241.62 263.652 241.62H257.244C256.86 241.62 256.476 241.46 256.092 241.14L255.516 240.66C255.132 240.34 254.94 239.94 254.94 239.46V231.78C254.94 231.3 255.132 230.9 255.516 230.58L256.092 230.1C256.476 229.78 256.86 229.62 257.244 229.62H262.836C263.156 229.62 263.54 229.78 263.988 230.1L264.588 230.58C264.972 230.868 265.164 231.268 265.164 231.78V236.7H256.956V238.956C256.956 239.196 256.964 239.356 256.98 239.436C257.012 239.5 257.1 239.588 257.244 239.7C257.388 239.812 257.5 239.884 257.58 239.916C257.66 239.932 257.844 239.94 258.132 239.94H262.788C263.076 239.94 263.268 239.924 263.364 239.892C263.476 239.844 263.676 239.7 263.964 239.46ZM263.148 235.14V232.284C263.148 232.044 263.132 231.892 263.1 231.828C263.084 231.748 263.004 231.652 262.86 231.54C262.716 231.428 262.604 231.364 262.524 231.348C262.444 231.316 262.26 231.3 261.972 231.3H258.132C257.844 231.3 257.66 231.316 257.58 231.348C257.5 231.364 257.388 231.428 257.244 231.54C257.1 231.652 257.012 231.748 256.98 231.828C256.964 231.892 256.956 232.044 256.956 232.284V235.14H263.148ZM277.642 232.74H275.626V232.284C275.626 232.044 275.61 231.892 275.578 231.828C275.562 231.748 275.482 231.652 275.338 231.54C275.194 231.428 275.082 231.364 275.002 231.348C274.922 231.316 274.738 231.3 274.45 231.3H271.234C270.946 231.3 270.762 231.316 270.682 231.348C270.602 231.364 270.49 231.428 270.346 231.54C270.202 231.652 270.114 231.748 270.082 231.828C270.066 231.892 270.058 232.044 270.058 232.284V238.956C270.058 239.196 270.066 239.356 270.082 239.436C270.114 239.5 270.202 239.588 270.346 239.7C270.49 239.812 270.602 239.884 270.682 239.916C270.762 239.932 270.946 239.94 271.234 239.94H274.45C274.738 239.94 274.922 239.932 275.002 239.916C275.082 239.884 275.194 239.812 275.338 239.7C275.482 239.588 275.562 239.5 275.578 239.436C275.61 239.356 275.626 239.196 275.626 238.956V238.5H277.642V239.46C277.642 239.94 277.45 240.34 277.066 240.66L276.49 241.14C276.106 241.46 275.722 241.62 275.338 241.62H270.346C269.962 241.62 269.578 241.46 269.194 241.14L268.618 240.66C268.234 240.34 268.042 239.94 268.042 239.46V231.78C268.042 231.3 268.234 230.9 268.618 230.58L269.194 230.1C269.578 229.78 269.962 229.62 270.346 229.62H275.338C275.722 229.62 276.106 229.78 276.49 230.1L277.066 230.58C277.45 230.9 277.642 231.3 277.642 231.78V232.74ZM280.393 241.62V223.86H282.409V234.78H284.425L286.585 231.252C286.761 230.98 286.889 230.796 286.969 230.7C287.065 230.604 287.233 230.468 287.473 230.292L287.929 229.98C288.185 229.804 288.361 229.7 288.457 229.668C288.569 229.636 288.769 229.62 289.057 229.62H289.537V230.556C289.537 230.924 289.513 231.156 289.465 231.252C289.417 231.332 289.249 231.452 288.961 231.612L288.697 231.756C288.457 231.9 288.297 232.02 288.217 232.116C288.137 232.196 288.001 232.372 287.809 232.644L286.249 235.068C286.105 235.292 285.961 235.444 285.817 235.524V235.62C285.961 235.652 286.145 235.836 286.369 236.172L289.873 241.62H287.641L284.449 236.46H282.409V241.62H280.393ZM294.505 241.62H292.489V229.62H294.505V241.62ZM294.721 225.876V226.068C294.721 226.372 294.705 226.564 294.673 226.644C294.657 226.724 294.585 226.82 294.457 226.932C294.329 227.06 294.033 227.124 293.569 227.124H293.449C293.097 227.124 292.881 227.116 292.801 227.1C292.721 227.084 292.625 227.028 292.513 226.932C292.401 226.82 292.329 226.724 292.297 226.644C292.281 226.564 292.273 226.372 292.273 226.068V225.876C292.273 225.572 292.281 225.38 292.297 225.3C292.329 225.22 292.409 225.124 292.537 225.012C292.633 224.916 292.721 224.86 292.801 224.844C292.881 224.828 293.097 224.82 293.449 224.82H293.545C294.025 224.82 294.337 224.884 294.481 225.012C294.593 225.124 294.657 225.22 294.673 225.3C294.705 225.38 294.721 225.572 294.721 225.876ZM297.479 229.62H298.319C298.607 229.62 298.799 229.644 298.895 229.692C299.007 229.724 299.159 229.82 299.351 229.98C299.607 230.188 299.735 230.388 299.735 230.58H299.831C299.831 230.388 300.007 230.188 300.359 229.98C300.647 229.804 300.839 229.7 300.935 229.668C301.047 229.636 301.247 229.62 301.535 229.62H305.783C306.167 229.62 306.551 229.78 306.935 230.1L307.511 230.58C307.895 230.9 308.087 231.3 308.087 231.78V241.62H306.071V232.284C306.071 232.044 306.055 231.892 306.023 231.828C306.007 231.748 305.927 231.652 305.783 231.54C305.639 231.428 305.527 231.364 305.447 231.348C305.367 231.316 305.183 231.3 304.895 231.3H301.823C301.535 231.3 301.335 231.316 301.223 231.348C301.127 231.38 300.935 231.484 300.647 231.66C300.359 231.836 300.191 231.964 300.143 232.044C300.095 232.124 300.071 232.284 300.071 232.524V241.62H298.055V232.284C298.055 232.044 298.039 231.892 298.007 231.828C297.991 231.748 297.911 231.652 297.767 231.54C297.623 231.428 297.535 231.34 297.503 231.276C297.487 231.196 297.479 231.036 297.479 230.796V229.62ZM314.148 239.94H317.58C317.964 239.94 318.348 239.78 318.732 239.46C319.116 239.14 319.308 238.82 319.308 238.5V232.524C319.308 232.284 319.284 232.124 319.236 232.044C319.188 231.964 319.02 231.836 318.732 231.66C318.444 231.484 318.244 231.38 318.132 231.348C318.036 231.316 317.844 231.3 317.556 231.3H314.148C313.86 231.3 313.676 231.316 313.596 231.348C313.516 231.364 313.404 231.428 313.26 231.54C313.116 231.652 313.028 231.748 312.996 231.828C312.98 231.892 312.972 232.044 312.972 232.284V238.956C312.972 239.196 312.98 239.356 312.996 239.436C313.028 239.5 313.116 239.588 313.26 239.7C313.404 239.812 313.516 239.884 313.596 239.916C313.676 239.932 313.86 239.94 314.148 239.94ZM312.444 246.18H318.132C318.42 246.18 318.604 246.164 318.684 246.132C318.764 246.116 318.876 246.052 319.02 245.94C319.164 245.828 319.244 245.732 319.26 245.652C319.292 245.588 319.308 245.436 319.308 245.196V240.468H319.212C319.18 240.612 318.988 240.836 318.636 241.14C318.252 241.46 317.868 241.62 317.484 241.62H313.26C312.876 241.62 312.492 241.46 312.108 241.14L311.532 240.66C311.148 240.34 310.956 239.94 310.956 239.46V231.78C310.956 231.3 311.148 230.9 311.532 230.58L312.108 230.1C312.492 229.78 312.876 229.62 313.26 229.62H317.844C318.132 229.62 318.324 229.636 318.42 229.668C318.532 229.7 318.732 229.804 319.02 229.98C319.372 230.188 319.548 230.388 319.548 230.58H319.644C319.644 230.388 319.772 230.188 320.028 229.98C320.22 229.82 320.364 229.724 320.46 229.692C320.572 229.644 320.772 229.62 321.06 229.62H321.9V230.796C321.9 231.036 321.884 231.196 321.852 231.276C321.836 231.34 321.756 231.428 321.612 231.54C321.468 231.652 321.38 231.748 321.348 231.828C321.332 231.892 321.324 232.044 321.324 232.284V245.7C321.324 246.18 321.132 246.58 320.748 246.9L320.172 247.38C319.788 247.7 319.404 247.86 319.02 247.86H312.012V247.236C312.012 246.868 312.028 246.636 312.06 246.54C312.108 246.46 312.236 246.34 312.444 246.18ZM332.896 241.62H330.88V229.62H332.896V241.62ZM333.112 225.876V226.068C333.112 226.372 333.096 226.564 333.064 226.644C333.048 226.724 332.976 226.82 332.848 226.932C332.72 227.06 332.424 227.124 331.96 227.124H331.84C331.488 227.124 331.272 227.116 331.192 227.1C331.112 227.084 331.016 227.028 330.904 226.932C330.792 226.82 330.72 226.724 330.688 226.644C330.672 226.564 330.664 226.372 330.664 226.068V225.876C330.664 225.572 330.672 225.38 330.688 225.3C330.72 225.22 330.8 225.124 330.928 225.012C331.024 224.916 331.112 224.86 331.192 224.844C331.272 224.828 331.488 224.82 331.84 224.82H331.936C332.416 224.82 332.728 224.884 332.872 225.012C332.984 225.124 333.048 225.22 333.064 225.3C333.096 225.38 333.112 225.572 333.112 225.876ZM336.998 231.3H335.702C335.494 231.14 335.366 231.02 335.318 230.94C335.286 230.844 335.27 230.612 335.27 230.244V229.62H336.998V226.596C336.998 226.116 337.19 225.716 337.574 225.396L338.15 224.916C338.534 224.596 338.918 224.436 339.302 224.436H342.182C342.39 224.596 342.51 224.724 342.542 224.82C342.59 224.9 342.614 225.124 342.614 225.492V226.116H340.046C339.742 226.116 339.494 226.196 339.302 226.356C339.158 226.468 339.07 226.564 339.038 226.644C339.022 226.708 339.014 226.86 339.014 227.1V229.62H341.702C341.91 229.78 342.03 229.908 342.062 230.004C342.11 230.084 342.134 230.308 342.134 230.676V231.3H339.014V241.62H336.998V231.3ZM92.9171 267.46L94.3571 268.66L93.7811 269.14C93.4931 269.38 93.2931 269.524 93.1811 269.572C93.0851 269.604 92.8931 269.62 92.6051 269.62H86.1971C85.8131 269.62 85.4291 269.46 85.0451 269.14L84.4691 268.66C84.0851 268.34 83.8931 267.94 83.8931 267.46V259.78C83.8931 259.3 84.0851 258.9 84.4691 258.58L85.0451 258.1C85.4291 257.78 85.8131 257.62 86.1971 257.62H91.7891C92.1091 257.62 92.4931 257.78 92.9411 258.1L93.5411 258.58C93.9251 258.868 94.1171 259.268 94.1171 259.78V264.7H85.9091V266.956C85.9091 267.196 85.9171 267.356 85.9331 267.436C85.9651 267.5 86.0531 267.588 86.1971 267.7C86.3411 267.812 86.4531 267.884 86.5331 267.916C86.6131 267.932 86.7971 267.94 87.0851 267.94H91.7411C92.0291 267.94 92.2211 267.924 92.3171 267.892C92.4291 267.844 92.6291 267.7 92.9171 267.46ZM92.1011 263.14V260.284C92.1011 260.044 92.0851 259.892 92.0531 259.828C92.0371 259.748 91.9571 259.652 91.8131 259.54C91.6691 259.428 91.5571 259.364 91.4771 259.348C91.3971 259.316 91.2131 259.3 90.9251 259.3H87.0851C86.7971 259.3 86.6131 259.316 86.5331 259.348C86.4531 259.364 86.3411 259.428 86.1971 259.54C86.0531 259.652 85.9651 259.748 85.9331 259.828C85.9171 259.892 85.9091 260.044 85.9091 260.284V263.14H92.1011ZM96.9947 257.62H97.8347C98.1227 257.62 98.3147 257.644 98.4107 257.692C98.5227 257.724 98.6747 257.82 98.8667 257.98C99.1227 258.188 99.2507 258.388 99.2507 258.58H99.3467C99.3467 258.388 99.5227 258.188 99.8747 257.98C100.163 257.804 100.355 257.7 100.451 257.668C100.563 257.636 100.763 257.62 101.051 257.62H105.299C105.683 257.62 106.067 257.78 106.451 258.1L107.027 258.58C107.411 258.9 107.603 259.3 107.603 259.78V269.62H105.587V260.284C105.587 260.044 105.571 259.892 105.539 259.828C105.523 259.748 105.443 259.652 105.299 259.54C105.155 259.428 105.043 259.364 104.963 259.348C104.883 259.316 104.699 259.3 104.411 259.3H101.339C101.051 259.3 100.851 259.316 100.739 259.348C100.643 259.38 100.451 259.484 100.163 259.66C99.8747 259.836 99.7067 259.964 99.6587 260.044C99.6107 260.124 99.5867 260.284 99.5867 260.524V269.62H97.5707V260.284C97.5707 260.044 97.5547 259.892 97.5227 259.828C97.5067 259.748 97.4267 259.652 97.2827 259.54C97.1387 259.428 97.0507 259.34 97.0187 259.276C97.0027 259.196 96.9947 259.036 96.9947 258.796V257.62ZM113.231 254.26V257.62H116.303C116.511 257.78 116.631 257.908 116.663 258.004C116.711 258.084 116.735 258.308 116.735 258.676V259.3H113.231V266.956C113.231 267.196 113.239 267.356 113.255 267.436C113.287 267.5 113.375 267.588 113.519 267.7C113.663 267.812 113.775 267.884 113.855 267.916C113.935 267.932 114.119 267.94 114.407 267.94H116.591C116.799 268.1 116.919 268.228 116.951 268.324C116.999 268.404 117.023 268.628 117.023 268.996V269.62H113.519C113.135 269.62 112.751 269.46 112.367 269.14L111.791 268.66C111.407 268.34 111.215 267.94 111.215 267.46V259.3H110.063C109.855 259.14 109.727 259.02 109.679 258.94C109.647 258.844 109.631 258.612 109.631 258.244V257.62H111.215V254.26H113.231ZM119.542 257.62H120.382C120.67 257.62 120.862 257.644 120.958 257.692C121.07 257.724 121.222 257.82 121.414 257.98C121.67 258.188 121.798 258.388 121.798 258.58H121.894C121.894 258.388 122.07 258.188 122.422 257.98C122.71 257.804 122.902 257.7 122.998 257.668C123.11 257.636 123.31 257.62 123.598 257.62H125.806C126.19 257.62 126.574 257.78 126.958 258.1L127.534 258.58L126.094 259.78L125.806 259.54C125.662 259.428 125.55 259.364 125.47 259.348C125.39 259.316 125.206 259.3 124.918 259.3H123.886C123.598 259.3 123.398 259.316 123.286 259.348C123.19 259.38 122.998 259.484 122.71 259.66C122.422 259.836 122.254 259.964 122.206 260.044C122.158 260.124 122.134 260.284 122.134 260.524V269.62H120.118V260.284C120.118 260.044 120.102 259.892 120.07 259.828C120.054 259.748 119.974 259.652 119.83 259.54C119.686 259.428 119.598 259.34 119.566 259.276C119.55 259.196 119.542 259.036 119.542 258.796V257.62ZM131.901 257.62H137.661C138.045 257.62 138.429 257.78 138.813 258.1L139.389 258.58C139.773 258.9 139.965 259.3 139.965 259.78V267.46C139.965 267.94 139.773 268.34 139.389 268.66L138.813 269.14C138.429 269.46 138.045 269.62 137.661 269.62H131.901C131.517 269.62 131.133 269.46 130.749 269.14L130.173 268.66C129.789 268.34 129.597 267.94 129.597 267.46V259.78C129.597 259.3 129.789 258.9 130.173 258.58L130.749 258.1C131.133 257.78 131.517 257.62 131.901 257.62ZM137.949 266.956V260.284C137.949 260.044 137.933 259.892 137.901 259.828C137.885 259.748 137.805 259.652 137.661 259.54C137.517 259.428 137.405 259.364 137.325 259.348C137.245 259.316 137.061 259.3 136.773 259.3H132.789C132.501 259.3 132.317 259.316 132.237 259.348C132.157 259.364 132.045 259.428 131.901 259.54C131.757 259.652 131.669 259.748 131.637 259.828C131.621 259.892 131.613 260.044 131.613 260.284V266.956C131.613 267.196 131.621 267.356 131.637 267.436C131.669 267.5 131.757 267.588 131.901 267.7C132.045 267.812 132.157 267.884 132.237 267.916C132.317 267.932 132.501 267.94 132.789 267.94H136.773C137.061 267.94 137.245 267.932 137.325 267.916C137.405 267.884 137.517 267.812 137.661 267.7C137.805 267.588 137.885 267.5 137.901 267.436C137.933 267.356 137.949 267.196 137.949 266.956ZM142.862 257.62H143.702C143.99 257.62 144.182 257.644 144.278 257.692C144.39 257.724 144.542 257.82 144.734 257.98C144.99 258.188 145.118 258.388 145.118 258.58H145.214C145.214 258.388 145.39 258.188 145.742 257.98C146.03 257.804 146.222 257.7 146.318 257.668C146.43 257.636 146.63 257.62 146.918 257.62H151.502C151.886 257.62 152.27 257.78 152.654 258.1L153.23 258.58C153.614 258.9 153.806 259.3 153.806 259.78V267.46C153.806 267.94 153.614 268.34 153.23 268.66L152.654 269.14C152.27 269.46 151.886 269.62 151.502 269.62H147.278C146.862 269.62 146.478 269.46 146.126 269.14C145.742 268.756 145.55 268.516 145.55 268.42H145.454V275.86H143.438V260.284C143.438 260.044 143.422 259.892 143.39 259.828C143.374 259.748 143.294 259.652 143.15 259.54C143.006 259.428 142.918 259.34 142.886 259.276C142.87 259.196 142.862 259.036 142.862 258.796V257.62ZM147.182 267.94H150.614C150.902 267.94 151.086 267.932 151.166 267.916C151.246 267.884 151.358 267.812 151.502 267.7C151.646 267.588 151.726 267.5 151.742 267.436C151.774 267.356 151.79 267.196 151.79 266.956V260.284C151.79 260.044 151.774 259.892 151.742 259.828C151.726 259.748 151.646 259.652 151.502 259.54C151.358 259.428 151.246 259.364 151.166 259.348C151.086 259.316 150.902 259.3 150.614 259.3H147.206C146.918 259.3 146.718 259.316 146.606 259.348C146.51 259.38 146.318 259.484 146.03 259.66C145.742 259.836 145.574 259.964 145.526 260.044C145.478 260.124 145.454 260.284 145.454 260.524V266.5C145.454 266.82 145.646 267.14 146.03 267.46C146.414 267.78 146.798 267.94 147.182 267.94ZM164.418 275.86H157.506V275.236C157.506 274.868 157.522 274.636 157.554 274.54C157.602 274.46 157.73 274.34 157.938 274.18H163.818C164.106 274.18 164.29 274.164 164.37 274.132C164.45 274.116 164.562 274.052 164.706 273.94C164.85 273.828 164.93 273.732 164.946 273.652C164.978 273.588 164.994 273.436 164.994 273.196V268.468H164.898C164.866 268.612 164.674 268.836 164.322 269.14C163.938 269.46 163.554 269.62 163.17 269.62H158.994C158.61 269.62 158.226 269.46 157.842 269.14L157.266 268.66C156.882 268.34 156.69 267.94 156.69 267.46V257.62H158.706V266.956C158.706 267.196 158.714 267.356 158.73 267.436C158.762 267.5 158.85 267.588 158.994 267.7C159.138 267.812 159.25 267.884 159.33 267.916C159.41 267.932 159.594 267.94 159.882 267.94H162.954C163.242 267.94 163.434 267.924 163.53 267.892C163.642 267.86 163.842 267.756 164.13 267.58C164.418 267.404 164.586 267.276 164.634 267.196C164.682 267.116 164.706 266.956 164.706 266.716V257.62H166.722V273.7C166.722 274.18 166.53 274.58 166.146 274.9L165.57 275.38C165.186 275.7 164.802 275.86 164.418 275.86ZM193.676 261.124C193.82 261.124 193.932 261.148 194.012 261.196C194.108 261.244 194.196 261.3 194.276 261.364L194.564 261.628C194.644 261.692 194.708 261.764 194.756 261.844C194.82 261.924 194.852 262.052 194.852 262.228V268.516C194.852 268.692 194.82 268.82 194.756 268.9C194.708 268.98 194.644 269.052 194.564 269.116L194.276 269.38C194.196 269.444 194.108 269.5 194.012 269.548C193.932 269.596 193.82 269.62 193.676 269.62H188.78C188.636 269.62 188.524 269.596 188.444 269.548C188.364 269.5 188.284 269.444 188.204 269.38L187.892 269.116C187.812 269.052 187.74 268.98 187.676 268.9C187.628 268.82 187.604 268.692 187.604 268.516V262.228C187.604 262.052 187.628 261.924 187.676 261.844C187.74 261.764 187.812 261.692 187.892 261.628L188.204 261.364C188.284 261.3 188.364 261.244 188.444 261.196C188.524 261.148 188.636 261.124 188.78 261.124H193.676ZM193.268 263.02C193.268 262.892 193.26 262.812 193.244 262.78C193.244 262.732 193.204 262.676 193.124 262.612C193.044 262.548 192.98 262.516 192.932 262.516C192.9 262.5 192.812 262.492 192.668 262.492H189.812C189.668 262.492 189.572 262.5 189.524 262.516C189.476 262.516 189.412 262.548 189.332 262.612C189.252 262.676 189.204 262.732 189.188 262.78C189.188 262.812 189.188 262.892 189.188 263.02V267.724C189.188 267.852 189.188 267.94 189.188 267.988C189.204 268.02 189.252 268.068 189.332 268.132C189.412 268.196 189.476 268.236 189.524 268.252C189.572 268.252 189.668 268.252 189.812 268.252H192.668C192.812 268.252 192.9 268.252 192.932 268.252C192.98 268.236 193.044 268.196 193.124 268.132C193.204 268.068 193.244 268.02 193.244 267.988C193.26 267.94 193.268 267.852 193.268 267.724V263.02ZM182.036 252.82C182.18 252.82 182.292 252.844 182.372 252.892C182.468 252.94 182.556 252.996 182.636 253.06L182.924 253.324C183.004 253.388 183.068 253.46 183.116 253.54C183.18 253.62 183.212 253.748 183.212 253.924V260.212C183.212 260.388 183.18 260.516 183.116 260.596C183.068 260.676 183.004 260.748 182.924 260.812L182.636 261.076C182.556 261.14 182.468 261.196 182.372 261.244C182.292 261.292 182.18 261.316 182.036 261.316H177.14C176.996 261.316 176.884 261.292 176.804 261.244C176.724 261.196 176.644 261.14 176.564 261.076L176.252 260.812C176.172 260.748 176.1 260.676 176.036 260.596C175.988 260.516 175.964 260.388 175.964 260.212V253.924C175.964 253.748 175.988 253.62 176.036 253.54C176.1 253.46 176.172 253.388 176.252 253.324L176.564 253.06C176.644 252.996 176.724 252.94 176.804 252.892C176.884 252.844 176.996 252.82 177.14 252.82H182.036ZM181.628 254.716C181.628 254.588 181.62 254.508 181.604 254.476C181.604 254.428 181.564 254.372 181.484 254.308C181.404 254.244 181.34 254.212 181.292 254.212C181.26 254.196 181.172 254.188 181.028 254.188H178.172C178.028 254.188 177.932 254.196 177.884 254.212C177.836 254.212 177.772 254.244 177.692 254.308C177.612 254.372 177.564 254.428 177.548 254.476C177.548 254.508 177.548 254.588 177.548 254.716V259.42C177.548 259.548 177.548 259.636 177.548 259.684C177.564 259.716 177.612 259.764 177.692 259.828C177.772 259.892 177.836 259.932 177.884 259.948C177.932 259.948 178.028 259.948 178.172 259.948H181.028C181.172 259.948 181.26 259.948 181.292 259.948C181.34 259.932 181.404 259.892 181.484 259.828C181.564 259.764 181.604 259.716 181.604 259.684C181.62 259.636 181.628 259.548 181.628 259.42V254.716ZM191.948 252.436L180.14 270.724H178.484L190.196 252.436H191.948ZM214.161 261.124L215.097 261.892C215.337 262.084 215.473 262.228 215.505 262.324C215.553 262.42 215.577 262.66 215.577 263.044V267.46C215.577 267.78 215.545 268.004 215.481 268.132C215.433 268.26 215.313 268.428 215.121 268.636L214.689 269.068C214.321 269.436 213.945 269.62 213.561 269.62H206.745C206.361 269.62 205.977 269.46 205.593 269.14L205.017 268.66C204.633 268.34 204.441 267.94 204.441 267.46V266.5H206.457V266.956C206.457 267.196 206.465 267.356 206.481 267.436C206.513 267.5 206.601 267.588 206.745 267.7C206.889 267.812 207.001 267.884 207.081 267.916C207.161 267.932 207.345 267.94 207.633 267.94H212.385C212.673 267.94 212.857 267.932 212.937 267.916C213.017 267.884 213.129 267.812 213.273 267.7C213.417 267.588 213.497 267.5 213.513 267.436C213.545 267.356 213.561 267.196 213.561 266.956V263.332C213.561 262.98 213.417 262.676 213.129 262.42L212.769 262.108C212.529 261.9 212.361 261.78 212.265 261.748C212.169 261.716 211.969 261.7 211.665 261.7H207.825V260.164H211.329C211.633 260.164 211.833 260.148 211.929 260.116C212.025 260.084 212.193 259.964 212.433 259.756L212.793 259.468C213.033 259.276 213.169 259.14 213.201 259.06C213.249 258.964 213.273 258.764 213.273 258.46V255.484C213.273 255.244 213.257 255.092 213.225 255.028C213.209 254.948 213.129 254.852 212.985 254.74C212.841 254.628 212.729 254.564 212.649 254.548C212.569 254.516 212.385 254.5 212.097 254.5H208.137C207.833 254.5 207.641 254.516 207.561 254.548C207.481 254.564 207.369 254.628 207.225 254.74C207.081 254.852 206.993 254.948 206.961 255.028C206.945 255.092 206.937 255.244 206.937 255.484V255.94H204.921V254.98C204.921 254.5 205.113 254.1 205.497 253.78L206.073 253.3C206.457 252.98 206.841 252.82 207.225 252.82H212.985C213.369 252.82 213.753 252.98 214.137 253.3L214.713 253.78C215.097 254.1 215.289 254.5 215.289 254.98V258.916C215.289 259.188 215.265 259.364 215.217 259.444C215.185 259.524 215.065 259.644 214.857 259.804L214.161 260.38C213.905 260.588 213.681 260.692 213.489 260.692V260.812C213.681 260.812 213.905 260.916 214.161 261.124ZM234.081 267.46L235.521 268.66L234.945 269.14C234.657 269.38 234.457 269.524 234.345 269.572C234.249 269.604 234.057 269.62 233.769 269.62H227.361C226.977 269.62 226.593 269.46 226.209 269.14L225.633 268.66C225.249 268.34 225.057 267.94 225.057 267.46V259.78C225.057 259.3 225.249 258.9 225.633 258.58L226.209 258.1C226.593 257.78 226.977 257.62 227.361 257.62H232.953C233.273 257.62 233.657 257.78 234.105 258.1L234.705 258.58C235.089 258.868 235.281 259.268 235.281 259.78V264.7H227.073V266.956C227.073 267.196 227.081 267.356 227.097 267.436C227.129 267.5 227.217 267.588 227.361 267.7C227.505 267.812 227.617 267.884 227.697 267.916C227.777 267.932 227.961 267.94 228.249 267.94H232.905C233.193 267.94 233.385 267.924 233.481 267.892C233.593 267.844 233.793 267.7 234.081 267.46ZM233.265 263.14V260.284C233.265 260.044 233.249 259.892 233.217 259.828C233.201 259.748 233.121 259.652 232.977 259.54C232.833 259.428 232.721 259.364 232.641 259.348C232.561 259.316 232.377 259.3 232.089 259.3H228.249C227.961 259.3 227.777 259.316 227.697 259.348C227.617 259.364 227.505 259.428 227.361 259.54C227.217 259.652 227.129 259.748 227.097 259.828C227.081 259.892 227.073 260.044 227.073 260.284V263.14H233.265ZM248.263 257.62H249.103V258.796C249.103 259.036 249.087 259.196 249.055 259.276C249.039 259.34 248.959 259.428 248.815 259.54C248.671 259.652 248.583 259.748 248.551 259.828C248.535 259.892 248.527 260.044 248.527 260.284V275.86H246.511V268.42H246.415C246.415 268.516 246.223 268.756 245.839 269.14C245.487 269.46 245.103 269.62 244.687 269.62H240.463C240.079 269.62 239.695 269.46 239.311 269.14L238.735 268.66C238.351 268.34 238.159 267.94 238.159 267.46V259.78C238.159 259.3 238.351 258.9 238.735 258.58L239.311 258.1C239.695 257.78 240.079 257.62 240.463 257.62H245.047C245.335 257.62 245.527 257.636 245.623 257.668C245.735 257.7 245.935 257.804 246.223 257.98C246.575 258.188 246.751 258.388 246.751 258.58H246.847C246.847 258.388 246.975 258.188 247.231 257.98C247.423 257.82 247.567 257.724 247.663 257.692C247.775 257.644 247.975 257.62 248.263 257.62ZM241.351 267.94H244.783C245.167 267.94 245.551 267.78 245.935 267.46C246.319 267.14 246.511 266.82 246.511 266.5V260.524C246.511 260.284 246.487 260.124 246.439 260.044C246.391 259.964 246.223 259.836 245.935 259.66C245.647 259.484 245.447 259.38 245.335 259.348C245.239 259.316 245.047 259.3 244.759 259.3H241.351C241.063 259.3 240.879 259.316 240.799 259.348C240.719 259.364 240.607 259.428 240.463 259.54C240.319 259.652 240.231 259.748 240.199 259.828C240.183 259.892 240.175 260.044 240.175 260.284V266.956C240.175 267.196 240.183 267.356 240.199 267.436C240.231 267.5 240.319 267.588 240.463 267.7C240.607 267.812 240.719 267.884 240.799 267.916C240.879 267.932 241.063 267.94 241.351 267.94ZM258.059 269.62H254.291C253.907 269.62 253.523 269.46 253.139 269.14L252.563 268.66C252.179 268.34 251.987 267.94 251.987 267.46V257.62H254.003V266.956C254.003 267.196 254.011 267.356 254.027 267.436C254.059 267.5 254.147 267.588 254.291 267.7C254.435 267.812 254.547 267.884 254.627 267.916C254.707 267.932 254.891 267.94 255.179 267.94H257.771C258.059 267.94 258.251 267.924 258.347 267.892C258.459 267.86 258.659 267.756 258.947 267.58C259.235 267.404 259.403 267.276 259.451 267.196C259.499 267.116 259.523 266.956 259.523 266.716V257.62H261.539V266.956C261.539 267.196 261.547 267.356 261.563 267.436C261.595 267.5 261.683 267.588 261.827 267.7C261.971 267.812 262.051 267.908 262.067 267.988C262.099 268.052 262.115 268.204 262.115 268.444V269.62H261.275C260.987 269.62 260.787 269.604 260.675 269.572C260.579 269.524 260.435 269.42 260.243 269.26C259.987 269.052 259.859 268.852 259.859 268.66H259.763C259.763 268.852 259.587 269.052 259.235 269.26C258.947 269.436 258.747 269.54 258.635 269.572C258.539 269.604 258.347 269.62 258.059 269.62ZM273.443 268.66H273.347C273.347 268.852 273.171 269.052 272.819 269.26C272.531 269.436 272.331 269.54 272.219 269.572C272.123 269.604 271.931 269.62 271.643 269.62H267.539C267.155 269.62 266.771 269.46 266.387 269.14L265.811 268.66C265.427 268.34 265.235 267.94 265.235 267.46V264.58C265.235 264.1 265.427 263.7 265.811 263.38L266.387 262.9C266.771 262.58 267.155 262.42 267.539 262.42H271.835C272.139 262.42 272.331 262.436 272.411 262.468C272.491 262.484 272.595 262.548 272.723 262.66C272.915 262.82 273.011 262.98 273.011 263.14H273.107V260.284C273.107 260.044 273.091 259.892 273.059 259.828C273.043 259.748 272.963 259.652 272.819 259.54C272.675 259.428 272.563 259.364 272.483 259.348C272.403 259.316 272.219 259.3 271.931 259.3H268.043C267.755 259.3 267.555 259.324 267.443 259.372C267.347 259.404 267.155 259.54 266.867 259.78L265.427 258.58L266.003 258.1C266.291 257.86 266.483 257.724 266.579 257.692C266.691 257.644 266.891 257.62 267.179 257.62H272.819C273.203 257.62 273.587 257.78 273.971 258.1L274.547 258.58C274.931 258.9 275.123 259.3 275.123 259.78V266.956C275.123 267.196 275.131 267.356 275.147 267.436C275.179 267.5 275.267 267.588 275.411 267.7C275.555 267.812 275.635 267.908 275.651 267.988C275.683 268.052 275.699 268.204 275.699 268.444V269.62H274.859C274.571 269.62 274.371 269.604 274.259 269.572C274.163 269.524 274.019 269.42 273.827 269.26C273.571 269.052 273.443 268.852 273.443 268.66ZM267.251 265.084V266.956C267.251 267.196 267.259 267.356 267.275 267.436C267.307 267.5 267.395 267.588 267.539 267.7C267.683 267.812 267.795 267.884 267.875 267.916C267.955 267.932 268.139 267.94 268.427 267.94H271.355C271.643 267.94 271.835 267.924 271.931 267.892C272.043 267.86 272.243 267.756 272.531 267.58C272.819 267.404 272.987 267.276 273.035 267.196C273.083 267.116 273.107 266.956 273.107 266.716V265.084C273.107 264.844 273.091 264.692 273.059 264.628C273.043 264.548 272.963 264.452 272.819 264.34C272.675 264.228 272.563 264.164 272.483 264.148C272.403 264.116 272.219 264.1 271.931 264.1H268.427C268.139 264.1 267.955 264.116 267.875 264.148C267.795 264.164 267.683 264.228 267.539 264.34C267.395 264.452 267.307 264.548 267.275 264.628C267.259 264.692 267.251 264.844 267.251 265.084ZM278.708 251.86H280.724V266.62C280.724 266.988 280.74 267.22 280.772 267.316C280.804 267.396 280.916 267.5 281.108 267.628C281.316 267.788 281.436 267.916 281.468 268.012C281.516 268.092 281.54 268.316 281.54 268.684V269.62H280.82C280.516 269.62 280.316 269.604 280.22 269.572C280.124 269.54 279.956 269.444 279.716 269.284L279.188 268.924C278.948 268.764 278.804 268.636 278.756 268.54C278.724 268.444 278.708 268.212 278.708 267.844V251.86ZM292.174 262.66C292.558 262.66 292.942 262.82 293.326 263.14L293.902 263.62C294.286 263.94 294.478 264.34 294.478 264.82V267.46C294.478 267.94 294.286 268.34 293.902 268.66L293.326 269.14C292.942 269.46 292.558 269.62 292.174 269.62H286.846C286.462 269.62 286.078 269.46 285.694 269.14L285.118 268.66C284.734 268.34 284.542 267.94 284.542 267.46V266.5H286.558V266.956C286.558 267.196 286.566 267.356 286.582 267.436C286.614 267.5 286.702 267.588 286.846 267.7C286.99 267.812 287.102 267.884 287.182 267.916C287.262 267.932 287.446 267.94 287.734 267.94H291.286C291.574 267.94 291.758 267.932 291.838 267.916C291.918 267.884 292.03 267.812 292.174 267.7C292.318 267.588 292.398 267.5 292.414 267.436C292.446 267.356 292.462 267.196 292.462 266.956V265.012C292.446 264.884 292.35 264.74 292.174 264.58C292.03 264.468 291.918 264.404 291.838 264.388C291.758 264.356 291.574 264.34 291.286 264.34H287.086C286.702 264.34 286.318 264.18 285.934 263.86L285.358 263.38C284.974 263.06 284.782 262.66 284.782 262.18V259.78C284.782 259.3 284.974 258.9 285.358 258.58L285.934 258.1C286.318 257.78 286.702 257.62 287.086 257.62H292.174C292.558 257.62 292.942 257.78 293.326 258.1L293.902 258.58C294.286 258.9 294.478 259.3 294.478 259.78V260.74H292.462V260.284C292.462 260.044 292.446 259.892 292.414 259.828C292.398 259.748 292.318 259.652 292.174 259.54C292.03 259.428 291.918 259.364 291.838 259.348C291.758 259.316 291.574 259.3 291.286 259.3H287.974C287.686 259.3 287.502 259.316 287.422 259.348C287.342 259.364 287.23 259.428 287.086 259.54C286.942 259.652 286.854 259.748 286.822 259.828C286.806 259.892 286.798 260.044 286.798 260.284V261.676C286.798 261.916 286.806 262.076 286.822 262.156C286.854 262.22 286.942 262.308 287.086 262.42C287.23 262.532 287.342 262.604 287.422 262.636C287.502 262.652 287.686 262.66 287.974 262.66H292.174ZM306.53 252.82H316.034C316.418 252.82 316.802 252.98 317.186 253.3L317.762 253.78C318.146 254.1 318.338 254.5 318.338 254.98V267.46C318.338 267.94 318.146 268.34 317.762 268.66L317.186 269.14C316.802 269.46 316.418 269.62 316.034 269.62H306.53C306.146 269.62 305.762 269.46 305.378 269.14L304.802 268.66C304.418 268.34 304.226 267.94 304.226 267.46V254.98C304.226 254.5 304.418 254.1 304.802 253.78L305.378 253.3C305.762 252.98 306.146 252.82 306.53 252.82ZM316.322 266.956V255.484C316.322 255.244 316.306 255.092 316.274 255.028C316.258 254.948 316.178 254.852 316.034 254.74C315.89 254.628 315.778 254.564 315.698 254.548C315.618 254.516 315.434 254.5 315.146 254.5H307.418C307.13 254.5 306.946 254.516 306.866 254.548C306.786 254.564 306.674 254.628 306.53 254.74C306.386 254.852 306.298 254.948 306.266 255.028C306.25 255.092 306.242 255.244 306.242 255.484V266.956C306.242 267.196 306.25 267.356 306.266 267.436C306.298 267.5 306.386 267.588 306.53 267.7C306.674 267.812 306.786 267.884 306.866 267.916C306.946 267.932 307.13 267.94 307.418 267.94H315.146C315.434 267.94 315.618 267.932 315.698 267.916C315.778 267.884 315.89 267.812 316.034 267.7C316.178 267.588 316.258 267.5 316.274 267.436C316.306 267.356 316.322 267.196 316.322 266.956ZM324.104 268.204V268.756C324.104 268.996 324.096 269.148 324.08 269.212C324.064 269.276 324 269.356 323.888 269.452C323.776 269.564 323.536 269.62 323.168 269.62H323.048C322.664 269.62 322.408 269.564 322.28 269.452C322.152 269.324 322.088 269.092 322.088 268.756V268.204C322.088 267.964 322.096 267.812 322.112 267.748C322.128 267.684 322.192 267.604 322.304 267.508C322.416 267.396 322.664 267.34 323.048 267.34H323.144C323.528 267.34 323.784 267.396 323.912 267.508C324.04 267.636 324.104 267.868 324.104 268.204Z" fill="white"/>
</svg>
