<svg width="285" height="10" viewBox="0 0 285 10" fill="none" xmlns="http://www.w3.org/2000/svg">
<path d="M280.028 0.504517C277.758 0.504517 275.888 2.15857 275.524 4.32403H9.08764C8.72387 2.15857 6.85157 0.504517 4.5834 0.504517C2.05205 0.504517 0 2.55656 0 5.08792C0 7.61927 2.05205 9.6692 4.5834 9.6692C6.85157 9.6692 8.72387 8.01512 9.08764 5.85181H275.524C275.89 8.01726 277.76 9.6692 280.028 9.6692C282.56 9.6692 284.61 7.61713 284.61 5.08792C284.612 2.55656 282.56 0.504517 280.028 0.504517Z" fill="#0EEB81"/>
<path d="M162.803 3.26712C162.148 1.47826 160.46 0.187988 158.444 0.187988H15.5048C13.4892 0.187988 11.8009 1.47826 11.1461 3.26712H162.803Z" fill="#0EEB81"/>
<path d="M11.3109 6.90698C12.0705 8.46474 13.6561 9.54318 15.5049 9.54318H158.444C160.293 9.54318 161.879 8.4626 162.638 6.90698H11.3109Z" fill="#0EEB81"/>
</svg>
